Istok Web-Regular Italic.ufo
<glyph name="exclam" format="1">
  <advance width="293"/>
  <unicode hex="0021"/>
  <outline>
    <contour>
      <point x="154" y="190" type="line" smooth="yes"/>
      <point x="169" y="190"/>
      <point x="177" y="197"/>
      <point x="181" y="212" type="curve" smooth="yes"/>
      <point x="298" y="673" type="line" smooth="yes"/>
      <point x="299" y="676"/>
      <point x="299" y="679"/>
      <point x="299" y="683" type="curve" smooth="yes"/>
      <point x="299" y="694"/>
      <point x="293" y="700"/>
      <point x="280" y="700" type="curve" smooth="yes"/>
      <point x="229" y="700" type="line" smooth="yes"/>
      <point x="212" y="700"/>
      <point x="202" y="691"/>
      <point x="198" y="673" type="curve" smooth="yes"/>
      <point x="102" y="212" type="line" smooth="yes"/>
      <point x="101" y="209"/>
      <point x="101" y="207"/>
      <point x="101" y="204" type="curve" smooth="yes"/>
      <point x="101" y="194"/>
      <point x="107" y="190"/>
      <point x="119" y="190" type="curve" smooth="yes"/>
    </contour>
    <contour>
      <point x="120" y="0" type="line" smooth="yes"/>
      <point x="135" y="0"/>
      <point x="143" y="7"/>
      <point x="147" y="22" type="curve" smooth="yes"/>
      <point x="161" y="82" type="line" smooth="yes"/>
      <point x="162" y="85"/>
      <point x="162" y="87"/>
      <point x="162" y="90" type="curve" smooth="yes"/>
      <point x="162" y="99"/>
      <point x="156" y="104"/>
      <point x="144" y="104" type="curve" smooth="yes"/>
      <point x="89" y="104" type="line" smooth="yes"/>
      <point x="74" y="104"/>
      <point x="67" y="97"/>
      <point x="63" y="82" type="curve" smooth="yes"/>
      <point x="48" y="22" type="line" smooth="yes"/>
      <point x="47" y="19"/>
      <point x="47" y="17"/>
      <point x="47" y="15" type="curve" smooth="yes"/>
      <point x="47" y="5"/>
      <point x="53" y="0"/>
      <point x="65" y="0" type="curve" smooth="yes"/>
    </contour>
  </outline>
</glyph>
<glyph name="numbersign" format="1">
  <advance width="679"/>
  <unicode hex="0023"/>
  <outline>
    <contour>
      <point x="204" y="0" type="line" smooth="yes"/>
      <point x="215" y="0"/>
      <point x="222" y="7"/>
      <point x="225" y="22" type="curve" smooth="yes"/>
      <point x="253" y="183" type="line"/>
      <point x="417" y="183" type="line"/>
      <point x="389" y="22" type="line" smooth="yes"/>
      <point x="388" y="19"/>
      <point x="388" y="16"/>
      <point x="388" y="14" type="curve" smooth="yes"/>
      <point x="388" y="4"/>
      <point x="393" y="0"/>
      <point x="402" y="0" type="curve" smooth="yes"/>
      <point x="432" y="0" type="line" smooth="yes"/>
      <point x="444" y="0"/>
      <point x="450" y="7"/>
      <point x="453" y="22" type="curve" smooth="yes"/>
      <point x="481" y="183" type="line"/>
      <point x="586" y="183" type="line" smooth="yes"/>
      <point x="601" y="183"/>
      <point x="609" y="189"/>
      <point x="611" y="200" type="curve" smooth="yes"/>
      <point x="616" y="225" type="line"/>
      <point x="616" y="226"/>
      <point x="616" y="227"/>
      <point x="616" y="229" type="curve" smooth="yes"/>
      <point x="616" y="237"/>
      <point x="610" y="242"/>
      <point x="597" y="242" type="curve" smooth="yes"/>
      <point x="492" y="242" type="line"/>
      <point x="529" y="453" type="line"/>
      <point x="634" y="453" type="line" smooth="yes"/>
      <point x="649" y="453"/>
      <point x="657" y="459"/>
      <point x="659" y="470" type="curve" smooth="yes"/>
      <point x="663" y="494" type="line"/>
      <point x="663" y="495"/>
      <point x="663" y="497"/>
      <point x="663" y="498" type="curve" smooth="yes"/>
      <point x="663" y="506"/>
      <point x="657" y="511"/>
      <point x="645" y="511" type="curve" smooth="yes"/>
      <point x="540" y="511" type="line"/>
      <point x="568" y="672" type="line" smooth="yes"/>
      <point x="568" y="674"/>
      <point x="568" y="677"/>
      <point x="568" y="679" type="curve" smooth="yes"/>
      <point x="568" y="689"/>
      <point x="564" y="694"/>
      <point x="555" y="694" type="curve" smooth="yes"/>
      <point x="524" y="694" type="line" smooth="yes"/>
      <point x="513" y="694"/>
      <point x="505" y="687"/>
      <point x="503" y="672" type="curve" smooth="yes"/>
      <point x="475" y="511" type="line"/>
      <point x="311" y="511" type="line"/>
      <point x="339" y="672" type="line" smooth="yes"/>
      <point x="339" y="675"/>
      <point x="340" y="677"/>
      <point x="340" y="680" type="curve" smooth="yes"/>
      <point x="340" y="689"/>
      <point x="335" y="694"/>
      <point x="326" y="694" type="curve" smooth="yes"/>
      <point x="296" y="694" type="line" smooth="yes"/>
      <point x="283" y="694"/>
      <point x="277" y="687"/>
      <point x="275" y="672" type="curve" smooth="yes"/>
      <point x="247" y="511" type="line"/>
      <point x="142" y="511" type="line" smooth="yes"/>
      <point x="127" y="511"/>
      <point x="118" y="505"/>
      <point x="116" y="494" type="curve" smooth="yes"/>
      <point x="112" y="470" type="line"/>
      <point x="112" y="469"/>
      <point x="112" y="467"/>
      <point x="112" y="466" type="curve" smooth="yes"/>
      <point x="112" y="458"/>
      <point x="118" y="453"/>
      <point x="131" y="453" type="curve" smooth="yes"/>
      <point x="236" y="453" type="line"/>
      <point x="199" y="242" type="line"/>
      <point x="94" y="242" type="line" smooth="yes"/>
      <point x="79" y="242"/>
      <point x="71" y="236"/>
      <point x="69" y="225" type="curve" smooth="yes"/>
      <point x="64" y="200" type="line"/>
      <point x="64" y="189"/>
      <point x="68" y="183"/>
      <point x="83" y="183" type="curve" smooth="yes"/>
      <point x="188" y="183" type="line"/>
      <point x="160" y="22" type="line" smooth="yes"/>
      <point x="160" y="19"/>
      <point x="159" y="17"/>
      <point x="159" y="15" type="curve" smooth="yes"/>
      <point x="159" y="5"/>
      <point x="164" y="0"/>
      <point x="173" y="0" type="curve" smooth="yes"/>
    </contour>
    <contour>
      <point x="300" y="453" type="line"/>
      <point x="464" y="453" type="line"/>
      <point x="427" y="242" type="line"/>
      <point x="263" y="242" type="line"/>
    </contour>
  </outline>
</glyph>
<glyph name="dollar" format="1">
  <advance width="542"/>
  <unicode hex="0024"/>
  <outline>
    <contour>
      <point x="222" y="-103" type="line" smooth="yes"/>
      <point x="232" y="-103"/>
      <point x="240" y="-96"/>
      <point x="244" y="-81" type="curve" smooth="yes"/>
      <point x="259" y="-14" type="line"/>
      <point x="339" y="-12"/>
      <point x="493" y="44"/>
      <point x="493" y="188" type="curve" smooth="yes"/>
      <point x="493" y="284"/>
      <point x="447" y="337"/>
      <point x="351" y="383" type="curve"/>
      <point x="408" y="629" type="line"/>
      <point x="452" y="619"/>
      <point x="498" y="581"/>
      <point x="509" y="581" type="curve" smooth="yes"/>
      <point x="514" y="581"/>
      <point x="518" y="583"/>
      <point x="522" y="588" type="curve" smooth="yes"/>
      <point x="545" y="617" type="line" smooth="yes"/>
      <point x="549" y="621"/>
      <point x="551" y="626"/>
      <point x="551" y="631" type="curve" smooth="yes"/>
      <point x="551" y="665"/>
      <point x="463" y="702"/>
      <point x="425" y="706" type="curve"/>
      <point x="439" y="767" type="line" smooth="yes"/>
      <point x="440" y="769"/>
      <point x="440" y="772"/>
      <point x="440" y="776" type="curve" smooth="yes"/>
      <point x="440" y="785"/>
      <point x="436" y="789"/>
      <point x="427" y="789" type="curve" smooth="yes"/>
      <point x="403" y="789" type="line" smooth="yes"/>
      <point x="390" y="789"/>
      <point x="384" y="782"/>
      <point x="381" y="767" type="curve" smooth="yes"/>
      <point x="367" y="708" type="line"/>
      <point x="312" y="706"/>
      <point x="144" y="688"/>
      <point x="144" y="522" type="curve" smooth="yes"/>
      <point x="144" y="414"/>
      <point x="189" y="377"/>
      <point x="236" y="349" type="curve" smooth="yes"/>
      <point x="278" y="324" type="line"/>
      <point x="217" y="60" type="line"/>
      <point x="175" y="62"/>
      <point x="141" y="65"/>
      <point x="95" y="108" type="curve" smooth="yes"/>
      <point x="85" y="117"/>
      <point x="76" y="123"/>
      <point x="68" y="123" type="curve" smooth="yes"/>
      <point x="62" y="123"/>
      <point x="57" y="120"/>
      <point x="53" y="115" type="curve" smooth="yes"/>
      <point x="32" y="90" type="line" smooth="yes"/>
      <point x="28" y="86"/>
      <point x="26" y="81"/>
      <point x="26" y="76" type="curve" smooth="yes"/>
      <point x="26" y="30"/>
      <point x="126" y="-9"/>
      <point x="201" y="-14" type="curve"/>
      <point x="185" y="-81" type="line" smooth="yes"/>
      <point x="184" y="-83"/>
      <point x="184" y="-86"/>
      <point x="184" y="-89" type="curve" smooth="yes"/>
      <point x="184" y="-98"/>
      <point x="188" y="-103"/>
      <point x="197" y="-103" type="curve" smooth="yes"/>
    </contour>
    <contour>
      <point x="331" y="296" type="line"/>
      <point x="350" y="284" type="line" smooth="yes"/>
      <point x="393" y="257"/>
      <point x="397" y="224"/>
      <point x="397" y="187" type="curve" smooth="yes"/>
      <point x="397" y="152"/>
      <point x="383" y="123"/>
      <point x="355" y="101" type="curve" smooth="yes"/>
      <point x="326" y="78"/>
      <point x="299" y="65"/>
      <point x="276" y="61" type="curve"/>
    </contour>
    <contour>
      <point x="276" y="426" type="line" smooth="yes"/>
      <point x="257" y="439"/>
      <point x="247" y="455"/>
      <point x="241" y="474" type="curve"/>
      <point x="236" y="495"/>
      <point x="234" y="514"/>
      <point x="234" y="529" type="curve" smooth="yes"/>
      <point x="234" y="590"/>
      <point x="290" y="631"/>
      <point x="351" y="635" type="curve"/>
      <point x="298" y="410" type="line"/>
    </contour>
  </outline>
</glyph>
<glyph name="ampersand" format="1">
  <advance width="661"/>
  <unicode hex="0026"/>
  <outline>
    <contour>
      <point x="319" y="-15"/>
      <point x="353" y="22"/>
      <point x="434" y="84" type="curve"/>
      <point x="473" y="21" type="line" smooth="yes"/>
      <point x="481" y="7"/>
      <point x="494" y="0"/>
      <point x="514" y="0" type="curve" smooth="yes"/>
      <point x="554" y="0" type="line" smooth="yes"/>
      <point x="568" y="0"/>
      <point x="575" y="4"/>
      <point x="575" y="12" type="curve" smooth="yes"/>
      <point x="575" y="16"/>
      <point x="573" y="21"/>
      <point x="569" y="28" type="curve" smooth="yes"/>
      <point x="503" y="137" type="line"/>
      <point x="529" y="158"/>
      <point x="606" y="237"/>
      <point x="629" y="293" type="curve" smooth="yes"/>
      <point x="631" y="297"/>
      <point x="632" y="301"/>
      <point x="632" y="304" type="curve" smooth="yes"/>
      <point x="632" y="311"/>
      <point x="627" y="317"/>
      <point x="618" y="321" type="curve" smooth="yes"/>
      <point x="585" y="336" type="line"/>
      <point x="581" y="337"/>
      <point x="578" y="338"/>
      <point x="577" y="338" type="curve" smooth="yes"/>
      <point x="562" y="338"/>
      <point x="519" y="245"/>
      <point x="466" y="198" type="curve"/>
      <point x="351" y="387" type="line"/>
      <point x="443" y="443"/>
      <point x="521" y="514"/>
      <point x="521" y="576" type="curve" smooth="yes"/>
      <point x="521" y="680"/>
      <point x="442" y="715"/>
      <point x="375" y="715" type="curve" smooth="yes"/>
      <point x="250" y="715"/>
      <point x="196" y="643"/>
      <point x="196" y="565" type="curve" smooth="yes"/>
      <point x="196" y="490"/>
      <point x="234" y="416"/>
      <point x="243" y="399" type="curve"/>
      <point x="164" y="348"/>
      <point x="109" y="301"/>
      <point x="79" y="258" type="curve" smooth="yes"/>
      <point x="50" y="215"/>
      <point x="35" y="176"/>
      <point x="35" y="142" type="curve" smooth="yes"/>
      <point x="35" y="29"/>
      <point x="114" y="-15"/>
      <point x="219" y="-15" type="curve" smooth="yes"/>
    </contour>
    <contour>
      <point x="195" y="56"/>
      <point x="168" y="64"/>
      <point x="153" y="81" type="curve" smooth="yes"/>
      <point x="138" y="98"/>
      <point x="130" y="121"/>
      <point x="130" y="150" type="curve" smooth="yes"/>
      <point x="130" y="211"/>
      <point x="183" y="284"/>
      <point x="279" y="341" type="curve"/>
      <point x="398" y="143" type="line"/>
      <point x="343" y="94"/>
      <point x="292" y="56"/>
      <point x="236" y="56" type="curve" smooth="yes"/>
    </contour>
    <contour>
      <point x="303" y="467"/>
      <point x="296" y="482"/>
      <point x="293" y="490" type="curve" smooth="yes"/>
      <point x="287" y="506"/>
      <point x="284" y="529"/>
      <point x="284" y="558" type="curve" smooth="yes"/>
      <point x="284" y="620"/>
      <point x="321" y="647"/>
      <point x="363" y="647" type="curve" smooth="yes"/>
      <point x="410" y="647"/>
      <point x="433" y="622"/>
      <point x="433" y="583" type="curve" smooth="yes"/>
      <point x="433" y="544"/>
      <point x="405" y="506"/>
      <point x="314" y="445" type="curve"/>
    </contour>
  </outline>
</glyph>
<glyph name="quotesingle" format="1">
  <advance width="233"/>
  <unicode hex="0027"/>
  <outline>
    <contour>
      <point x="171" y="402" type="line" smooth="yes"/>
      <point x="182" y="402"/>
      <point x="189" y="409"/>
      <point x="193" y="424" type="curve" smooth="yes"/>
      <point x="265" y="690" type="line"/>
      <point x="266" y="697"/>
      <point x="267" y="701"/>
      <point x="267" y="703" type="curve" smooth="yes"/>
      <point x="267" y="712"/>
      <point x="262" y="717"/>
      <point x="253" y="717" type="curve" smooth="yes"/>
      <point x="203" y="717" type="line" smooth="yes"/>
      <point x="190" y="717"/>
      <point x="182" y="708"/>
      <point x="179" y="690" type="curve" smooth="yes"/>
      <point x="128" y="424" type="line"/>
      <point x="127" y="422"/>
      <point x="127" y="419"/>
      <point x="127" y="416" type="curve" smooth="yes"/>
      <point x="127" y="407"/>
      <point x="131" y="402"/>
      <point x="140" y="402" type="curve" smooth="yes"/>
    </contour>
  </outline>
</glyph>
<glyph name="parenleft" format="1">
  <advance width="327"/>
  <unicode hex="0028"/>
  <outline>
    <contour>
      <point x="164" y="-211"/>
      <point x="167" y="-210"/>
      <point x="170" y="-208" type="curve" smooth="yes"/>
      <point x="188" y="-196" type="line" smooth="yes"/>
      <point x="193" y="-193"/>
      <point x="195" y="-189"/>
      <point x="195" y="-183" type="curve" smooth="yes"/>
      <point x="195" y="-178"/>
      <point x="193" y="-172"/>
      <point x="190" y="-167" type="curve" smooth="yes"/>
      <point x="161" y="-114"/>
      <point x="140" y="-8"/>
      <point x="140" y="140" type="curve" smooth="yes"/>
      <point x="140" y="264"/>
      <point x="171" y="380"/>
      <point x="237" y="484" type="curve" smooth="yes"/>
      <point x="303" y="589"/>
      <point x="356" y="660"/>
      <point x="395" y="695" type="curve" smooth="yes"/>
      <point x="401" y="701"/>
      <point x="404" y="706"/>
      <point x="404" y="711" type="curve" smooth="yes"/>
      <point x="404" y="715"/>
      <point x="402" y="719"/>
      <point x="398" y="723" type="curve" smooth="yes"/>
      <point x="383" y="738" type="line"/>
      <point x="378" y="741"/>
      <point x="374" y="743"/>
      <point x="371" y="743" type="curve" smooth="yes"/>
      <point x="366" y="743"/>
      <point x="358" y="739"/>
      <point x="349" y="731" type="curve" smooth="yes"/>
      <point x="244" y="636"/>
      <point x="167" y="539"/>
      <point x="118" y="441" type="curve" smooth="yes"/>
      <point x="69" y="344"/>
      <point x="44" y="249"/>
      <point x="44" y="154" type="curve" smooth="yes"/>
      <point x="44" y="48"/>
      <point x="79" y="-124"/>
      <point x="138" y="-195" type="curve"/>
      <point x="146" y="-206"/>
      <point x="153" y="-212"/>
      <point x="162" y="-211" type="curve" smooth="yes"/>
    </contour>
  </outline>
</glyph>
<glyph name="parenright" format="1">
  <advance width="327"/>
  <unicode hex="0029"/>
  <outline>
    <contour>
      <point x="-19" y="-211"/>
      <point x="-11" y="-207"/>
      <point x="-2" y="-200" type="curve"/>
      <point x="210" y="-6"/>
      <point x="302" y="195"/>
      <point x="302" y="377" type="curve" smooth="yes"/>
      <point x="302" y="484"/>
      <point x="267" y="652"/>
      <point x="208" y="727" type="curve" smooth="yes"/>
      <point x="200" y="737"/>
      <point x="192" y="742"/>
      <point x="185" y="742" type="curve" smooth="yes"/>
      <point x="182" y="742"/>
      <point x="179" y="741"/>
      <point x="176" y="739" type="curve" smooth="yes"/>
      <point x="158" y="728" type="line" smooth="yes"/>
      <point x="153" y="725"/>
      <point x="151" y="721"/>
      <point x="151" y="715" type="curve" smooth="yes"/>
      <point x="151" y="710"/>
      <point x="153" y="704"/>
      <point x="156" y="699" type="curve" smooth="yes"/>
      <point x="185" y="644"/>
      <point x="207" y="539"/>
      <point x="207" y="392" type="curve" smooth="yes"/>
      <point x="207" y="267"/>
      <point x="174" y="152"/>
      <point x="108" y="47" type="curve" smooth="yes"/>
      <point x="43" y="-58"/>
      <point x="-9" y="-128"/>
      <point x="-49" y="-164" type="curve" smooth="yes"/>
      <point x="-55" y="-170"/>
      <point x="-58" y="-175"/>
      <point x="-58" y="-180" type="curve" smooth="yes"/>
      <point x="-58" y="-184"/>
      <point x="-56" y="-188"/>
      <point x="-52" y="-192" type="curve" smooth="yes"/>
      <point x="-37" y="-207" type="line" smooth="yes"/>
      <point x="-34" y="-210"/>
      <point x="-31" y="-211"/>
      <point x="-26" y="-211" type="curve" smooth="yes"/>
    </contour>
  </outline>
</glyph>
<glyph name="asterisk" format="1">
  <advance width="459"/>
  <unicode hex="002A"/>
  <outline>
    <contour>
      <point x="259" y="318" type="line" smooth="yes"/>
      <point x="284" y="318"/>
      <point x="301" y="332"/>
      <point x="304" y="361" type="curve" smooth="yes"/>
      <point x="316" y="474" type="line"/>
      <point x="392" y="406" type="line"/>
      <point x="401" y="399"/>
      <point x="409" y="395"/>
      <point x="416" y="395" type="curve" smooth="yes"/>
      <point x="427" y="395"/>
      <point x="438" y="402"/>
      <point x="449" y="415" type="curve" smooth="yes"/>
      <point x="453" y="419" type="line" smooth="yes"/>
      <point x="461" y="429"/>
      <point x="465" y="438"/>
      <point x="465" y="446" type="curve" smooth="yes"/>
      <point x="465" y="457"/>
      <point x="458" y="465"/>
      <point x="445" y="471" type="curve" smooth="yes"/>
      <point x="351" y="516" type="line"/>
      <point x="465" y="562" type="line" smooth="yes"/>
      <point x="489" y="571"/>
      <point x="501" y="583"/>
      <point x="501" y="599" type="curve" smooth="yes"/>
      <point x="501" y="604"/>
      <point x="500" y="608"/>
      <point x="498" y="613" type="curve" smooth="yes"/>
      <point x="496" y="618" type="line" smooth="yes"/>
      <point x="491" y="631"/>
      <point x="483" y="638"/>
      <point x="473" y="638" type="curve" smooth="yes"/>
      <point x="465" y="638"/>
      <point x="455" y="634"/>
      <point x="443" y="626" type="curve" smooth="yes"/>
      <point x="336" y="559" type="line"/>
      <point x="375" y="672" type="line" smooth="yes"/>
      <point x="378" y="679"/>
      <point x="379" y="686"/>
      <point x="379" y="693" type="curve" smooth="yes"/>
      <point x="379" y="708"/>
      <point x="370" y="715"/>
      <point x="351" y="715" type="curve" smooth="yes"/>
      <point x="345" y="715" type="line" smooth="yes"/>
      <point x="319" y="715"/>
      <point x="303" y="701"/>
      <point x="300" y="672" type="curve" smooth="yes"/>
      <point x="287" y="559" type="line"/>
      <point x="211" y="626" type="line" smooth="yes"/>
      <point x="203" y="634"/>
      <point x="195" y="638"/>
      <point x="186" y="638" type="curve" smooth="yes"/>
      <point x="175" y="638"/>
      <point x="165" y="631"/>
      <point x="155" y="618" type="curve" smooth="yes"/>
      <point x="151" y="613" type="line" smooth="yes"/>
      <point x="143" y="603"/>
      <point x="139" y="594"/>
      <point x="139" y="586" type="curve" smooth="yes"/>
      <point x="139" y="576"/>
      <point x="146" y="568"/>
      <point x="159" y="562" type="curve" smooth="yes"/>
      <point x="253" y="516" type="line"/>
      <point x="138" y="471" type="line" smooth="yes"/>
      <point x="115" y="462"/>
      <point x="103" y="449"/>
      <point x="103" y="433" type="curve" smooth="yes"/>
      <point x="103" y="429"/>
      <point x="104" y="424"/>
      <point x="106" y="419" type="curve" smooth="yes"/>
      <point x="108" y="415" type="line" smooth="yes"/>
      <point x="113" y="402"/>
      <point x="121" y="395"/>
      <point x="132" y="395" type="curve" smooth="yes"/>
      <point x="140" y="395"/>
      <point x="150" y="399"/>
      <point x="161" y="406" type="curve" smooth="yes"/>
      <point x="268" y="474" type="line"/>
      <point x="229" y="361" type="line" smooth="yes"/>
      <point x="226" y="352"/>
      <point x="224" y="345"/>
      <point x="224" y="340" type="curve" smooth="yes"/>
      <point x="224" y="325"/>
      <point x="234" y="318"/>
      <point x="253" y="318" type="curve" smooth="yes"/>
    </contour>
  </outline>
</glyph>
<glyph name="comma" format="1">
  <advance width="293"/>
  <unicode hex="002C"/>
  <outline>
    <contour>
      <point x="67" y="-140"/>
      <point x="105" y="-93"/>
      <point x="117" y="-72" type="curve" smooth="yes"/>
      <point x="129" y="-51"/>
      <point x="140" y="-19"/>
      <point x="150" y="22" type="curve" smooth="yes"/>
      <point x="164" y="82" type="line"/>
      <point x="164" y="85"/>
      <point x="165" y="87"/>
      <point x="165" y="89" type="curve" smooth="yes"/>
      <point x="165" y="99"/>
      <point x="159" y="104"/>
      <point x="147" y="104" type="curve" smooth="yes"/>
      <point x="90" y="104" type="line" smooth="yes"/>
      <point x="76" y="104"/>
      <point x="66" y="97"/>
      <point x="63" y="82" type="curve" smooth="yes"/>
      <point x="49" y="22" type="line" smooth="yes"/>
      <point x="48" y="19"/>
      <point x="48" y="17"/>
      <point x="48" y="15" type="curve" smooth="yes"/>
      <point x="48" y="5"/>
      <point x="54" y="0"/>
      <point x="66" y="0" type="curve" smooth="yes"/>
      <point x="92" y="0" type="line"/>
      <point x="79" y="-52"/>
      <point x="22" y="-112"/>
      <point x="22" y="-112" type="curve"/>
      <point x="22" y="-113"/>
      <point x="23" y="-115"/>
      <point x="24" y="-118" type="curve"/>
      <point x="42" y="-137" type="line" smooth="yes"/>
      <point x="43" y="-139"/>
      <point x="45" y="-140"/>
      <point x="47" y="-140" type="curve" smooth="yes"/>
    </contour>
  </outline>
</glyph>
<glyph name="hyphen" format="1">
  <advance width="332"/>
  <unicode hex="002D"/>
  <outline>
    <contour>
      <point x="283" y="236" type="line" smooth="yes"/>
      <point x="297" y="236"/>
      <point x="306" y="242"/>
      <point x="309" y="253" type="curve" smooth="yes"/>
      <point x="316" y="287" type="line" smooth="yes"/>
      <point x="316" y="289"/>
      <point x="317" y="290"/>
      <point x="317" y="292" type="curve" smooth="yes"/>
      <point x="317" y="300"/>
      <point x="310" y="304"/>
      <point x="298" y="304" type="curve" smooth="yes"/>
      <point x="65" y="304" type="line" smooth="yes"/>
      <point x="51" y="304"/>
      <point x="42" y="298"/>
      <point x="39" y="287" type="curve" smooth="yes"/>
      <point x="31" y="253" type="line" smooth="yes"/>
      <point x="31" y="251"/>
      <point x="30" y="250"/>
      <point x="30" y="249" type="curve" smooth="yes"/>
      <point x="30" y="240"/>
      <point x="37" y="236"/>
      <point x="49" y="236" type="curve" smooth="yes"/>
    </contour>
  </outline>
</glyph>
<glyph name="period" format="1">
  <advance width="293"/>
  <unicode hex="002E"/>
  <outline>
    <contour>
      <point x="120" y="0" type="line" smooth="yes"/>
      <point x="135" y="0"/>
      <point x="143" y="7"/>
      <point x="147" y="22" type="curve" smooth="yes"/>
      <point x="161" y="82" type="line" smooth="yes"/>
      <point x="162" y="85"/>
      <point x="162" y="87"/>
      <point x="162" y="90" type="curve" smooth="yes"/>
      <point x="162" y="99"/>
      <point x="156" y="104"/>
      <point x="144" y="104" type="curve" smooth="yes"/>
      <point x="89" y="104" type="line" smooth="yes"/>
      <point x="74" y="104"/>
      <point x="67" y="97"/>
      <point x="63" y="82" type="curve" smooth="yes"/>
      <point x="48" y="22" type="line" smooth="yes"/>
      <point x="47" y="19"/>
      <point x="47" y="17"/>
      <point x="47" y="15" type="curve" smooth="yes"/>
      <point x="47" y="5"/>
      <point x="53" y="0"/>
      <point x="65" y="0" type="curve" smooth="yes"/>
    </contour>
  </outline>
</glyph>
<glyph name="slash" format="1">
  <advance width="410"/>
  <unicode hex="002F"/>
  <outline>
    <contour>
      <point x="-43" y="-203"/>
      <point x="-36" y="-198"/>
      <point x="-29" y="-187" type="curve" smooth="yes"/>
      <point x="520" y="678" type="line" smooth="yes"/>
      <point x="524" y="684"/>
      <point x="526" y="689"/>
      <point x="526" y="694" type="curve" smooth="yes"/>
      <point x="526" y="699"/>
      <point x="524" y="702"/>
      <point x="519" y="705" type="curve" smooth="yes"/>
      <point x="496" y="716" type="line"/>
      <point x="492" y="717"/>
      <point x="489" y="718"/>
      <point x="488" y="718" type="curve" smooth="yes"/>
      <point x="482" y="718"/>
      <point x="475" y="713"/>
      <point x="468" y="703" type="curve" smooth="yes"/>
      <point x="-81" y="-162" type="line" smooth="yes"/>
      <point x="-85" y="-168"/>
      <point x="-87" y="-173"/>
      <point x="-87" y="-178" type="curve" smooth="yes"/>
      <point x="-87" y="-183"/>
      <point x="-84" y="-187"/>
      <point x="-79" y="-189" type="curve" smooth="yes"/>
      <point x="-56" y="-201" type="line" smooth="yes"/>
      <point x="-54" y="-202"/>
      <point x="-52" y="-203"/>
      <point x="-49" y="-203" type="curve" smooth="yes"/>
    </contour>
  </outline>
</glyph>
<glyph name="zero" format="1">
  <advance width="542"/>
  <unicode hex="0030"/>
  <outline>
    <contour>
      <point x="335" y="-15"/>
      <point x="412" y="38"/>
      <point x="459" y="143" type="curve" smooth="yes"/>
      <point x="506" y="248"/>
      <point x="529" y="360"/>
      <point x="529" y="479" type="curve" smooth="yes"/>
      <point x="529" y="610"/>
      <point x="473" y="709"/>
      <point x="350" y="709" type="curve" smooth="yes"/>
      <point x="245" y="709"/>
      <point x="168" y="656"/>
      <point x="121" y="551" type="curve" smooth="yes"/>
      <point x="74" y="447"/>
      <point x="51" y="335"/>
      <point x="51" y="215" type="curve" smooth="yes"/>
      <point x="51" y="84"/>
      <point x="106" y="-15"/>
      <point x="230" y="-15" type="curve" smooth="yes"/>
    </contour>
    <contour>
      <point x="201" y="56"/>
      <point x="177" y="72"/>
      <point x="163" y="104" type="curve" smooth="yes"/>
      <point x="149" y="135"/>
      <point x="142" y="167"/>
      <point x="142" y="200" type="curve" smooth="yes"/>
      <point x="142" y="417"/>
      <point x="214" y="639"/>
      <point x="344" y="639" type="curve" smooth="yes"/>
      <point x="415" y="639"/>
      <point x="438" y="555"/>
      <point x="438" y="494" type="curve" smooth="yes"/>
      <point x="438" y="279"/>
      <point x="367" y="56"/>
      <point x="236" y="56" type="curve" smooth="yes"/>
    </contour>
  </outline>
</glyph>
<glyph name="one" format="1">
  <advance width="404"/>
  <unicode hex="0031"/>
  <outline>
    <contour>
      <point x="231" y="0" type="line" smooth="yes"/>
      <point x="244" y="0"/>
      <point x="254" y="7"/>
      <point x="258" y="22" type="curve" smooth="yes"/>
      <point x="410" y="681" type="line" smooth="yes"/>
      <point x="411" y="683"/>
      <point x="411" y="686"/>
      <point x="411" y="689" type="curve" smooth="yes"/>
      <point x="411" y="698"/>
      <point x="405" y="703"/>
      <point x="393" y="703" type="curve" smooth="yes"/>
      <point x="351" y="703" type="line" smooth="yes"/>
      <point x="333" y="703"/>
      <point x="230" y="602"/>
      <point x="170" y="583" type="curve" smooth="yes"/>
      <point x="158" y="579"/>
      <point x="152" y="573"/>
      <point x="152" y="566" type="curve" smooth="yes"/>
      <point x="152" y="564"/>
      <point x="152" y="562"/>
      <point x="153" y="561" type="curve" smooth="yes"/>
      <point x="167" y="521" type="line" smooth="yes"/>
      <point x="169" y="514"/>
      <point x="174" y="510"/>
      <point x="181" y="510" type="curve"/>
      <point x="189" y="512" type="line" smooth="yes"/>
      <point x="218" y="520"/>
      <point x="278" y="551"/>
      <point x="299" y="576" type="curve"/>
      <point x="301" y="576" type="line"/>
      <point x="298" y="566"/>
      <point x="295" y="556"/>
      <point x="293" y="546" type="curve" smooth="yes"/>
      <point x="172" y="22" type="line" smooth="yes"/>
      <point x="171" y="20"/>
      <point x="171" y="17"/>
      <point x="171" y="14" type="curve" smooth="yes"/>
      <point x="171" y="5"/>
      <point x="177" y="0"/>
      <point x="189" y="0" type="curve" smooth="yes"/>
    </contour>
  </outline>
</glyph>
<glyph name="two" format="1">
  <advance width="542"/>
  <unicode hex="0032"/>
  <outline>
    <contour>
      <point x="415" y="0" type="line" smooth="yes"/>
      <point x="433" y="0"/>
      <point x="442" y="7"/>
      <point x="446" y="22" type="curve" smooth="yes"/>
      <point x="455" y="58" type="line" smooth="yes"/>
      <point x="455" y="60"/>
      <point x="455" y="62"/>
      <point x="455" y="64" type="curve" smooth="yes"/>
      <point x="455" y="75"/>
      <point x="448" y="80"/>
      <point x="433" y="80" type="curve" smooth="yes"/>
      <point x="174" y="80" type="line" smooth="yes"/>
      <point x="156" y="80"/>
      <point x="143" y="80"/>
      <point x="134" y="79" type="curve"/>
      <point x="332" y="237" type="line" smooth="yes"/>
      <point x="385" y="279"/>
      <point x="437" y="324"/>
      <point x="488" y="376" type="curve" smooth="yes"/>
      <point x="531" y="420"/>
      <point x="553" y="477"/>
      <point x="553" y="539" type="curve" smooth="yes"/>
      <point x="553" y="643"/>
      <point x="486" y="709"/>
      <point x="350" y="709" type="curve" smooth="yes"/>
      <point x="230" y="709"/>
      <point x="114" y="606"/>
      <point x="114" y="529" type="curve" smooth="yes"/>
      <point x="114" y="520"/>
      <point x="117" y="514"/>
      <point x="124" y="512" type="curve" smooth="yes"/>
      <point x="160" y="498" type="line" smooth="yes"/>
      <point x="164" y="497"/>
      <point x="167" y="496"/>
      <point x="169" y="496" type="curve" smooth="yes"/>
      <point x="178" y="496"/>
      <point x="186" y="503"/>
      <point x="191" y="516" type="curve" smooth="yes"/>
      <point x="218" y="582"/>
      <point x="267" y="636"/>
      <point x="349" y="636" type="curve" smooth="yes"/>
      <point x="429" y="636"/>
      <point x="458" y="584"/>
      <point x="458" y="538" type="curve" smooth="yes"/>
      <point x="458" y="458"/>
      <point x="417" y="401"/>
      <point x="263" y="273" type="curve"/>
      <point x="27" y="81" type="line"/>
      <point x="13" y="68"/>
      <point x="5" y="56"/>
      <point x="2" y="45" type="curve" smooth="yes"/>
      <point x="-3" y="22" type="line" smooth="yes"/>
      <point x="-4" y="20"/>
      <point x="-4" y="18"/>
      <point x="-4" y="16" type="curve" smooth="yes"/>
      <point x="-4" y="5"/>
      <point x="4" y="0"/>
      <point x="19" y="0" type="curve" smooth="yes"/>
    </contour>
  </outline>
</glyph>
<glyph name="three" format="1">
  <advance width="542"/>
  <unicode hex="0033"/>
  <outline>
    <contour>
      <point x="412" y="-15"/>
      <point x="498" y="113"/>
      <point x="498" y="208" type="curve" smooth="yes"/>
      <point x="498" y="301"/>
      <point x="454" y="360"/>
      <point x="389" y="378" type="curve"/>
      <point x="390" y="380" type="line"/>
      <point x="444" y="385"/>
      <point x="549" y="461"/>
      <point x="549" y="546" type="curve" smooth="yes"/>
      <point x="549" y="649"/>
      <point x="483" y="709"/>
      <point x="356" y="709" type="curve" smooth="yes"/>
      <point x="271" y="709"/>
      <point x="142" y="647"/>
      <point x="142" y="608" type="curve" smooth="yes"/>
      <point x="142" y="603"/>
      <point x="143" y="600"/>
      <point x="146" y="597" type="curve" smooth="yes"/>
      <point x="172" y="567" type="line" smooth="yes"/>
      <point x="177" y="562"/>
      <point x="182" y="559"/>
      <point x="187" y="559" type="curve" smooth="yes"/>
      <point x="206" y="559"/>
      <point x="261" y="636"/>
      <point x="350" y="636" type="curve" smooth="yes"/>
      <point x="418" y="636"/>
      <point x="457" y="605"/>
      <point x="457" y="552" type="curve" smooth="yes"/>
      <point x="457" y="483"/>
      <point x="380" y="409"/>
      <point x="294" y="409" type="curve" smooth="yes"/>
      <point x="260" y="409" type="line" smooth="yes"/>
      <point x="245" y="409"/>
      <point x="236" y="403"/>
      <point x="234" y="392" type="curve" smooth="yes"/>
      <point x="226" y="356" type="line" smooth="yes"/>
      <point x="225" y="354"/>
      <point x="225" y="352"/>
      <point x="225" y="351" type="curve" smooth="yes"/>
      <point x="225" y="343"/>
      <point x="231" y="340"/>
      <point x="244" y="340" type="curve" smooth="yes"/>
      <point x="297" y="340" type="line" smooth="yes"/>
      <point x="370" y="340"/>
      <point x="402" y="300"/>
      <point x="402" y="215" type="curve" smooth="yes"/>
      <point x="402" y="123"/>
      <point x="320" y="59"/>
      <point x="230" y="59" type="curve" smooth="yes"/>
      <point x="181" y="59"/>
      <point x="130" y="84"/>
      <point x="94" y="125" type="curve" smooth="yes"/>
      <point x="84" y="137"/>
      <point x="75" y="143"/>
      <point x="67" y="143" type="curve" smooth="yes"/>
      <point x="62" y="143"/>
      <point x="59" y="141"/>
      <point x="56" y="138" type="curve" smooth="yes"/>
      <point x="28" y="109" type="line"/>
      <point x="24" y="106"/>
      <point x="22" y="102"/>
      <point x="22" y="96" type="curve" smooth="yes"/>
      <point x="22" y="64"/>
      <point x="103" y="-15"/>
      <point x="224" y="-15" type="curve" smooth="yes"/>
    </contour>
  </outline>
</glyph>
<glyph name="four" format="1">
  <advance width="542"/>
  <unicode hex="0034"/>
  <outline>
    <contour>
      <point x="330" y="0" type="line" smooth="yes"/>
      <point x="345" y="0"/>
      <point x="352" y="7"/>
      <point x="356" y="22" type="curve" smooth="yes"/>
      <point x="392" y="173" type="line"/>
      <point x="476" y="173" type="line" smooth="yes"/>
      <point x="491" y="173"/>
      <point x="499" y="180"/>
      <point x="502" y="195" type="curve" smooth="yes"/>
      <point x="510" y="231" type="line" smooth="yes"/>
      <point x="511" y="233"/>
      <point x="511" y="236"/>
      <point x="511" y="239" type="curve" smooth="yes"/>
      <point x="511" y="248"/>
      <point x="505" y="253"/>
      <point x="494" y="253" type="curve" smooth="yes"/>
      <point x="410" y="253" type="line"/>
      <point x="509" y="681" type="line" smooth="yes"/>
      <point x="509" y="683"/>
      <point x="510" y="686"/>
      <point x="510" y="688" type="curve" smooth="yes"/>
      <point x="510" y="698"/>
      <point x="503" y="703"/>
      <point x="491" y="703" type="curve" smooth="yes"/>
      <point x="447" y="703" type="line" smooth="yes"/>
      <point x="436" y="703"/>
      <point x="426" y="697"/>
      <point x="416" y="686" type="curve" smooth="yes"/>
      <point x="52" y="271" type="line" smooth="yes"/>
      <point x="41" y="258"/>
      <point x="35" y="247"/>
      <point x="32" y="238" type="curve"/>
      <point x="22" y="195" type="line" smooth="yes"/>
      <point x="21" y="192"/>
      <point x="21" y="190"/>
      <point x="21" y="188" type="curve" smooth="yes"/>
      <point x="21" y="178"/>
      <point x="27" y="173"/>
      <point x="40" y="173" type="curve" smooth="yes"/>
      <point x="306" y="173" type="line"/>
      <point x="271" y="22" type="line" smooth="yes"/>
      <point x="270" y="20"/>
      <point x="270" y="17"/>
      <point x="270" y="14" type="curve" smooth="yes"/>
      <point x="270" y="5"/>
      <point x="276" y="0"/>
      <point x="288" y="0" type="curve" smooth="yes"/>
    </contour>
    <contour>
      <point x="393" y="553" type="line"/>
      <point x="394" y="553" type="line"/>
      <point x="386" y="524" type="line"/>
      <point x="324" y="253" type="line"/>
      <point x="129" y="253" type="line"/>
    </contour>
  </outline>
</glyph>
<glyph name="five" format="1">
  <advance width="542"/>
  <unicode hex="0035"/>
  <outline>
    <contour>
      <point x="388" y="-15"/>
      <point x="502" y="91"/>
      <point x="502" y="234" type="curve" smooth="yes"/>
      <point x="502" y="345"/>
      <point x="461" y="433"/>
      <point x="324" y="433" type="curve" smooth="yes"/>
      <point x="299" y="433"/>
      <point x="243" y="425"/>
      <point x="208" y="392" type="curve"/>
      <point x="206" y="392" type="line"/>
      <point x="214" y="421" type="line"/>
      <point x="258" y="614" type="line"/>
      <point x="531" y="614" type="line" smooth="yes"/>
      <point x="545" y="614"/>
      <point x="556" y="621"/>
      <point x="559" y="636" type="curve" smooth="yes"/>
      <point x="567" y="672" type="line" smooth="yes"/>
      <point x="567" y="674"/>
      <point x="568" y="677"/>
      <point x="568" y="679" type="curve" smooth="yes"/>
      <point x="568" y="689"/>
      <point x="562" y="694"/>
      <point x="550" y="694" type="curve" smooth="yes"/>
      <point x="213" y="694" type="line" smooth="yes"/>
      <point x="198" y="694"/>
      <point x="189" y="687"/>
      <point x="186" y="672" type="curve" smooth="yes"/>
      <point x="106" y="327" type="line" smooth="yes"/>
      <point x="105" y="324"/>
      <point x="105" y="322"/>
      <point x="105" y="319" type="curve" smooth="yes"/>
      <point x="105" y="309"/>
      <point x="111" y="305"/>
      <point x="123" y="305" type="curve" smooth="yes"/>
      <point x="146" y="305" type="line" smooth="yes"/>
      <point x="171" y="305"/>
      <point x="222" y="345"/>
      <point x="250" y="353" type="curve" smooth="yes"/>
      <point x="266" y="358"/>
      <point x="282" y="359"/>
      <point x="297" y="359" type="curve" smooth="yes"/>
      <point x="372" y="359"/>
      <point x="406" y="328"/>
      <point x="406" y="245" type="curve" smooth="yes"/>
      <point x="406" y="140"/>
      <point x="343" y="59"/>
      <point x="244" y="59" type="curve" smooth="yes"/>
      <point x="121" y="59"/>
      <point x="110" y="148"/>
      <point x="81" y="148" type="curve" smooth="yes"/>
      <point x="77" y="148"/>
      <point x="73" y="147"/>
      <point x="70" y="144" type="curve" smooth="yes"/>
      <point x="38" y="120" type="line" smooth="yes"/>
      <point x="33" y="116"/>
      <point x="30" y="111"/>
      <point x="30" y="106" type="curve" smooth="yes"/>
      <point x="30" y="68"/>
      <point x="112" y="-15"/>
      <point x="240" y="-15" type="curve" smooth="yes"/>
    </contour>
  </outline>
</glyph>
<glyph name="six" format="1">
  <advance width="542"/>
  <unicode hex="0036"/>
  <outline>
    <contour>
      <point x="407" y="-15"/>
      <point x="498" y="120"/>
      <point x="498" y="249" type="curve" smooth="yes"/>
      <point x="498" y="374"/>
      <point x="425" y="439"/>
      <point x="316" y="439" type="curve" smooth="yes"/>
      <point x="256" y="439"/>
      <point x="188" y="412"/>
      <point x="151" y="363" type="curve"/>
      <point x="150" y="363" type="line"/>
      <point x="185" y="518"/>
      <point x="272" y="636"/>
      <point x="375" y="636" type="curve" smooth="yes"/>
      <point x="423" y="636"/>
      <point x="463" y="622"/>
      <point x="482" y="599" type="curve"/>
      <point x="488" y="590"/>
      <point x="495" y="586"/>
      <point x="502" y="586" type="curve" smooth="yes"/>
      <point x="507" y="586"/>
      <point x="512" y="588"/>
      <point x="517" y="592" type="curve" smooth="yes"/>
      <point x="547" y="617" type="line" smooth="yes"/>
      <point x="550" y="620"/>
      <point x="552" y="623"/>
      <point x="552" y="627" type="curve" smooth="yes"/>
      <point x="552" y="671"/>
      <point x="454" y="709"/>
      <point x="386" y="709" type="curve" smooth="yes"/>
      <point x="283" y="709"/>
      <point x="202" y="661"/>
      <point x="144" y="565" type="curve" smooth="yes"/>
      <point x="86" y="470"/>
      <point x="57" y="355"/>
      <point x="57" y="219" type="curve" smooth="yes"/>
      <point x="57" y="77"/>
      <point x="125" y="-15"/>
      <point x="250" y="-15" type="curve" smooth="yes"/>
    </contour>
    <contour>
      <point x="187" y="59"/>
      <point x="149" y="107"/>
      <point x="149" y="188" type="curve" smooth="yes"/>
      <point x="149" y="263"/>
      <point x="209" y="364"/>
      <point x="296" y="364" type="curve" smooth="yes"/>
      <point x="361" y="364"/>
      <point x="402" y="324"/>
      <point x="402" y="256" type="curve" smooth="yes"/>
      <point x="402" y="164"/>
      <point x="336" y="59"/>
      <point x="254" y="59" type="curve" smooth="yes"/>
    </contour>
  </outline>
</glyph>
<glyph name="seven" format="1">
  <advance width="537"/>
  <unicode hex="0037"/>
  <outline>
    <contour>
      <point x="185" y="-3" type="line" smooth="yes"/>
      <point x="200" y="-3"/>
      <point x="207" y="4"/>
      <point x="211" y="19" type="curve" smooth="yes"/>
      <point x="222" y="65" type="line" smooth="yes"/>
      <point x="270" y="267"/>
      <point x="401" y="460"/>
      <point x="562" y="604" type="curve" smooth="yes"/>
      <point x="577" y="617"/>
      <point x="585" y="628"/>
      <point x="588" y="639" type="curve" smooth="yes"/>
      <point x="596" y="672" type="line" smooth="yes"/>
      <point x="596" y="674"/>
      <point x="597" y="677"/>
      <point x="597" y="679" type="curve" smooth="yes"/>
      <point x="597" y="689"/>
      <point x="591" y="694"/>
      <point x="579" y="694" type="curve" smooth="yes"/>
      <point x="171" y="694" type="line" smooth="yes"/>
      <point x="155" y="694"/>
      <point x="149" y="687"/>
      <point x="145" y="672" type="curve" smooth="yes"/>
      <point x="136" y="636" type="line" smooth="yes"/>
      <point x="135" y="633"/>
      <point x="135" y="631"/>
      <point x="135" y="628" type="curve" smooth="yes"/>
      <point x="135" y="618"/>
      <point x="141" y="614"/>
      <point x="153" y="614" type="curve" smooth="yes"/>
      <point x="489" y="615" type="line"/>
      <point x="489" y="614" type="line"/>
      <point x="316" y="450"/>
      <point x="190" y="297"/>
      <point x="130" y="48" type="curve" smooth="yes"/>
      <point x="123" y="19" type="line" smooth="yes"/>
      <point x="122" y="16"/>
      <point x="122" y="14"/>
      <point x="122" y="12" type="curve" smooth="yes"/>
      <point x="122" y="2"/>
      <point x="128" y="-3"/>
      <point x="140" y="-3" type="curve" smooth="yes"/>
    </contour>
  </outline>
</glyph>
<glyph name="eight" format="1">
  <advance width="542"/>
  <unicode hex="0038"/>
  <outline>
    <contour>
      <point x="371" y="-15"/>
      <point x="483" y="94"/>
      <point x="483" y="225" type="curve" smooth="yes"/>
      <point x="483" y="296"/>
      <point x="452" y="350"/>
      <point x="392" y="373" type="curve"/>
      <point x="392" y="374" type="line"/>
      <point x="447" y="381"/>
      <point x="545" y="445"/>
      <point x="545" y="551" type="curve" smooth="yes"/>
      <point x="545" y="638"/>
      <point x="491" y="709"/>
      <point x="355" y="709" type="curve" smooth="yes"/>
      <point x="231" y="709"/>
      <point x="125" y="625"/>
      <point x="125" y="512" type="curve" smooth="yes"/>
      <point x="125" y="449"/>
      <point x="146" y="410"/>
      <point x="197" y="378" type="curve"/>
      <point x="197" y="377" type="line"/>
      <point x="161" y="369"/>
      <point x="124" y="346"/>
      <point x="85" y="307" type="curve" smooth="yes"/>
      <point x="47" y="268"/>
      <point x="28" y="222"/>
      <point x="28" y="171" type="curve" smooth="yes"/>
      <point x="28" y="46"/>
      <point x="108" y="-15"/>
      <point x="231" y="-15" type="curve" smooth="yes"/>
    </contour>
    <contour>
      <point x="157" y="59"/>
      <point x="123" y="98"/>
      <point x="123" y="174" type="curve" smooth="yes"/>
      <point x="123" y="257"/>
      <point x="197" y="334"/>
      <point x="293" y="334" type="curve" smooth="yes"/>
      <point x="368" y="334"/>
      <point x="388" y="273"/>
      <point x="388" y="218" type="curve" smooth="yes"/>
      <point x="388" y="135"/>
      <point x="324" y="59"/>
      <point x="236" y="59" type="curve" smooth="yes"/>
    </contour>
    <contour>
      <point x="276" y="413"/>
      <point x="256" y="421"/>
      <point x="241" y="436" type="curve" smooth="yes"/>
      <point x="224" y="451"/>
      <point x="216" y="480"/>
      <point x="216" y="521" type="curve" smooth="yes"/>
      <point x="216" y="571"/>
      <point x="276" y="636"/>
      <point x="350" y="636" type="curve" smooth="yes"/>
      <point x="419" y="636"/>
      <point x="454" y="600"/>
      <point x="454" y="541" type="curve" smooth="yes"/>
      <point x="454" y="467"/>
      <point x="378" y="413"/>
      <point x="300" y="413" type="curve" smooth="yes"/>
    </contour>
  </outline>
</glyph>
<glyph name="nine" format="1">
  <advance width="542"/>
  <unicode hex="0039"/>
  <outline>
    <contour>
      <point x="421" y="-15"/>
      <point x="541" y="212"/>
      <point x="541" y="475" type="curve" smooth="yes"/>
      <point x="541" y="619"/>
      <point x="470" y="709"/>
      <point x="347" y="709" type="curve" smooth="yes"/>
      <point x="270" y="709"/>
      <point x="210" y="682"/>
      <point x="166" y="627" type="curve" smooth="yes"/>
      <point x="122" y="573"/>
      <point x="100" y="512"/>
      <point x="100" y="445" type="curve" smooth="yes"/>
      <point x="100" y="317"/>
      <point x="174" y="255"/>
      <point x="281" y="255" type="curve" smooth="yes"/>
      <point x="335" y="255"/>
      <point x="411" y="280"/>
      <point x="446" y="332" type="curve"/>
      <point x="447" y="332" type="line"/>
      <point x="412" y="179"/>
      <point x="327" y="59"/>
      <point x="223" y="59" type="curve" smooth="yes"/>
      <point x="174" y="59"/>
      <point x="133" y="73"/>
      <point x="116" y="96" type="curve" smooth="yes"/>
      <point x="109" y="104"/>
      <point x="102" y="108"/>
      <point x="96" y="108" type="curve" smooth="yes"/>
      <point x="91" y="108"/>
      <point x="86" y="106"/>
      <point x="81" y="102" type="curve" smooth="yes"/>
      <point x="50" y="78" type="line" smooth="yes"/>
      <point x="47" y="75"/>
      <point x="45" y="71"/>
      <point x="45" y="68" type="curve" smooth="yes"/>
      <point x="45" y="25"/>
      <point x="143" y="-15"/>
      <point x="212" y="-15" type="curve" smooth="yes"/>
    </contour>
    <contour>
      <point x="237" y="330"/>
      <point x="195" y="370"/>
      <point x="195" y="438" type="curve" smooth="yes"/>
      <point x="195" y="527"/>
      <point x="260" y="636"/>
      <point x="344" y="636" type="curve" smooth="yes"/>
      <point x="411" y="636"/>
      <point x="449" y="587"/>
      <point x="449" y="507" type="curve" smooth="yes"/>
      <point x="449" y="433"/>
      <point x="389" y="330"/>
      <point x="302" y="330" type="curve" smooth="yes"/>
    </contour>
  </outline>
</glyph>
<glyph name="less" format="1">
  <advance width="625"/>
  <unicode hex="003C"/>
  <outline>
    <contour>
      <point x="572" y="61"/>
      <point x="576" y="64"/>
      <point x="579" y="70" type="curve" smooth="yes"/>
      <point x="591" y="91" type="line" smooth="yes"/>
      <point x="593" y="94"/>
      <point x="594" y="97"/>
      <point x="594" y="100" type="curve" smooth="yes"/>
      <point x="594" y="107"/>
      <point x="590" y="112"/>
      <point x="581" y="117" type="curve" smooth="yes"/>
      <point x="161" y="359" type="line"/>
      <point x="581" y="601" type="line" smooth="yes"/>
      <point x="590" y="606"/>
      <point x="594" y="611"/>
      <point x="594" y="618" type="curve" smooth="yes"/>
      <point x="594" y="621"/>
      <point x="593" y="624"/>
      <point x="591" y="627" type="curve" smooth="yes"/>
      <point x="579" y="648" type="line" smooth="yes"/>
      <point x="576" y="654"/>
      <point x="572" y="657"/>
      <point x="566" y="657" type="curve" smooth="yes"/>
      <point x="563" y="657"/>
      <point x="558" y="655"/>
      <point x="551" y="652" type="curve"/>
      <point x="86" y="383" type="line" smooth="yes"/>
      <point x="78" y="379"/>
      <point x="74" y="374"/>
      <point x="74" y="367" type="curve" smooth="yes"/>
      <point x="74" y="351" type="line" smooth="yes"/>
      <point x="74" y="345"/>
      <point x="78" y="339"/>
      <point x="86" y="334" type="curve" smooth="yes"/>
      <point x="551" y="66" type="line"/>
      <point x="558" y="63"/>
      <point x="563" y="61"/>
      <point x="566" y="61" type="curve" smooth="yes"/>
    </contour>
  </outline>
</glyph>
<glyph name="greater" format="1">
  <advance width="625"/>
  <unicode hex="003E"/>
  <outline>
    <contour>
      <point x="118" y="61"/>
      <point x="123" y="63"/>
      <point x="128" y="66" type="curve" smooth="yes"/>
      <point x="593" y="334" type="line" smooth="yes"/>
      <point x="601" y="339"/>
      <point x="605" y="344"/>
      <point x="605" y="351" type="curve" smooth="yes"/>
      <point x="605" y="367" type="line" smooth="yes"/>
      <point x="605" y="374"/>
      <point x="601" y="380"/>
      <point x="593" y="383" type="curve"/>
      <point x="128" y="652" type="line" smooth="yes"/>
      <point x="123" y="655"/>
      <point x="118" y="657"/>
      <point x="114" y="657" type="curve" smooth="yes"/>
      <point x="109" y="657"/>
      <point x="104" y="654"/>
      <point x="101" y="648" type="curve" smooth="yes"/>
      <point x="88" y="627" type="line" smooth="yes"/>
      <point x="87" y="625"/>
      <point x="86" y="622"/>
      <point x="86" y="618" type="curve" smooth="yes"/>
      <point x="86" y="611"/>
      <point x="90" y="606"/>
      <point x="99" y="601" type="curve" smooth="yes"/>
      <point x="519" y="358" type="line"/>
      <point x="99" y="117" type="line"/>
      <point x="90" y="111"/>
      <point x="86" y="105"/>
      <point x="86" y="100" type="curve" smooth="yes"/>
      <point x="86" y="96"/>
      <point x="87" y="93"/>
      <point x="88" y="91" type="curve" smooth="yes"/>
      <point x="101" y="70" type="line" smooth="yes"/>
      <point x="104" y="64"/>
      <point x="109" y="61"/>
      <point x="114" y="61" type="curve" smooth="yes"/>
    </contour>
  </outline>
</glyph>
<glyph name="question" format="1">
  <advance width="496"/>
  <unicode hex="003F"/>
  <outline>
    <contour>
      <point x="259" y="181" type="line" smooth="yes"/>
      <point x="274" y="181"/>
      <point x="283" y="188"/>
      <point x="287" y="203" type="curve" smooth="yes"/>
      <point x="289" y="214" type="line" smooth="yes"/>
      <point x="298" y="255"/>
      <point x="340" y="308"/>
      <point x="415" y="375" type="curve" smooth="yes"/>
      <point x="490" y="442"/>
      <point x="528" y="502"/>
      <point x="528" y="553" type="curve" smooth="yes"/>
      <point x="528" y="664"/>
      <point x="472" y="715"/>
      <point x="344" y="715" type="curve" smooth="yes"/>
      <point x="218" y="715"/>
      <point x="131" y="630"/>
      <point x="131" y="585" type="curve" smooth="yes"/>
      <point x="131" y="579"/>
      <point x="134" y="574"/>
      <point x="139" y="571" type="curve" smooth="yes"/>
      <point x="174" y="552" type="line" smooth="yes"/>
      <point x="179" y="549"/>
      <point x="183" y="548"/>
      <point x="186" y="548" type="curve" smooth="yes"/>
      <point x="200" y="548"/>
      <point x="251" y="642"/>
      <point x="341" y="642" type="curve" smooth="yes"/>
      <point x="394" y="642"/>
      <point x="432" y="621"/>
      <point x="432" y="559" type="curve" smooth="yes"/>
      <point x="432" y="519"/>
      <point x="397" y="467"/>
      <point x="328" y="403" type="curve" smooth="yes"/>
      <point x="257" y="339"/>
      <point x="218" y="278"/>
      <point x="205" y="221" type="curve" smooth="yes"/>
      <point x="201" y="203" type="line" smooth="yes"/>
      <point x="200" y="201"/>
      <point x="200" y="198"/>
      <point x="200" y="195" type="curve" smooth="yes"/>
      <point x="200" y="186"/>
      <point x="206" y="181"/>
      <point x="217" y="181" type="curve" smooth="yes"/>
    </contour>
    <contour>
      <point x="224" y="0" type="line" smooth="yes"/>
      <point x="239" y="0"/>
      <point x="246" y="7"/>
      <point x="250" y="22" type="curve" smooth="yes"/>
      <point x="265" y="82" type="line"/>
      <point x="265" y="85"/>
      <point x="266" y="87"/>
      <point x="266" y="89" type="curve" smooth="yes"/>
      <point x="266" y="99"/>
      <point x="260" y="104"/>
      <point x="248" y="104" type="curve" smooth="yes"/>
      <point x="193" y="104" type="line" smooth="yes"/>
      <point x="177" y="104"/>
      <point x="169" y="97"/>
      <point x="166" y="82" type="curve" smooth="yes"/>
      <point x="152" y="22" type="line" smooth="yes"/>
      <point x="151" y="20"/>
      <point x="151" y="17"/>
      <point x="151" y="14" type="curve" smooth="yes"/>
      <point x="151" y="5"/>
      <point x="157" y="0"/>
      <point x="169" y="0" type="curve" smooth="yes"/>
    </contour>
  </outline>
</glyph>
<glyph name="at" format="1">
  <advance width="973"/>
  <unicode hex="0040"/>
  <outline>
    <contour>
      <point x="614" y="-162"/>
      <point x="711" y="-122"/>
      <point x="819" y="-45" type="curve" smooth="yes"/>
      <point x="824" y="-42"/>
      <point x="827" y="-39"/>
      <point x="827" y="-34" type="curve" smooth="yes"/>
      <point x="827" y="-31"/>
      <point x="826" y="-28"/>
      <point x="824" y="-25" type="curve" smooth="yes"/>
      <point x="805" y="1" type="line" smooth="yes"/>
      <point x="803" y="5"/>
      <point x="800" y="7"/>
      <point x="796" y="7" type="curve" smooth="yes"/>
      <point x="793" y="7"/>
      <point x="789" y="5"/>
      <point x="784" y="1" type="curve" smooth="yes"/>
      <point x="700" y="-67"/>
      <point x="597" y="-104"/>
      <point x="498" y="-104" type="curve" smooth="yes"/>
      <point x="293" y="-104"/>
      <point x="118" y="44"/>
      <point x="118" y="262" type="curve" smooth="yes"/>
      <point x="118" y="511"/>
      <point x="302" y="661"/>
      <point x="519" y="661" type="curve" smooth="yes"/>
      <point x="708" y="661"/>
      <point x="854" y="550"/>
      <point x="854" y="350" type="curve" smooth="yes"/>
      <point x="854" y="180"/>
      <point x="775" y="113"/>
      <point x="679" y="113" type="curve" smooth="yes"/>
      <point x="656" y="113"/>
      <point x="638" y="120"/>
      <point x="638" y="149" type="curve" smooth="yes"/>
      <point x="638" y="161"/>
      <point x="640" y="173"/>
      <point x="643" y="186" type="curve" smooth="yes"/>
      <point x="707" y="474" type="line"/>
      <point x="707" y="475"/>
      <point x="707" y="477"/>
      <point x="707" y="478" type="curve" smooth="yes"/>
      <point x="707" y="487"/>
      <point x="702" y="491"/>
      <point x="693" y="491" type="curve" smooth="yes"/>
      <point x="640" y="491" type="line" smooth="yes"/>
      <point x="629" y="491"/>
      <point x="622" y="486"/>
      <point x="619" y="475" type="curve" smooth="yes"/>
      <point x="608" y="423" type="line"/>
      <point x="606" y="423" type="line"/>
      <point x="592" y="480"/>
      <point x="554" y="509"/>
      <point x="491" y="509" type="curve" smooth="yes"/>
      <point x="364" y="509"/>
      <point x="267" y="359"/>
      <point x="267" y="228" type="curve" smooth="yes"/>
      <point x="267" y="120"/>
      <point x="325" y="54"/>
      <point x="412" y="54" type="curve" smooth="yes"/>
      <point x="469" y="54"/>
      <point x="540" y="105"/>
      <point x="564" y="162" type="curve"/>
      <point x="565" y="162" type="line"/>
      <point x="565" y="95"/>
      <point x="578" y="54"/>
      <point x="664" y="54" type="curve" smooth="yes"/>
      <point x="811" y="54"/>
      <point x="914" y="158"/>
      <point x="914" y="350" type="curve" smooth="yes"/>
      <point x="914" y="480"/>
      <point x="873" y="574"/>
      <point x="791" y="632" type="curve" smooth="yes"/>
      <point x="708" y="690"/>
      <point x="616" y="719"/>
      <point x="518" y="719" type="curve" smooth="yes"/>
      <point x="381" y="719"/>
      <point x="270" y="675"/>
      <point x="186" y="587" type="curve"/>
      <point x="101" y="500"/>
      <point x="59" y="394"/>
      <point x="59" y="269" type="curve" smooth="yes"/>
      <point x="59" y="5"/>
      <point x="260" y="-162"/>
      <point x="494" y="-162" type="curve" smooth="yes"/>
    </contour>
    <contour>
      <point x="406" y="113"/>
      <point x="386" y="120"/>
      <point x="372" y="135" type="curve" smooth="yes"/>
      <point x="357" y="150"/>
      <point x="350" y="177"/>
      <point x="350" y="218" type="curve" smooth="yes"/>
      <point x="350" y="336"/>
      <point x="414" y="451"/>
      <point x="503" y="451" type="curve" smooth="yes"/>
      <point x="557" y="451"/>
      <point x="582" y="396"/>
      <point x="582" y="355" type="curve" smooth="yes"/>
      <point x="582" y="288"/>
      <point x="575" y="265"/>
      <point x="524" y="182" type="curve" smooth="yes"/>
      <point x="496" y="136"/>
      <point x="465" y="113"/>
      <point x="432" y="113" type="curve" smooth="yes"/>
    </contour>
  </outline>
</glyph>
<glyph name="A" format="1">
  <advance width="664"/>
  <unicode hex="0041"/>
  <outline>
    <contour>
      <point x="51" y="0" type="line" smooth="yes"/>
      <point x="69" y="0"/>
      <point x="82" y="8"/>
      <point x="91" y="24" type="curve" smooth="yes"/>
      <point x="187" y="186" type="line"/>
      <point x="487" y="186" type="line"/>
      <point x="515" y="24" type="line" smooth="yes"/>
      <point x="518" y="8"/>
      <point x="526" y="0"/>
      <point x="544" y="0" type="curve" smooth="yes"/>
      <point x="589" y="0" type="line" smooth="yes"/>
      <point x="603" y="0"/>
      <point x="610" y="7"/>
      <point x="610" y="21" type="curve" smooth="yes"/>
      <point x="610" y="26"/>
      <point x="610" y="29"/>
      <point x="609" y="32" type="curve" smooth="yes"/>
      <point x="499" y="670" type="line" smooth="yes"/>
      <point x="495" y="690"/>
      <point x="488" y="700"/>
      <point x="474" y="700" type="curve" smooth="yes"/>
      <point x="405" y="700" type="line" smooth="yes"/>
      <point x="391" y="700"/>
      <point x="378" y="690"/>
      <point x="366" y="670" type="curve" smooth="yes"/>
      <point x="-10" y="32" type="line" smooth="yes"/>
      <point x="-15" y="23"/>
      <point x="-18" y="15"/>
      <point x="-18" y="10" type="curve" smooth="yes"/>
      <point x="-18" y="3"/>
      <point x="-13" y="0"/>
      <point x="-4" y="0" type="curve" smooth="yes"/>
    </contour>
    <contour>
      <point x="349" y="461" type="line"/>
      <point x="395" y="543"/>
      <point x="411" y="571"/>
      <point x="422" y="616" type="curve"/>
      <point x="424" y="616" type="line"/>
      <point x="424" y="590"/>
      <point x="433" y="491"/>
      <point x="438" y="461" type="curve" smooth="yes"/>
      <point x="473" y="266" type="line"/>
      <point x="234" y="266" type="line"/>
    </contour>
    <contour>
      <point x="539" y="10" type="move" name="ogonek"/>
    </contour>
    <contour>
      <point x="273" y="0" type="move" name="bottom"/>
    </contour>
    <contour>
      <point x="434" y="700" type="move" name="top"/>
    </contour>
  </outline>
</glyph>
<glyph name="B" format="1">
  <advance width="653"/>
  <unicode hex="0042"/>
  <outline>
    <contour>
      <point x="285" y="0" type="line" smooth="yes"/>
      <point x="514" y="0"/>
      <point x="601" y="105"/>
      <point x="601" y="210" type="curve" smooth="yes"/>
      <point x="601" y="301"/>
      <point x="535" y="352"/>
      <point x="472" y="365" type="curve"/>
      <point x="472" y="366" type="line"/>
      <point x="566" y="386"/>
      <point x="634" y="440"/>
      <point x="634" y="529" type="curve" smooth="yes"/>
      <point x="634" y="625"/>
      <point x="577" y="700"/>
      <point x="397" y="700" type="curve" smooth="yes"/>
      <point x="217" y="700" type="line" smooth="yes"/>
      <point x="200" y="700"/>
      <point x="190" y="691"/>
      <point x="186" y="673" type="curve" smooth="yes"/>
      <point x="37" y="27" type="line" smooth="yes"/>
      <point x="36" y="24"/>
      <point x="36" y="21"/>
      <point x="36" y="17" type="curve" smooth="yes"/>
      <point x="36" y="6"/>
      <point x="42" y="0"/>
      <point x="55" y="0" type="curve" smooth="yes"/>
    </contour>
    <contour>
      <point x="199" y="324" type="line"/>
      <point x="314" y="324" type="line" smooth="yes"/>
      <point x="428" y="324"/>
      <point x="500" y="294"/>
      <point x="500" y="214" type="curve" smooth="yes"/>
      <point x="500" y="129"/>
      <point x="424" y="80"/>
      <point x="288" y="80" type="curve" smooth="yes"/>
      <point x="143" y="80" type="line"/>
    </contour>
    <contour>
      <point x="268" y="620" type="line"/>
      <point x="380" y="620" type="line" smooth="yes"/>
      <point x="501" y="620"/>
      <point x="539" y="591"/>
      <point x="539" y="525" type="curve" smooth="yes"/>
      <point x="539" y="452"/>
      <point x="441" y="395"/>
      <point x="348" y="395" type="curve" smooth="yes"/>
      <point x="216" y="395" type="line"/>
    </contour>
    <contour>
      <point x="429" y="700" type="move" name="top"/>
    </contour>
    <contour>
      <point x="268" y="0" type="move" name="bottom"/>
    </contour>
  </outline>
</glyph>
<glyph name="C" format="1">
  <advance width="680"/>
  <unicode hex="0043"/>
  <outline>
    <contour>
      <point x="484" y="-15"/>
      <point x="567" y="36"/>
      <point x="622" y="116" type="curve" smooth="yes"/>
      <point x="629" y="127"/>
      <point x="633" y="136"/>
      <point x="633" y="142" type="curve" smooth="yes"/>
      <point x="633" y="148"/>
      <point x="631" y="152"/>
      <point x="626" y="155" type="curve" smooth="yes"/>
      <point x="582" y="184" type="line" smooth="yes"/>
      <point x="579" y="186"/>
      <point x="576" y="187"/>
      <point x="572" y="187" type="curve" smooth="yes"/>
      <point x="542" y="187"/>
      <point x="490" y="62"/>
      <point x="360" y="62" type="curve" smooth="yes"/>
      <point x="208" y="62"/>
      <point x="154" y="155"/>
      <point x="154" y="272" type="curve" smooth="yes"/>
      <point x="154" y="528"/>
      <point x="278" y="639"/>
      <point x="435" y="639" type="curve" smooth="yes"/>
      <point x="556" y="639"/>
      <point x="595" y="537"/>
      <point x="611" y="537" type="curve" smooth="yes"/>
      <point x="613" y="537"/>
      <point x="615" y="538"/>
      <point x="618" y="539" type="curve" smooth="yes"/>
      <point x="656" y="562" type="line"/>
      <point x="666" y="567"/>
      <point x="671" y="575"/>
      <point x="671" y="584" type="curve" smooth="yes"/>
      <point x="671" y="590"/>
      <point x="670" y="596"/>
      <point x="667" y="601" type="curve"/>
      <point x="636" y="672"/>
      <point x="559" y="715"/>
      <point x="443" y="715" type="curve" smooth="yes"/>
      <point x="321" y="715"/>
      <point x="225" y="675"/>
      <point x="156" y="595" type="curve" smooth="yes"/>
      <point x="88" y="516"/>
      <point x="54" y="412"/>
      <point x="54" y="283" type="curve" smooth="yes"/>
      <point x="54" y="110"/>
      <point x="150" y="-15"/>
      <point x="347" y="-15" type="curve" smooth="yes"/>
    </contour>
    <contour>
      <point x="442" y="700" type="move" name="top"/>
    </contour>
    <contour>
      <point x="341" y="0" type="move" name="bottom"/>
    </contour>
  </outline>
</glyph>
<glyph name="D" format="1">
  <advance width="687"/>
  <unicode hex="0044"/>
  <outline>
    <contour>
      <point x="260" y="0" type="line" smooth="yes"/>
      <point x="404" y="0"/>
      <point x="511" y="41"/>
      <point x="580" y="124" type="curve" smooth="yes"/>
      <point x="648" y="206"/>
      <point x="682" y="304"/>
      <point x="682" y="414" type="curve" smooth="yes"/>
      <point x="682" y="563"/>
      <point x="612" y="700"/>
      <point x="373" y="700" type="curve" smooth="yes"/>
      <point x="217" y="700" type="line" smooth="yes"/>
      <point x="200" y="700"/>
      <point x="190" y="691"/>
      <point x="186" y="673" type="curve" smooth="yes"/>
      <point x="37" y="27" type="line" smooth="yes"/>
      <point x="36" y="24"/>
      <point x="36" y="21"/>
      <point x="36" y="17" type="curve" smooth="yes"/>
      <point x="36" y="6"/>
      <point x="42" y="0"/>
      <point x="55" y="0" type="curve" smooth="yes"/>
    </contour>
    <contour>
      <point x="268" y="621" type="line"/>
      <point x="350" y="621" type="line" smooth="yes"/>
      <point x="452" y="621"/>
      <point x="515" y="602"/>
      <point x="542" y="563" type="curve" smooth="yes"/>
      <point x="569" y="523"/>
      <point x="582" y="476"/>
      <point x="582" y="420" type="curve" smooth="yes"/>
      <point x="582" y="243"/>
      <point x="489" y="80"/>
      <point x="274" y="80" type="curve" smooth="yes"/>
      <point x="143" y="80" type="line"/>
    </contour>
    <contour>
      <point x="366" y="350" type="move" name="center"/>
    </contour>
    <contour>
      <point x="285" y="0" type="move" name="bottom"/>
    </contour>
    <contour>
      <point x="446" y="700" type="move" name="top"/>
    </contour>
  </outline>
</glyph>
<glyph name="E" format="1">
  <advance width="620"/>
  <unicode hex="0045"/>
  <outline>
    <contour>
      <point x="497" y="0" type="line" smooth="yes"/>
      <point x="513" y="0"/>
      <point x="526" y="7"/>
      <point x="529" y="22" type="curve" smooth="yes"/>
      <point x="537" y="58" type="line" smooth="yes"/>
      <point x="538" y="61"/>
      <point x="538" y="63"/>
      <point x="538" y="65" type="curve" smooth="yes"/>
      <point x="538" y="75"/>
      <point x="531" y="80"/>
      <point x="516" y="80" type="curve" smooth="yes"/>
      <point x="143" y="80" type="line"/>
      <point x="199" y="323" type="line"/>
      <point x="528" y="323" type="line" smooth="yes"/>
      <point x="544" y="323"/>
      <point x="557" y="330"/>
      <point x="560" y="345" type="curve" smooth="yes"/>
      <point x="568" y="381" type="line" smooth="yes"/>
      <point x="568" y="383"/>
      <point x="568" y="385"/>
      <point x="568" y="387" type="curve" smooth="yes"/>
      <point x="568" y="398"/>
      <point x="561" y="403"/>
      <point x="546" y="403" type="curve" smooth="yes"/>
      <point x="218" y="403" type="line"/>
      <point x="268" y="620" type="line"/>
      <point x="625" y="620" type="line" smooth="yes"/>
      <point x="642" y="620"/>
      <point x="655" y="627"/>
      <point x="658" y="642" type="curve" smooth="yes"/>
      <point x="666" y="678" type="line" smooth="yes"/>
      <point x="666" y="680"/>
      <point x="666" y="682"/>
      <point x="666" y="684" type="curve" smooth="yes"/>
      <point x="666" y="695"/>
      <point x="659" y="700"/>
      <point x="644" y="700" type="curve" smooth="yes"/>
      <point x="217" y="700" type="line" smooth="yes"/>
      <point x="200" y="700"/>
      <point x="190" y="691"/>
      <point x="186" y="673" type="curve" smooth="yes"/>
      <point x="37" y="27" type="line" smooth="yes"/>
      <point x="36" y="24"/>
      <point x="36" y="21"/>
      <point x="36" y="17" type="curve" smooth="yes"/>
      <point x="36" y="6"/>
      <point x="42" y="0"/>
      <point x="55" y="0" type="curve" smooth="yes"/>
    </contour>
    <contour>
      <point x="499" y="10" type="move" name="ogonek"/>
    </contour>
    <contour>
      <point x="412" y="700" type="move" name="top"/>
    </contour>
    <contour>
      <point x="122" y="700" type="move" name="topleft"/>
    </contour>
    <contour>
      <point x="251" y="0" type="move" name="bottom"/>
    </contour>
  </outline>
</glyph>
<glyph name="F" format="1">
  <advance width="569"/>
  <unicode hex="0046"/>
  <outline>
    <contour>
      <point x="100" y="0" type="line" smooth="yes"/>
      <point x="115" y="0"/>
      <point x="127" y="9"/>
      <point x="131" y="27" type="curve" smooth="yes"/>
      <point x="196" y="309" type="line"/>
      <point x="482" y="309" type="line" smooth="yes"/>
      <point x="501" y="309"/>
      <point x="511" y="316"/>
      <point x="514" y="331" type="curve" smooth="yes"/>
      <point x="522" y="367" type="line" smooth="yes"/>
      <point x="523" y="370"/>
      <point x="523" y="372"/>
      <point x="523" y="374" type="curve" smooth="yes"/>
      <point x="523" y="384"/>
      <point x="516" y="389"/>
      <point x="501" y="389" type="curve" smooth="yes"/>
      <point x="214" y="389" type="line"/>
      <point x="268" y="620" type="line"/>
      <point x="596" y="620" type="line" smooth="yes"/>
      <point x="615" y="620"/>
      <point x="624" y="627"/>
      <point x="628" y="642" type="curve" smooth="yes"/>
      <point x="637" y="678" type="line" smooth="yes"/>
      <point x="637" y="680"/>
      <point x="637" y="682"/>
      <point x="637" y="684" type="curve" smooth="yes"/>
      <point x="637" y="695"/>
      <point x="630" y="700"/>
      <point x="615" y="700" type="curve" smooth="yes"/>
      <point x="217" y="700" type="line" smooth="yes"/>
      <point x="200" y="700"/>
      <point x="190" y="691"/>
      <point x="186" y="673" type="curve" smooth="yes"/>
      <point x="37" y="27" type="line" smooth="yes"/>
      <point x="36" y="24"/>
      <point x="36" y="21"/>
      <point x="36" y="17" type="curve" smooth="yes"/>
      <point x="36" y="6"/>
      <point x="42" y="0"/>
      <point x="55" y="0" type="curve" smooth="yes"/>
    </contour>
    <contour>
      <point x="417" y="700" type="move" name="top"/>
    </contour>
    <contour>
      <point x="226" y="0" type="move" name="bottom"/>
    </contour>
  </outline>
</glyph>
<glyph name="G" format="1">
  <advance width="718"/>
  <unicode hex="0047"/>
  <outline>
    <contour>
      <point x="473" y="-15"/>
      <point x="540" y="4"/>
      <point x="638" y="77" type="curve"/>
      <point x="691" y="307" type="line" smooth="yes"/>
      <point x="691" y="309"/>
      <point x="692" y="311"/>
      <point x="692" y="313" type="curve" smooth="yes"/>
      <point x="692" y="324"/>
      <point x="685" y="329"/>
      <point x="669" y="329" type="curve" smooth="yes"/>
      <point x="458" y="329" type="line" smooth="yes"/>
      <point x="440" y="329"/>
      <point x="428" y="322"/>
      <point x="425" y="307" type="curve" smooth="yes"/>
      <point x="417" y="271" type="line" smooth="yes"/>
      <point x="416" y="269"/>
      <point x="416" y="267"/>
      <point x="416" y="265" type="curve" smooth="yes"/>
      <point x="416" y="254"/>
      <point x="424" y="249"/>
      <point x="439" y="249" type="curve" smooth="yes"/>
      <point x="584" y="249" type="line"/>
      <point x="556" y="128" type="line"/>
      <point x="523" y="91"/>
      <point x="444" y="62"/>
      <point x="360" y="62" type="curve" smooth="yes"/>
      <point x="208" y="62"/>
      <point x="154" y="155"/>
      <point x="154" y="272" type="curve" smooth="yes"/>
      <point x="154" y="529"/>
      <point x="277" y="639"/>
      <point x="439" y="639" type="curve" smooth="yes"/>
      <point x="564" y="639"/>
      <point x="610" y="542"/>
      <point x="620" y="542" type="curve" smooth="yes"/>
      <point x="623" y="542"/>
      <point x="625" y="543"/>
      <point x="628" y="545" type="curve" smooth="yes"/>
      <point x="666" y="570" type="line" smooth="yes"/>
      <point x="675" y="576"/>
      <point x="679" y="584"/>
      <point x="679" y="593" type="curve" smooth="yes"/>
      <point x="679" y="648"/>
      <point x="580" y="715"/>
      <point x="447" y="715" type="curve" smooth="yes"/>
      <point x="322" y="715"/>
      <point x="225" y="675"/>
      <point x="156" y="595" type="curve" smooth="yes"/>
      <point x="88" y="516"/>
      <point x="54" y="412"/>
      <point x="54" y="283" type="curve" smooth="yes"/>
      <point x="54" y="110"/>
      <point x="150" y="-15"/>
      <point x="347" y="-15" type="curve" smooth="yes"/>
    </contour>
    <contour>
      <point x="461" y="700" type="move" name="top"/>
    </contour>
    <contour>
      <point x="300" y="0" type="move" name="bottom"/>
    </contour>
  </outline>
</glyph>
<glyph name="H" format="1">
  <advance width="694"/>
  <unicode hex="0048"/>
  <outline>
    <contour>
      <point x="100" y="0" type="line" smooth="yes"/>
      <point x="115" y="0"/>
      <point x="127" y="9"/>
      <point x="131" y="27" type="curve" smooth="yes"/>
      <point x="199" y="324" type="line"/>
      <point x="540" y="324" type="line"/>
      <point x="472" y="27" type="line" smooth="yes"/>
      <point x="471" y="22"/>
      <point x="470" y="18"/>
      <point x="470" y="17" type="curve" smooth="yes"/>
      <point x="470" y="6"/>
      <point x="477" y="0"/>
      <point x="490" y="0" type="curve" smooth="yes"/>
      <point x="535" y="0" type="line" smooth="yes"/>
      <point x="551" y="0"/>
      <point x="561" y="9"/>
      <point x="565" y="27" type="curve" smooth="yes"/>
      <point x="714" y="673" type="line" smooth="yes"/>
      <point x="715" y="678"/>
      <point x="716" y="682"/>
      <point x="716" y="683" type="curve" smooth="yes"/>
      <point x="716" y="694"/>
      <point x="709" y="700"/>
      <point x="696" y="700" type="curve" smooth="yes"/>
      <point x="651" y="700" type="line" smooth="yes"/>
      <point x="635" y="700"/>
      <point x="625" y="691"/>
      <point x="621" y="673" type="curve" smooth="yes"/>
      <point x="559" y="404" type="line"/>
      <point x="218" y="404" type="line"/>
      <point x="280" y="673" type="line" smooth="yes"/>
      <point x="281" y="676"/>
      <point x="281" y="679"/>
      <point x="281" y="683" type="curve" smooth="yes"/>
      <point x="281" y="694"/>
      <point x="275" y="700"/>
      <point x="262" y="700" type="curve" smooth="yes"/>
      <point x="217" y="700" type="line" smooth="yes"/>
      <point x="200" y="700"/>
      <point x="190" y="691"/>
      <point x="186" y="673" type="curve" smooth="yes"/>
      <point x="37" y="27" type="line" smooth="yes"/>
      <point x="36" y="24"/>
      <point x="36" y="21"/>
      <point x="36" y="17" type="curve" smooth="yes"/>
      <point x="36" y="6"/>
      <point x="42" y="0"/>
      <point x="55" y="0" type="curve" smooth="yes"/>
    </contour>
    <contour>
      <point x="288" y="0" type="move" name="bottom"/>
    </contour>
    <contour>
      <point x="449" y="700" type="move" name="top"/>
    </contour>
    <contour>
      <point x="122" y="700" type="move" name="topleft"/>
    </contour>
    <contour>
      <point x="369" y="350" type="move" name="center"/>
    </contour>
  </outline>
</glyph>
<glyph name="I" format="1">
  <advance width="260"/>
  <unicode hex="0049"/>
  <outline>
    <contour>
      <point x="100" y="0" type="line" smooth="yes"/>
      <point x="115" y="0"/>
      <point x="127" y="9"/>
      <point x="131" y="27" type="curve" smooth="yes"/>
      <point x="280" y="673" type="line" smooth="yes"/>
      <point x="281" y="676"/>
      <point x="281" y="679"/>
      <point x="281" y="683" type="curve" smooth="yes"/>
      <point x="281" y="694"/>
      <point x="275" y="700"/>
      <point x="262" y="700" type="curve" smooth="yes"/>
      <point x="217" y="700" type="line" smooth="yes"/>
      <point x="200" y="700"/>
      <point x="190" y="691"/>
      <point x="186" y="673" type="curve" smooth="yes"/>
      <point x="37" y="27" type="line" smooth="yes"/>
      <point x="36" y="24"/>
      <point x="36" y="21"/>
      <point x="36" y="17" type="curve" smooth="yes"/>
      <point x="36" y="6"/>
      <point x="42" y="0"/>
      <point x="55" y="0" type="curve" smooth="yes"/>
    </contour>
    <contour>
      <point x="175" y="10" type="move" name="ogonek"/>
    </contour>
    <contour>
      <point x="232" y="700" type="move" name="top"/>
    </contour>
    <contour>
      <point x="122" y="700" type="move" name="topleft"/>
    </contour>
    <contour>
      <point x="71" y="0" type="move" name="bottom"/>
    </contour>
  </outline>
</glyph>
<glyph name="J" format="1">
  <advance width="402"/>
  <unicode hex="004A"/>
  <outline>
    <contour>
      <point x="251" y="-15"/>
      <point x="292" y="90"/>
      <point x="317" y="196" type="curve" smooth="yes"/>
      <point x="427" y="673" type="line" smooth="yes"/>
      <point x="428" y="676"/>
      <point x="428" y="679"/>
      <point x="428" y="683" type="curve" smooth="yes"/>
      <point x="428" y="694"/>
      <point x="422" y="700"/>
      <point x="409" y="700" type="curve" smooth="yes"/>
      <point x="364" y="700" type="line" smooth="yes"/>
      <point x="347" y="700"/>
      <point x="337" y="691"/>
      <point x="333" y="673" type="curve" smooth="yes"/>
      <point x="220" y="185" type="line" smooth="yes"/>
      <point x="201" y="102"/>
      <point x="166" y="62"/>
      <point x="105" y="62" type="curve" smooth="yes"/>
      <point x="85" y="62"/>
      <point x="64" y="70"/>
      <point x="41" y="87" type="curve" smooth="yes"/>
      <point x="35" y="92"/>
      <point x="29" y="95"/>
      <point x="22" y="95" type="curve" smooth="yes"/>
      <point x="15" y="95"/>
      <point x="9" y="90"/>
      <point x="4" y="81" type="curve" smooth="yes"/>
      <point x="-14" y="46" type="line" smooth="yes"/>
      <point x="-17" y="41"/>
      <point x="-18" y="36"/>
      <point x="-18" y="31" type="curve" smooth="yes"/>
      <point x="-18" y="2"/>
      <point x="61" y="-15"/>
      <point x="96" y="-15" type="curve" smooth="yes"/>
    </contour>
    <contour>
      <point x="383" y="700" type="move" name="top"/>
    </contour>
    <contour>
      <point x="142" y="0" type="move" name="bottom"/>
    </contour>
  </outline>
</glyph>
<glyph name="K" format="1">
  <advance width="648"/>
  <unicode hex="004B"/>
  <outline>
    <contour>
      <point x="100" y="0" type="line" smooth="yes"/>
      <point x="115" y="0"/>
      <point x="127" y="9"/>
      <point x="131" y="27" type="curve" smooth="yes"/>
      <point x="178" y="230" type="line"/>
      <point x="326" y="353" type="line"/>
      <point x="476" y="19" type="line" smooth="yes"/>
      <point x="482" y="6"/>
      <point x="492" y="0"/>
      <point x="506" y="0" type="curve" smooth="yes"/>
      <point x="558" y="0" type="line" smooth="yes"/>
      <point x="572" y="0"/>
      <point x="579" y="5"/>
      <point x="579" y="15" type="curve" smooth="yes"/>
      <point x="579" y="18"/>
      <point x="577" y="24"/>
      <point x="574" y="32" type="curve" smooth="yes"/>
      <point x="401" y="415" type="line"/>
      <point x="708" y="668" type="line" smooth="yes"/>
      <point x="721" y="678"/>
      <point x="727" y="686"/>
      <point x="727" y="692" type="curve" smooth="yes"/>
      <point x="727" y="697"/>
      <point x="720" y="700"/>
      <point x="707" y="700" type="curve" smooth="yes"/>
      <point x="637" y="700" type="line" smooth="yes"/>
      <point x="626" y="700"/>
      <point x="613" y="694"/>
      <point x="598" y="681" type="curve" smooth="yes"/>
      <point x="208" y="358" type="line"/>
      <point x="206" y="358" type="line"/>
      <point x="213" y="383"/>
      <point x="216" y="396"/>
      <point x="216" y="397" type="curve"/>
      <point x="280" y="673" type="line" smooth="yes"/>
      <point x="281" y="676"/>
      <point x="281" y="679"/>
      <point x="281" y="683" type="curve" smooth="yes"/>
      <point x="281" y="694"/>
      <point x="275" y="700"/>
      <point x="262" y="700" type="curve" smooth="yes"/>
      <point x="217" y="700" type="line" smooth="yes"/>
      <point x="200" y="700"/>
      <point x="190" y="691"/>
      <point x="186" y="673" type="curve" smooth="yes"/>
      <point x="37" y="27" type="line" smooth="yes"/>
      <point x="36" y="24"/>
      <point x="36" y="21"/>
      <point x="36" y="17" type="curve" smooth="yes"/>
      <point x="36" y="6"/>
      <point x="42" y="0"/>
      <point x="55" y="0" type="curve" smooth="yes"/>
    </contour>
    <contour>
      <point x="426" y="700" type="move" name="top"/>
    </contour>
    <contour>
      <point x="265" y="0" type="move" name="bottom"/>
    </contour>
  </outline>
</glyph>
<glyph name="L" format="1">
  <advance width="555"/>
  <unicode hex="004C"/>
  <outline>
    <contour>
      <point x="448" y="0" type="line" smooth="yes"/>
      <point x="467" y="0"/>
      <point x="477" y="7"/>
      <point x="480" y="22" type="curve" smooth="yes"/>
      <point x="488" y="58" type="line" smooth="yes"/>
      <point x="489" y="61"/>
      <point x="489" y="63"/>
      <point x="489" y="65" type="curve" smooth="yes"/>
      <point x="489" y="75"/>
      <point x="482" y="80"/>
      <point x="467" y="80" type="curve" smooth="yes"/>
      <point x="143" y="80" type="line"/>
      <point x="280" y="673" type="line" smooth="yes"/>
      <point x="281" y="676"/>
      <point x="281" y="679"/>
      <point x="281" y="683" type="curve" smooth="yes"/>
      <point x="281" y="694"/>
      <point x="275" y="700"/>
      <point x="262" y="700" type="curve" smooth="yes"/>
      <point x="217" y="700" type="line" smooth="yes"/>
      <point x="200" y="700"/>
      <point x="190" y="691"/>
      <point x="186" y="673" type="curve" smooth="yes"/>
      <point x="37" y="27" type="line" smooth="yes"/>
      <point x="36" y="24"/>
      <point x="36" y="21"/>
      <point x="36" y="17" type="curve" smooth="yes"/>
      <point x="36" y="6"/>
      <point x="42" y="0"/>
      <point x="55" y="0" type="curve" smooth="yes"/>
    </contour>
    <contour>
      <point x="79" y="0" type="move" name="bottom"/>
    </contour>
    <contour>
      <point x="240" y="700" type="move" name="top"/>
    </contour>
    <contour>
      <point x="357" y="700" type="move" name="topright"/>
    </contour>
    <contour>
      <point x="300" y="350" type="move" name="center"/>
    </contour>
  </outline>
</glyph>
<glyph name="M" format="1">
  <advance width="834"/>
  <unicode hex="004D"/>
  <outline>
    <contour>
      <point x="100" y="0" type="line" smooth="yes"/>
      <point x="115" y="0"/>
      <point x="127" y="9"/>
      <point x="131" y="27" type="curve" smooth="yes"/>
      <point x="257" y="578" type="line"/>
      <point x="259" y="578" type="line"/>
      <point x="313" y="30" type="line"/>
      <point x="314" y="10"/>
      <point x="323" y="0"/>
      <point x="338" y="0" type="curve" smooth="yes"/>
      <point x="392" y="0" type="line" smooth="yes"/>
      <point x="405" y="0"/>
      <point x="420" y="10"/>
      <point x="431" y="30" type="curve" smooth="yes"/>
      <point x="737" y="578" type="line"/>
      <point x="739" y="578" type="line"/>
      <point x="611" y="27" type="line" smooth="yes"/>
      <point x="610" y="24"/>
      <point x="610" y="21"/>
      <point x="610" y="17" type="curve" smooth="yes"/>
      <point x="610" y="6"/>
      <point x="616" y="0"/>
      <point x="629" y="0" type="curve" smooth="yes"/>
      <point x="674" y="0" type="line" smooth="yes"/>
      <point x="691" y="0"/>
      <point x="701" y="9"/>
      <point x="705" y="27" type="curve" smooth="yes"/>
      <point x="854" y="673" type="line" smooth="yes"/>
      <point x="855" y="676"/>
      <point x="855" y="679"/>
      <point x="855" y="683" type="curve" smooth="yes"/>
      <point x="855" y="694"/>
      <point x="849" y="700"/>
      <point x="836" y="700" type="curve" smooth="yes"/>
      <point x="726" y="700" type="line" smooth="yes"/>
      <point x="714" y="700"/>
      <point x="701" y="690"/>
      <point x="691" y="671" type="curve" smooth="yes"/>
      <point x="451" y="233" type="line" smooth="yes"/>
      <point x="423" y="182"/>
      <point x="399" y="137"/>
      <point x="384" y="101" type="curve"/>
      <point x="381" y="101" type="line"/>
      <point x="380" y="136"/>
      <point x="380" y="180"/>
      <point x="375" y="233" type="curve" smooth="yes"/>
      <point x="336" y="671" type="line" smooth="yes"/>
      <point x="334" y="690"/>
      <point x="327" y="700"/>
      <point x="315" y="700" type="curve" smooth="yes"/>
      <point x="217" y="700" type="line" smooth="yes"/>
      <point x="200" y="700"/>
      <point x="190" y="691"/>
      <point x="186" y="673" type="curve" smooth="yes"/>
      <point x="37" y="27" type="line" smooth="yes"/>
      <point x="36" y="24"/>
      <point x="36" y="21"/>
      <point x="36" y="17" type="curve" smooth="yes"/>
      <point x="36" y="6"/>
      <point x="42" y="0"/>
      <point x="55" y="0" type="curve" smooth="yes"/>
    </contour>
    <contour>
      <point x="519" y="700" type="move" name="top"/>
    </contour>
    <contour>
      <point x="358" y="0" type="move" name="bottom"/>
    </contour>
  </outline>
</glyph>
<glyph name="N" format="1">
  <advance width="702"/>
  <unicode hex="004E"/>
  <outline>
    <contour>
      <point x="100" y="0" type="line" smooth="yes"/>
      <point x="115" y="0"/>
      <point x="127" y="9"/>
      <point x="131" y="27" type="curve" smooth="yes"/>
      <point x="256" y="574" type="line"/>
      <point x="258" y="574" type="line"/>
      <point x="459" y="24" type="line" smooth="yes"/>
      <point x="465" y="8"/>
      <point x="479" y="0"/>
      <point x="502" y="0" type="curve" smooth="yes"/>
      <point x="542" y="0" type="line" smooth="yes"/>
      <point x="559" y="0"/>
      <point x="569" y="9"/>
      <point x="573" y="27" type="curve" smooth="yes"/>
      <point x="722" y="673" type="line" smooth="yes"/>
      <point x="723" y="678"/>
      <point x="724" y="682"/>
      <point x="724" y="683" type="curve" smooth="yes"/>
      <point x="724" y="694"/>
      <point x="717" y="700"/>
      <point x="704" y="700" type="curve" smooth="yes"/>
      <point x="659" y="700" type="line" smooth="yes"/>
      <point x="645" y="700"/>
      <point x="632" y="691"/>
      <point x="628" y="673" type="curve" smooth="yes"/>
      <point x="511" y="158" type="line"/>
      <point x="509" y="158" type="line"/>
      <point x="319" y="676" type="line" smooth="yes"/>
      <point x="313" y="692"/>
      <point x="299" y="700"/>
      <point x="276" y="700" type="curve" smooth="yes"/>
      <point x="217" y="700" type="line" smooth="yes"/>
      <point x="200" y="700"/>
      <point x="190" y="691"/>
      <point x="186" y="673" type="curve" smooth="yes"/>
      <point x="37" y="27" type="line" smooth="yes"/>
      <point x="36" y="24"/>
      <point x="36" y="21"/>
      <point x="36" y="17" type="curve" smooth="yes"/>
      <point x="36" y="6"/>
      <point x="42" y="0"/>
      <point x="55" y="0" type="curve" smooth="yes"/>
    </contour>
    <contour>
      <point x="453" y="700" type="move" name="top"/>
    </contour>
    <contour>
      <point x="292" y="0" type="move" name="bottom"/>
    </contour>
  </outline>
</glyph>
<glyph name="O" format="1">
  <advance width="739"/>
  <unicode hex="004F"/>
  <outline>
    <contour>
      <point x="574" y="-15"/>
      <point x="730" y="157"/>
      <point x="730" y="417" type="curve" smooth="yes"/>
      <point x="730" y="606"/>
      <point x="624" y="715"/>
      <point x="429" y="715" type="curve" smooth="yes"/>
      <point x="319" y="715"/>
      <point x="229" y="676"/>
      <point x="158" y="597" type="curve" smooth="yes"/>
      <point x="89" y="519"/>
      <point x="54" y="414"/>
      <point x="54" y="283" type="curve" smooth="yes"/>
      <point x="54" y="97"/>
      <point x="156" y="-15"/>
      <point x="355" y="-15" type="curve" smooth="yes"/>
    </contour>
    <contour>
      <point x="225" y="62"/>
      <point x="154" y="136"/>
      <point x="154" y="271" type="curve" smooth="yes"/>
      <point x="154" y="524"/>
      <point x="283" y="639"/>
      <point x="423" y="639" type="curve" smooth="yes"/>
      <point x="559" y="639"/>
      <point x="630" y="564"/>
      <point x="630" y="429" type="curve" smooth="yes"/>
      <point x="630" y="179"/>
      <point x="504" y="62"/>
      <point x="360" y="62" type="curve" smooth="yes"/>
    </contour>
    <contour>
      <point x="311" y="0" type="move" name="bottom"/>
    </contour>
    <contour>
      <point x="606" y="10" type="move" name="ogonek"/>
    </contour>
    <contour>
      <point x="452" y="700" type="move" name="top"/>
    </contour>
    <contour>
      <point x="821" y="700" type="move" name="topright"/>
    </contour>
    <contour>
      <point x="122" y="700" type="move" name="topleft"/>
    </contour>
    <contour>
      <point x="392" y="350" type="move" name="center"/>
    </contour>
  </outline>
</glyph>
<glyph name="P" format="1">
  <advance width="634"/>
  <unicode hex="0050"/>
  <outline>
    <contour>
      <point x="100" y="0" type="line" smooth="yes"/>
      <point x="115" y="0"/>
      <point x="127" y="9"/>
      <point x="131" y="27" type="curve" smooth="yes"/>
      <point x="189" y="281" type="line"/>
      <point x="335" y="281" type="line" smooth="yes"/>
      <point x="563" y="281"/>
      <point x="650" y="393"/>
      <point x="650" y="510" type="curve" smooth="yes"/>
      <point x="650" y="625"/>
      <point x="571" y="700"/>
      <point x="417" y="700" type="curve" smooth="yes"/>
      <point x="217" y="700" type="line" smooth="yes"/>
      <point x="200" y="700"/>
      <point x="190" y="691"/>
      <point x="186" y="673" type="curve" smooth="yes"/>
      <point x="37" y="27" type="line" smooth="yes"/>
      <point x="36" y="24"/>
      <point x="36" y="21"/>
      <point x="36" y="17" type="curve" smooth="yes"/>
      <point x="36" y="6"/>
      <point x="42" y="0"/>
      <point x="55" y="0" type="curve" smooth="yes"/>
    </contour>
    <contour>
      <point x="268" y="620" type="line"/>
      <point x="400" y="620" type="line" smooth="yes"/>
      <point x="509" y="620"/>
      <point x="555" y="589"/>
      <point x="555" y="500" type="curve" smooth="yes"/>
      <point x="555" y="419"/>
      <point x="497" y="361"/>
      <point x="360" y="361" type="curve" smooth="yes"/>
      <point x="208" y="361" type="line"/>
    </contour>
    <contour>
      <point x="419" y="700" type="move" name="top"/>
    </contour>
    <contour>
      <point x="258" y="0" type="move" name="bottom"/>
    </contour>
  </outline>
</glyph>
<glyph name="Q" format="1">
  <advance width="739"/>
  <unicode hex="0051"/>
  <outline>
    <contour>
      <point x="497" y="-184"/>
      <point x="589" y="-181"/>
      <point x="589" y="-163" type="curve"/>
      <point x="583" y="-117" type="line"/>
      <point x="583" y="-111"/>
      <point x="579" y="-108"/>
      <point x="571" y="-108" type="curve" smooth="yes"/>
      <point x="563" y="-109" type="line"/>
      <point x="544" y="-114"/>
      <point x="525" y="-116"/>
      <point x="506" y="-116" type="curve" smooth="yes"/>
      <point x="433" y="-116"/>
      <point x="399" y="-94"/>
      <point x="399" y="-13" type="curve"/>
      <point x="595" y="8"/>
      <point x="730" y="176"/>
      <point x="730" y="417" type="curve" smooth="yes"/>
      <point x="730" y="606"/>
      <point x="624" y="715"/>
      <point x="429" y="715" type="curve" smooth="yes"/>
      <point x="319" y="715"/>
      <point x="229" y="676"/>
      <point x="158" y="597" type="curve" smooth="yes"/>
      <point x="89" y="519"/>
      <point x="54" y="414"/>
      <point x="54" y="283" type="curve" smooth="yes"/>
      <point x="54" y="114"/>
      <point x="141" y="3"/>
      <point x="305" y="-12" type="curve"/>
      <point x="305" y="-130"/>
      <point x="356" y="-184"/>
      <point x="490" y="-184" type="curve" smooth="yes"/>
    </contour>
    <contour>
      <point x="225" y="62"/>
      <point x="154" y="136"/>
      <point x="154" y="271" type="curve" smooth="yes"/>
      <point x="154" y="524"/>
      <point x="283" y="639"/>
      <point x="423" y="639" type="curve" smooth="yes"/>
      <point x="559" y="639"/>
      <point x="630" y="564"/>
      <point x="630" y="429" type="curve" smooth="yes"/>
      <point x="630" y="179"/>
      <point x="504" y="62"/>
      <point x="360" y="62" type="curve" smooth="yes"/>
    </contour>
    <contour>
      <point x="442" y="700" type="move" name="top"/>
    </contour>
    <contour>
      <point x="311" y="0" type="move" name="bottom"/>
    </contour>
  </outline>
</glyph>
<glyph name="R" format="1">
  <advance width="676"/>
  <unicode hex="0052"/>
  <outline>
    <contour>
      <point x="100" y="0" type="line" smooth="yes"/>
      <point x="115" y="0"/>
      <point x="127" y="9"/>
      <point x="131" y="27" type="curve" smooth="yes"/>
      <point x="194" y="303" type="line"/>
      <point x="279" y="303" type="line" smooth="yes"/>
      <point x="369" y="303"/>
      <point x="413" y="241"/>
      <point x="428" y="193" type="curve" smooth="yes"/>
      <point x="484" y="19" type="line" smooth="yes"/>
      <point x="488" y="6"/>
      <point x="499" y="0"/>
      <point x="514" y="0" type="curve" smooth="yes"/>
      <point x="560" y="0" type="line" smooth="yes"/>
      <point x="573" y="0"/>
      <point x="579" y="5"/>
      <point x="579" y="16" type="curve" smooth="yes"/>
      <point x="579" y="21"/>
      <point x="578" y="26"/>
      <point x="576" y="32" type="curve" smooth="yes"/>
      <point x="512" y="211" type="line" smooth="yes"/>
      <point x="491" y="268"/>
      <point x="486" y="275"/>
      <point x="436" y="320" type="curve"/>
      <point x="437" y="321" type="line"/>
      <point x="566" y="331"/>
      <point x="667" y="411"/>
      <point x="667" y="516" type="curve" smooth="yes"/>
      <point x="667" y="617"/>
      <point x="605" y="700"/>
      <point x="438" y="700" type="curve" smooth="yes"/>
      <point x="217" y="700" type="line" smooth="yes"/>
      <point x="200" y="700"/>
      <point x="190" y="691"/>
      <point x="186" y="673" type="curve" smooth="yes"/>
      <point x="37" y="27" type="line" smooth="yes"/>
      <point x="36" y="24"/>
      <point x="36" y="21"/>
      <point x="36" y="17" type="curve" smooth="yes"/>
      <point x="36" y="6"/>
      <point x="42" y="0"/>
      <point x="55" y="0" type="curve" smooth="yes"/>
    </contour>
    <contour>
      <point x="268" y="620" type="line"/>
      <point x="413" y="620" type="line" smooth="yes"/>
      <point x="509" y="620"/>
      <point x="571" y="600"/>
      <point x="571" y="507" type="curve" smooth="yes"/>
      <point x="571" y="422"/>
      <point x="476" y="383"/>
      <point x="364" y="383" type="curve" smooth="yes"/>
      <point x="213" y="383" type="line"/>
    </contour>
    <contour>
      <point x="440" y="700" type="move" name="top"/>
    </contour>
    <contour>
      <point x="279" y="0" type="move" name="bottom"/>
    </contour>
  </outline>
</glyph>
<glyph name="S" format="1">
  <advance width="594"/>
  <unicode hex="0053"/>
  <outline>
    <contour>
      <point x="438" y="-15"/>
      <point x="547" y="65"/>
      <point x="547" y="198" type="curve" smooth="yes"/>
      <point x="547" y="272"/>
      <point x="502" y="341"/>
      <point x="415" y="373" type="curve" smooth="yes"/>
      <point x="377" y="387" type="line"/>
      <point x="284" y="417"/>
      <point x="240" y="440"/>
      <point x="240" y="515" type="curve" smooth="yes"/>
      <point x="240" y="599"/>
      <point x="323" y="632"/>
      <point x="383" y="632" type="curve" smooth="yes"/>
      <point x="466" y="632"/>
      <point x="537" y="573"/>
      <point x="547" y="573" type="curve" smooth="yes"/>
      <point x="552" y="573"/>
      <point x="555" y="575"/>
      <point x="558" y="579" type="curve" smooth="yes"/>
      <point x="586" y="616" type="line" smooth="yes"/>
      <point x="591" y="622"/>
      <point x="593" y="627"/>
      <point x="593" y="632" type="curve" smooth="yes"/>
      <point x="593" y="656"/>
      <point x="532" y="687"/>
      <point x="498" y="699" type="curve" smooth="yes"/>
      <point x="467" y="710"/>
      <point x="431" y="715"/>
      <point x="389" y="715" type="curve" smooth="yes"/>
      <point x="329" y="715"/>
      <point x="146" y="683"/>
      <point x="146" y="508" type="curve" smooth="yes"/>
      <point x="146" y="392"/>
      <point x="216" y="349"/>
      <point x="339" y="304" type="curve" smooth="yes"/>
      <point x="374" y="292" type="line"/>
      <point x="428" y="271"/>
      <point x="448" y="229"/>
      <point x="448" y="182" type="curve" smooth="yes"/>
      <point x="448" y="99"/>
      <point x="358" y="62"/>
      <point x="279" y="62" type="curve" smooth="yes"/>
      <point x="196" y="62"/>
      <point x="156" y="87"/>
      <point x="116" y="125" type="curve" smooth="yes"/>
      <point x="106" y="135"/>
      <point x="95" y="138"/>
      <point x="89" y="139" type="curve" smooth="yes"/>
      <point x="83" y="139"/>
      <point x="78" y="136"/>
      <point x="74" y="131" type="curve" smooth="yes"/>
      <point x="46" y="97" type="line" smooth="yes"/>
      <point x="43" y="93"/>
      <point x="41" y="88"/>
      <point x="41" y="83" type="curve" smooth="yes"/>
      <point x="41" y="74"/>
      <point x="46" y="65"/>
      <point x="56" y="55" type="curve" smooth="yes"/>
      <point x="103" y="8"/>
      <point x="174" y="-15"/>
      <point x="271" y="-15" type="curve" smooth="yes"/>
    </contour>
    <contour>
      <point x="399" y="700" type="move" name="top"/>
    </contour>
    <contour>
      <point x="238" y="0" type="move" name="bottom"/>
    </contour>
  </outline>
</glyph>
<glyph name="T" format="1">
  <advance width="605"/>
  <unicode hex="0054"/>
  <outline>
    <contour>
      <point x="272" y="0" type="line" smooth="yes"/>
      <point x="287" y="0"/>
      <point x="299" y="9"/>
      <point x="303" y="27" type="curve" smooth="yes"/>
      <point x="438" y="616" type="line"/>
      <point x="650" y="616" type="line" smooth="yes"/>
      <point x="668" y="616"/>
      <point x="679" y="623"/>
      <point x="682" y="638" type="curve" smooth="yes"/>
      <point x="691" y="678" type="line" smooth="yes"/>
      <point x="692" y="681"/>
      <point x="692" y="683"/>
      <point x="692" y="685" type="curve" smooth="yes"/>
      <point x="692" y="695"/>
      <point x="684" y="700"/>
      <point x="669" y="700" type="curve" smooth="yes"/>
      <point x="153" y="700" type="line" smooth="yes"/>
      <point x="136" y="700"/>
      <point x="124" y="693"/>
      <point x="121" y="678" type="curve" smooth="yes"/>
      <point x="112" y="638" type="line" smooth="yes"/>
      <point x="111" y="635"/>
      <point x="111" y="633"/>
      <point x="111" y="630" type="curve" smooth="yes"/>
      <point x="111" y="620"/>
      <point x="118" y="616"/>
      <point x="133" y="616" type="curve" smooth="yes"/>
      <point x="345" y="616" type="line"/>
      <point x="209" y="27" type="line" smooth="yes"/>
      <point x="208" y="24"/>
      <point x="208" y="21"/>
      <point x="208" y="17" type="curve" smooth="yes"/>
      <point x="208" y="6"/>
      <point x="214" y="0"/>
      <point x="227" y="0" type="curve" smooth="yes"/>
    </contour>
    <contour>
      <point x="325" y="350" type="move" name="center"/>
    </contour>
    <contour>
      <point x="244" y="0" type="move" name="bottom"/>
    </contour>
    <contour>
      <point x="405" y="700" type="move" name="top"/>
    </contour>
  </outline>
</glyph>
<glyph name="U" format="1">
  <advance width="685"/>
  <unicode hex="0055"/>
  <outline>
    <contour>
      <point x="494" y="-15"/>
      <point x="592" y="60"/>
      <point x="640" y="267" type="curve" smooth="yes"/>
      <point x="734" y="673" type="line" smooth="yes"/>
      <point x="735" y="676"/>
      <point x="735" y="679"/>
      <point x="735" y="683" type="curve" smooth="yes"/>
      <point x="735" y="694"/>
      <point x="729" y="700"/>
      <point x="716" y="700" type="curve" smooth="yes"/>
      <point x="671" y="700" type="line" smooth="yes"/>
      <point x="657" y="700"/>
      <point x="644" y="691"/>
      <point x="640" y="673" type="curve" smooth="yes"/>
      <point x="550" y="282" type="line" smooth="yes"/>
      <point x="508" y="98"/>
      <point x="431" y="62"/>
      <point x="333" y="62" type="curve" smooth="yes"/>
      <point x="242" y="62"/>
      <point x="202" y="89"/>
      <point x="202" y="164" type="curve" smooth="yes"/>
      <point x="202" y="193"/>
      <point x="208" y="233"/>
      <point x="219" y="282" type="curve" smooth="yes"/>
      <point x="309" y="673" type="line" smooth="yes"/>
      <point x="310" y="676"/>
      <point x="310" y="679"/>
      <point x="310" y="683" type="curve" smooth="yes"/>
      <point x="310" y="694"/>
      <point x="304" y="700"/>
      <point x="291" y="700" type="curve" smooth="yes"/>
      <point x="246" y="700" type="line" smooth="yes"/>
      <point x="232" y="700"/>
      <point x="219" y="691"/>
      <point x="215" y="673" type="curve" smooth="yes"/>
      <point x="122" y="267" type="line" smooth="yes"/>
      <point x="113" y="228"/>
      <point x="109" y="196"/>
      <point x="109" y="169" type="curve" smooth="yes"/>
      <point x="109" y="37"/>
      <point x="217" y="-15"/>
      <point x="316" y="-15" type="curve" smooth="yes"/>
    </contour>
    <contour>
      <point x="557" y="10" type="move" name="ogonek"/>
    </contour>
    <contour>
      <point x="445" y="700" type="move" name="top"/>
    </contour>
    <contour>
      <point x="767" y="700" type="move" name="topright"/>
    </contour>
    <contour>
      <point x="284" y="0" type="move" name="bottom"/>
    </contour>
  </outline>
</glyph>
<glyph name="V" format="1">
  <advance width="653"/>
  <unicode hex="0056"/>
  <outline>
    <contour>
      <point x="307" y="0" type="line" smooth="yes"/>
      <point x="319" y="0"/>
      <point x="334" y="9"/>
      <point x="346" y="30" type="curve" smooth="yes"/>
      <point x="731" y="668" type="line" smooth="yes"/>
      <point x="736" y="676"/>
      <point x="739" y="683"/>
      <point x="739" y="690" type="curve" smooth="yes"/>
      <point x="739" y="697"/>
      <point x="734" y="700"/>
      <point x="725" y="700" type="curve" smooth="yes"/>
      <point x="669" y="700" type="line" smooth="yes"/>
      <point x="652" y="700"/>
      <point x="638" y="692"/>
      <point x="629" y="676" type="curve" smooth="yes"/>
      <point x="369" y="239" type="line"/>
      <point x="327" y="165" type="line" smooth="yes"/>
      <point x="306" y="128"/>
      <point x="294" y="101"/>
      <point x="287" y="84" type="curve"/>
      <point x="285" y="84" type="line"/>
      <point x="285" y="105"/>
      <point x="284" y="131"/>
      <point x="282" y="163" type="curve"/>
      <point x="274" y="239" type="line"/>
      <point x="217" y="676" type="line" smooth="yes"/>
      <point x="215" y="692"/>
      <point x="205" y="700"/>
      <point x="187" y="700" type="curve" smooth="yes"/>
      <point x="143" y="700" type="line" smooth="yes"/>
      <point x="129" y="700"/>
      <point x="122" y="693"/>
      <point x="122" y="678" type="curve"/>
      <point x="123" y="668" type="line"/>
      <point x="213" y="30" type="line" smooth="yes"/>
      <point x="216" y="10"/>
      <point x="225" y="0"/>
      <point x="238" y="0" type="curve" smooth="yes"/>
    </contour>
    <contour>
      <point x="429" y="700" type="move" name="top"/>
    </contour>
    <contour>
      <point x="268" y="0" type="move" name="bottom"/>
    </contour>
  </outline>
</glyph>
<glyph name="W" format="1">
  <advance width="922"/>
  <unicode hex="0057"/>
  <outline>
    <contour>
      <point x="234" y="0" type="line" smooth="yes"/>
      <point x="250" y="0"/>
      <point x="265" y="14"/>
      <point x="278" y="41" type="curve" smooth="yes"/>
      <point x="499" y="509" type="line" smooth="yes"/>
      <point x="510" y="533"/>
      <point x="518" y="551"/>
      <point x="523" y="564" type="curve" smooth="yes"/>
      <point x="542" y="615" type="line"/>
      <point x="542" y="592"/>
      <point x="542" y="575"/>
      <point x="541" y="566" type="curve"/>
      <point x="541" y="509" type="line"/>
      <point x="553" y="41" type="line" smooth="yes"/>
      <point x="554" y="14"/>
      <point x="563" y="0"/>
      <point x="579" y="0" type="curve" smooth="yes"/>
      <point x="640" y="0" type="line" smooth="yes"/>
      <point x="656" y="0"/>
      <point x="673" y="13"/>
      <point x="685" y="38" type="curve" smooth="yes"/>
      <point x="994" y="671" type="line" smooth="yes"/>
      <point x="998" y="679"/>
      <point x="1000" y="685"/>
      <point x="1000" y="690" type="curve" smooth="yes"/>
      <point x="1000" y="697"/>
      <point x="996" y="700"/>
      <point x="988" y="700" type="curve" smooth="yes"/>
      <point x="923" y="700" type="line" smooth="yes"/>
      <point x="912" y="700"/>
      <point x="904" y="693"/>
      <point x="897" y="678" type="curve" smooth="yes"/>
      <point x="685" y="208" type="line" smooth="yes"/>
      <point x="671" y="178"/>
      <point x="662" y="158"/>
      <point x="657" y="149" type="curve" smooth="yes"/>
      <point x="626" y="84" type="line"/>
      <point x="624" y="84" type="line"/>
      <point x="624" y="208" type="line"/>
      <point x="616" y="674" type="line" smooth="yes"/>
      <point x="616" y="691"/>
      <point x="605" y="700"/>
      <point x="590" y="700" type="curve" smooth="yes"/>
      <point x="524" y="700" type="line" smooth="yes"/>
      <point x="509" y="700"/>
      <point x="496" y="691"/>
      <point x="487" y="674" type="curve"/>
      <point x="257" y="174" type="line"/>
      <point x="218" y="84" type="line"/>
      <point x="216" y="84" type="line"/>
      <point x="216" y="143"/>
      <point x="217" y="147"/>
      <point x="217" y="184" type="curve" smooth="yes"/>
      <point x="217" y="191"/>
      <point x="217" y="199"/>
      <point x="217" y="208" type="curve" smooth="yes"/>
      <point x="206" y="678" type="line" smooth="yes"/>
      <point x="206" y="693"/>
      <point x="201" y="700"/>
      <point x="190" y="700" type="curve" smooth="yes"/>
      <point x="138" y="700" type="line" smooth="yes"/>
      <point x="123" y="700"/>
      <point x="119" y="690"/>
      <point x="119" y="671" type="curve"/>
      <point x="146" y="38" type="line"/>
      <point x="146" y="13"/>
      <point x="156" y="0"/>
      <point x="173" y="0" type="curve" smooth="yes"/>
    </contour>
    <contour>
      <point x="563" y="700" type="move" name="top"/>
    </contour>
    <contour>
      <point x="402" y="0" type="move" name="bottom"/>
    </contour>
  </outline>
</glyph>
<glyph name="X" format="1">
  <advance width="634"/>
  <unicode hex="0058"/>
  <outline>
    <contour>
      <point x="80" y="0" type="line" smooth="yes"/>
      <point x="94" y="0"/>
      <point x="107" y="6"/>
      <point x="119" y="19" type="curve" smooth="yes"/>
      <point x="361" y="296" type="line"/>
      <point x="485" y="19" type="line" smooth="yes"/>
      <point x="491" y="6"/>
      <point x="501" y="0"/>
      <point x="515" y="0" type="curve" smooth="yes"/>
      <point x="566" y="0" type="line" smooth="yes"/>
      <point x="581" y="0"/>
      <point x="588" y="5"/>
      <point x="588" y="15" type="curve" smooth="yes"/>
      <point x="588" y="18"/>
      <point x="586" y="24"/>
      <point x="583" y="32" type="curve"/>
      <point x="423" y="355" type="line"/>
      <point x="712" y="668" type="line" smooth="yes"/>
      <point x="721" y="677"/>
      <point x="726" y="685"/>
      <point x="726" y="691" type="curve" smooth="yes"/>
      <point x="726" y="697"/>
      <point x="721" y="700"/>
      <point x="710" y="700" type="curve" smooth="yes"/>
      <point x="643" y="700" type="line" smooth="yes"/>
      <point x="629" y="700"/>
      <point x="615" y="694"/>
      <point x="604" y="681" type="curve" smooth="yes"/>
      <point x="382" y="426" type="line"/>
      <point x="267" y="681" type="line" smooth="yes"/>
      <point x="261" y="694"/>
      <point x="251" y="700"/>
      <point x="237" y="700" type="curve" smooth="yes"/>
      <point x="189" y="700" type="line" smooth="yes"/>
      <point x="175" y="700"/>
      <point x="168" y="695"/>
      <point x="168" y="685" type="curve" smooth="yes"/>
      <point x="168" y="682"/>
      <point x="170" y="676"/>
      <point x="173" y="668" type="curve"/>
      <point x="319" y="367" type="line"/>
      <point x="8" y="32" type="line" smooth="yes"/>
      <point x="-2" y="22"/>
      <point x="-7" y="14"/>
      <point x="-7" y="8" type="curve" smooth="yes"/>
      <point x="-7" y="3"/>
      <point x="-2" y="0"/>
      <point x="9" y="0" type="curve" smooth="yes"/>
    </contour>
    <contour>
      <point x="439" y="700" type="move" name="top"/>
    </contour>
    <contour>
      <point x="258" y="0" type="move" name="bottom"/>
    </contour>
  </outline>
</glyph>
<glyph name="Y" format="1">
  <advance width="636"/>
  <unicode hex="0059"/>
  <outline>
    <contour>
      <point x="295" y="0" type="line" smooth="yes"/>
      <point x="310" y="0"/>
      <point x="322" y="9"/>
      <point x="326" y="27" type="curve" smooth="yes"/>
      <point x="386" y="288" type="line"/>
      <point x="718" y="668" type="line" smooth="yes"/>
      <point x="726" y="677"/>
      <point x="731" y="684"/>
      <point x="731" y="690" type="curve" smooth="yes"/>
      <point x="731" y="697"/>
      <point x="725" y="700"/>
      <point x="712" y="700" type="curve" smooth="yes"/>
      <point x="651" y="700" type="line" smooth="yes"/>
      <point x="638" y="700"/>
      <point x="624" y="692"/>
      <point x="611" y="676" type="curve" smooth="yes"/>
      <point x="413" y="434" type="line"/>
      <point x="386" y="401" type="line" smooth="yes"/>
      <point x="366" y="377"/>
      <point x="355" y="357"/>
      <point x="346" y="346" type="curve"/>
      <point x="344" y="346" type="line"/>
      <point x="332" y="395"/>
      <point x="315" y="440"/>
      <point x="307" y="463" type="curve" smooth="yes"/>
      <point x="231" y="676" type="line" smooth="yes"/>
      <point x="225" y="692"/>
      <point x="216" y="700"/>
      <point x="201" y="700" type="curve" smooth="yes"/>
      <point x="156" y="700" type="line" smooth="yes"/>
      <point x="139" y="700"/>
      <point x="131" y="694"/>
      <point x="131" y="683" type="curve" smooth="yes"/>
      <point x="131" y="678"/>
      <point x="132" y="673"/>
      <point x="135" y="668" type="curve"/>
      <point x="292" y="288" type="line"/>
      <point x="232" y="27" type="line" smooth="yes"/>
      <point x="231" y="24"/>
      <point x="231" y="21"/>
      <point x="231" y="17" type="curve" smooth="yes"/>
      <point x="231" y="6"/>
      <point x="237" y="0"/>
      <point x="250" y="0" type="curve" smooth="yes"/>
    </contour>
    <contour>
      <point x="430" y="700" type="move" name="top"/>
    </contour>
    <contour>
      <point x="259" y="0" type="move" name="bottom"/>
    </contour>
    <contour>
      <point x="122" y="700" type="move" name="topleft"/>
    </contour>
  </outline>
</glyph>
<glyph name="Z" format="1">
  <advance width="594"/>
  <unicode hex="005A"/>
  <outline>
    <contour>
      <point x="481" y="0" type="line" smooth="yes"/>
      <point x="500" y="0"/>
      <point x="510" y="7"/>
      <point x="513" y="22" type="curve" smooth="yes"/>
      <point x="521" y="58" type="line" smooth="yes"/>
      <point x="522" y="61"/>
      <point x="522" y="63"/>
      <point x="522" y="65" type="curve" smooth="yes"/>
      <point x="522" y="75"/>
      <point x="515" y="80"/>
      <point x="500" y="80" type="curve" smooth="yes"/>
      <point x="168" y="80" type="line" smooth="yes"/>
      <point x="148" y="80"/>
      <point x="135" y="80"/>
      <point x="128" y="79" type="curve"/>
      <point x="634" y="633" type="line" smooth="yes"/>
      <point x="643" y="643"/>
      <point x="648" y="653"/>
      <point x="651" y="663" type="curve" smooth="yes"/>
      <point x="654" y="678" type="line" smooth="yes"/>
      <point x="655" y="681"/>
      <point x="655" y="683"/>
      <point x="655" y="685" type="curve" smooth="yes"/>
      <point x="655" y="695"/>
      <point x="647" y="700"/>
      <point x="632" y="700" type="curve" smooth="yes"/>
      <point x="182" y="700" type="line" smooth="yes"/>
      <point x="165" y="700"/>
      <point x="153" y="693"/>
      <point x="150" y="678" type="curve" smooth="yes"/>
      <point x="142" y="642" type="line" smooth="yes"/>
      <point x="141" y="640"/>
      <point x="141" y="638"/>
      <point x="141" y="636" type="curve" smooth="yes"/>
      <point x="141" y="625"/>
      <point x="149" y="620"/>
      <point x="164" y="620" type="curve" smooth="yes"/>
      <point x="507" y="621" type="line"/>
      <point x="13" y="89" type="line" smooth="yes"/>
      <point x="0" y="75"/>
      <point x="-9" y="61"/>
      <point x="-12" y="45" type="curve" smooth="yes"/>
      <point x="-17" y="22" type="line" smooth="yes"/>
      <point x="-18" y="19"/>
      <point x="-18" y="17"/>
      <point x="-18" y="15" type="curve" smooth="yes"/>
      <point x="-18" y="5"/>
      <point x="-11" y="0"/>
      <point x="5" y="0" type="curve" smooth="yes"/>
    </contour>
    <contour>
      <point x="399" y="700" type="move" name="top"/>
    </contour>
    <contour>
      <point x="238" y="0" type="move" name="bottom"/>
    </contour>
  </outline>
</glyph>
<glyph name="bracketleft" format="1">
  <advance width="321"/>
  <unicode hex="005B"/>
  <outline>
    <contour>
      <point x="166" y="-199" type="line" smooth="yes"/>
      <point x="181" y="-199"/>
      <point x="189" y="-193"/>
      <point x="191" y="-182" type="curve" smooth="yes"/>
      <point x="198" y="-153" type="line" smooth="yes"/>
      <point x="198" y="-151"/>
      <point x="199" y="-150"/>
      <point x="199" y="-148" type="curve" smooth="yes"/>
      <point x="199" y="-140"/>
      <point x="192" y="-136"/>
      <point x="180" y="-136" type="curve" smooth="yes"/>
      <point x="84" y="-136" type="line"/>
      <point x="269" y="667" type="line"/>
      <point x="365" y="667" type="line" smooth="yes"/>
      <point x="380" y="667"/>
      <point x="389" y="673"/>
      <point x="391" y="684" type="curve" smooth="yes"/>
      <point x="398" y="713" type="line" smooth="yes"/>
      <point x="398" y="715"/>
      <point x="399" y="717"/>
      <point x="399" y="718" type="curve" smooth="yes"/>
      <point x="399" y="726"/>
      <point x="392" y="730"/>
      <point x="380" y="730" type="curve" smooth="yes"/>
      <point x="220" y="730" type="line" smooth="yes"/>
      <point x="205" y="730"/>
      <point x="196" y="723"/>
      <point x="193" y="708" type="curve" smooth="yes"/>
      <point x="-12" y="-177" type="line" smooth="yes"/>
      <point x="-13" y="-180"/>
      <point x="-13" y="-182"/>
      <point x="-13" y="-184" type="curve" smooth="yes"/>
      <point x="-13" y="-194"/>
      <point x="-7" y="-199"/>
      <point x="5" y="-199" type="curve" smooth="yes"/>
    </contour>
  </outline>
</glyph>
<glyph name="backslash" format="1">
  <advance width="410"/>
  <unicode hex="005C"/>
  <outline>
    <contour>
      <point x="325" y="-199"/>
      <point x="327" y="-199"/>
      <point x="328" y="-198" type="curve"/>
      <point x="350" y="-192" type="line" smooth="yes"/>
      <point x="359" y="-190"/>
      <point x="364" y="-184"/>
      <point x="364" y="-175" type="curve" smooth="yes"/>
      <point x="364" y="-174"/>
      <point x="363" y="-170"/>
      <point x="362" y="-165" type="curve" smooth="yes"/>
      <point x="135" y="700" type="line"/>
      <point x="132" y="709"/>
      <point x="126" y="714"/>
      <point x="119" y="714" type="curve" smooth="yes"/>
      <point x="116" y="714"/>
      <point x="114" y="714"/>
      <point x="112" y="713" type="curve" smooth="yes"/>
      <point x="89" y="708" type="line" smooth="yes"/>
      <point x="80" y="706"/>
      <point x="76" y="700"/>
      <point x="76" y="691" type="curve"/>
      <point x="76" y="690"/>
      <point x="77" y="686"/>
      <point x="78" y="681" type="curve" smooth="yes"/>
      <point x="306" y="-184" type="line" smooth="yes"/>
      <point x="308" y="-194"/>
      <point x="313" y="-199"/>
      <point x="322" y="-199" type="curve" smooth="yes"/>
    </contour>
  </outline>
</glyph>
<glyph name="bracketright" format="1">
  <advance width="321"/>
  <unicode hex="005D"/>
  <outline>
    <contour>
      <point x="115" y="-199" type="line" smooth="yes"/>
      <point x="130" y="-199"/>
      <point x="138" y="-192"/>
      <point x="142" y="-177" type="curve" smooth="yes"/>
      <point x="347" y="708" type="line" smooth="yes"/>
      <point x="347" y="710"/>
      <point x="348" y="713"/>
      <point x="348" y="715" type="curve" smooth="yes"/>
      <point x="348" y="725"/>
      <point x="342" y="730"/>
      <point x="330" y="730" type="curve" smooth="yes"/>
      <point x="169" y="730" type="line" smooth="yes"/>
      <point x="154" y="730"/>
      <point x="146" y="724"/>
      <point x="144" y="713" type="curve" smooth="yes"/>
      <point x="137" y="684" type="line" smooth="yes"/>
      <point x="136" y="682"/>
      <point x="136" y="680"/>
      <point x="136" y="679" type="curve" smooth="yes"/>
      <point x="136" y="671"/>
      <point x="142" y="667"/>
      <point x="155" y="667" type="curve" smooth="yes"/>
      <point x="251" y="667" type="line"/>
      <point x="66" y="-136" type="line"/>
      <point x="-30" y="-136" type="line" smooth="yes"/>
      <point x="-45" y="-136"/>
      <point x="-54" y="-142"/>
      <point x="-56" y="-153" type="curve" smooth="yes"/>
      <point x="-63" y="-182" type="line" smooth="yes"/>
      <point x="-63" y="-184"/>
      <point x="-64" y="-185"/>
      <point x="-64" y="-186" type="curve" smooth="yes"/>
      <point x="-64" y="-195"/>
      <point x="-57" y="-199"/>
      <point x="-45" y="-199" type="curve" smooth="yes"/>
    </contour>
  </outline>
</glyph>
<glyph name="asciicircum" format="1">
  <advance width="423"/>
  <unicode hex="005E"/>
  <outline>
    <contour>
      <point x="143" y="432"/>
      <point x="149" y="436"/>
      <point x="154" y="445" type="curve" smooth="yes"/>
      <point x="271" y="630" type="line"/>
      <point x="388" y="445" type="line" smooth="yes"/>
      <point x="393" y="436"/>
      <point x="399" y="432"/>
      <point x="406" y="432" type="curve" smooth="yes"/>
      <point x="409" y="432"/>
      <point x="412" y="433"/>
      <point x="415" y="435" type="curve" smooth="yes"/>
      <point x="438" y="451" type="line" smooth="yes"/>
      <point x="443" y="454"/>
      <point x="446" y="458"/>
      <point x="446" y="464" type="curve" smooth="yes"/>
      <point x="446" y="469"/>
      <point x="444" y="474"/>
      <point x="441" y="478" type="curve" smooth="yes"/>
      <point x="313" y="684" type="line" smooth="yes"/>
      <point x="306" y="695"/>
      <point x="296" y="700"/>
      <point x="281" y="700" type="curve" smooth="yes"/>
      <point x="261" y="700" type="line" smooth="yes"/>
      <point x="246" y="700"/>
      <point x="236" y="695"/>
      <point x="229" y="684" type="curve" smooth="yes"/>
      <point x="101" y="478" type="line" smooth="yes"/>
      <point x="98" y="474"/>
      <point x="96" y="469"/>
      <point x="96" y="464" type="curve" smooth="yes"/>
      <point x="96" y="458"/>
      <point x="99" y="454"/>
      <point x="104" y="451" type="curve" smooth="yes"/>
      <point x="127" y="435" type="line" smooth="yes"/>
      <point x="130" y="433"/>
      <point x="133" y="432"/>
      <point x="136" y="432" type="curve" smooth="yes"/>
    </contour>
  </outline>
</glyph>
<glyph name="underscore" format="1">
  <advance width="537"/>
  <unicode hex="005F"/>
  <outline>
    <contour>
      <point x="432" y="-190" type="line" smooth="yes"/>
      <point x="447" y="-190"/>
      <point x="454" y="-184"/>
      <point x="454" y="-173" type="curve" smooth="yes"/>
      <point x="454" y="-144" type="line" smooth="yes"/>
      <point x="454" y="-133"/>
      <point x="447" y="-127"/>
      <point x="432" y="-127" type="curve" smooth="yes"/>
      <point x="-85" y="-127" type="line" smooth="yes"/>
      <point x="-100" y="-127"/>
      <point x="-107" y="-133"/>
      <point x="-107" y="-144" type="curve" smooth="yes"/>
      <point x="-107" y="-173" type="line" smooth="yes"/>
      <point x="-107" y="-184"/>
      <point x="-100" y="-190"/>
      <point x="-85" y="-190" type="curve" smooth="yes"/>
    </contour>
  </outline>
</glyph>
<glyph name="grave" format="1">
  <advance width="300"/>
  <unicode hex="0060"/>
  <outline>
    <contour>
      <point x="341" y="562" type="line" smooth="yes"/>
      <point x="351" y="562"/>
      <point x="356" y="565"/>
      <point x="356" y="571" type="curve" smooth="yes"/>
      <point x="356" y="575"/>
      <point x="354" y="580"/>
      <point x="350" y="587" type="curve" smooth="yes"/>
      <point x="295" y="683" type="line" smooth="yes"/>
      <point x="288" y="695"/>
      <point x="277" y="701"/>
      <point x="259" y="701" type="curve" smooth="yes"/>
      <point x="209" y="701" type="line" smooth="yes"/>
      <point x="198" y="701"/>
      <point x="192" y="698"/>
      <point x="192" y="691" type="curve" smooth="yes"/>
      <point x="192" y="687"/>
      <point x="194" y="682"/>
      <point x="199" y="675" type="curve" smooth="yes"/>
      <point x="272" y="576" type="line" smooth="yes"/>
      <point x="279" y="567"/>
      <point x="291" y="562"/>
      <point x="310" y="562" type="curve" smooth="yes"/>
    </contour>
  </outline>
</glyph>
<glyph name="a" format="1">
  <advance width="537"/>
  <unicode hex="0061"/>
  <outline>
    <contour>
      <point x="254" y="-8"/>
      <point x="307" y="36"/>
      <point x="341" y="81" type="curve"/>
      <point x="342" y="81" type="line"/>
      <point x="330" y="22" type="line" smooth="yes"/>
      <point x="329" y="19"/>
      <point x="329" y="17"/>
      <point x="329" y="15" type="curve" smooth="yes"/>
      <point x="329" y="5"/>
      <point x="335" y="0"/>
      <point x="347" y="0" type="curve" smooth="yes"/>
      <point x="387" y="0" type="line" smooth="yes"/>
      <point x="400" y="0"/>
      <point x="410" y="7"/>
      <point x="414" y="22" type="curve" smooth="yes"/>
      <point x="522" y="491" type="line"/>
      <point x="522" y="494"/>
      <point x="523" y="496"/>
      <point x="523" y="498" type="curve" smooth="yes"/>
      <point x="523" y="508"/>
      <point x="517" y="513"/>
      <point x="505" y="513" type="curve" smooth="yes"/>
      <point x="464" y="513" type="line" smooth="yes"/>
      <point x="453" y="513"/>
      <point x="445" y="506"/>
      <point x="440" y="491" type="curve" smooth="yes"/>
      <point x="429" y="460" type="line"/>
      <point x="405" y="496"/>
      <point x="370" y="521"/>
      <point x="314" y="521" type="curve" smooth="yes"/>
      <point x="247" y="521"/>
      <point x="184" y="484"/>
      <point x="123" y="410" type="curve" smooth="yes"/>
      <point x="62" y="335"/>
      <point x="32" y="254"/>
      <point x="32" y="166" type="curve" smooth="yes"/>
      <point x="32" y="48"/>
      <point x="94" y="-8"/>
      <point x="189" y="-8" type="curve" smooth="yes"/>
    </contour>
    <contour>
      <point x="176" y="55"/>
      <point x="152" y="67"/>
      <point x="140" y="92" type="curve"/>
      <point x="129" y="118"/>
      <point x="123" y="141"/>
      <point x="123" y="162" type="curve" smooth="yes"/>
      <point x="123" y="323"/>
      <point x="223" y="458"/>
      <point x="312" y="458" type="curve" smooth="yes"/>
      <point x="363" y="458"/>
      <point x="409" y="435"/>
      <point x="409" y="376" type="curve"/>
      <point x="376" y="234" type="line" smooth="yes"/>
      <point x="358" y="155"/>
      <point x="270" y="55"/>
      <point x="211" y="55" type="curve" smooth="yes"/>
    </contour>
    <contour>
      <point x="424" y="10" type="move" name="ogonek"/>
    </contour>
    <contour>
      <point x="210" y="0" type="move" name="bottom"/>
    </contour>
    <contour>
      <point x="328" y="513" type="move" name="top"/>
    </contour>
  </outline>
</glyph>
<glyph name="b" format="1">
  <advance width="546"/>
  <unicode hex="0062"/>
  <outline>
    <contour>
      <point x="399" y="-8"/>
      <point x="518" y="168"/>
      <point x="518" y="328" type="curve" smooth="yes"/>
      <point x="518" y="429"/>
      <point x="480" y="521"/>
      <point x="353" y="521" type="curve" smooth="yes"/>
      <point x="298" y="521"/>
      <point x="225" y="479"/>
      <point x="201" y="432" type="curve"/>
      <point x="200" y="432" type="line"/>
      <point x="263" y="699" type="line"/>
      <point x="263" y="702"/>
      <point x="264" y="704"/>
      <point x="264" y="706" type="curve" smooth="yes"/>
      <point x="264" y="716"/>
      <point x="258" y="721"/>
      <point x="246" y="721" type="curve" smooth="yes"/>
      <point x="204" y="721" type="line" smooth="yes"/>
      <point x="189" y="721"/>
      <point x="180" y="714"/>
      <point x="177" y="699" type="curve" smooth="yes"/>
      <point x="21" y="22" type="line" smooth="yes"/>
      <point x="20" y="20"/>
      <point x="20" y="17"/>
      <point x="20" y="14" type="curve" smooth="yes"/>
      <point x="20" y="5"/>
      <point x="26" y="0"/>
      <point x="38" y="0" type="curve" smooth="yes"/>
      <point x="79" y="0" type="line" smooth="yes"/>
      <point x="90" y="0"/>
      <point x="98" y="7"/>
      <point x="103" y="22" type="curve" smooth="yes"/>
      <point x="115" y="58" type="line"/>
      <point x="146" y="15"/>
      <point x="177" y="-8"/>
      <point x="254" y="-8" type="curve" smooth="yes"/>
    </contour>
    <contour>
      <point x="213" y="55"/>
      <point x="185" y="61"/>
      <point x="166" y="74" type="curve" smooth="yes"/>
      <point x="149" y="85"/>
      <point x="138" y="108"/>
      <point x="134" y="142" type="curve"/>
      <point x="166" y="278" type="line" smooth="yes"/>
      <point x="186" y="362"/>
      <point x="266" y="458"/>
      <point x="328" y="458" type="curve" smooth="yes"/>
      <point x="400" y="458"/>
      <point x="427" y="401"/>
      <point x="427" y="331" type="curve" smooth="yes"/>
      <point x="427" y="185"/>
      <point x="346" y="55"/>
      <point x="248" y="55" type="curve" smooth="yes"/>
    </contour>
    <contour>
      <point x="332" y="513" type="move" name="top"/>
    </contour>
    <contour>
      <point x="214" y="0" type="move" name="bottom"/>
    </contour>
  </outline>
</glyph>
<glyph name="c" format="1">
  <advance width="501"/>
  <unicode hex="0063"/>
  <outline>
    <contour>
      <point x="356" y="-8"/>
      <point x="421" y="68"/>
      <point x="432" y="85" type="curve" smooth="yes"/>
      <point x="435" y="89"/>
      <point x="437" y="94"/>
      <point x="437" y="99" type="curve" smooth="yes"/>
      <point x="437" y="104"/>
      <point x="435" y="108"/>
      <point x="430" y="112" type="curve" smooth="yes"/>
      <point x="399" y="135" type="line" smooth="yes"/>
      <point x="396" y="138"/>
      <point x="392" y="139"/>
      <point x="389" y="139" type="curve" smooth="yes"/>
      <point x="371" y="139"/>
      <point x="338" y="55"/>
      <point x="245" y="55" type="curve" smooth="yes"/>
      <point x="158" y="55"/>
      <point x="124" y="110"/>
      <point x="124" y="189" type="curve" smooth="yes"/>
      <point x="124" y="367"/>
      <point x="217" y="458"/>
      <point x="316" y="458" type="curve" smooth="yes"/>
      <point x="417" y="458"/>
      <point x="415" y="387"/>
      <point x="436" y="387" type="curve" smooth="yes"/>
      <point x="439" y="387"/>
      <point x="442" y="388"/>
      <point x="445" y="390" type="curve" smooth="yes"/>
      <point x="477" y="407" type="line" smooth="yes"/>
      <point x="484" y="411"/>
      <point x="487" y="416"/>
      <point x="487" y="422" type="curve" smooth="yes"/>
      <point x="487" y="444"/>
      <point x="458" y="476"/>
      <point x="435" y="493" type="curve"/>
      <point x="414" y="512"/>
      <point x="376" y="521"/>
      <point x="322" y="521" type="curve" smooth="yes"/>
      <point x="236" y="521"/>
      <point x="166" y="488"/>
      <point x="113" y="423" type="curve" smooth="yes"/>
      <point x="60" y="358"/>
      <point x="33" y="282"/>
      <point x="33" y="196" type="curve" smooth="yes"/>
      <point x="33" y="103"/>
      <point x="80" y="-8"/>
      <point x="238" y="-8" type="curve" smooth="yes"/>
    </contour>
    <contour>
      <point x="310" y="513" type="move" name="top"/>
    </contour>
    <contour>
      <point x="192" y="0" type="move" name="bottom"/>
    </contour>
  </outline>
</glyph>
<glyph name="d" format="1">
  <advance width="546"/>
  <unicode hex="0064"/>
  <outline>
    <contour>
      <point x="254" y="-8"/>
      <point x="326" y="34"/>
      <point x="351" y="81" type="curve"/>
      <point x="352" y="81" type="line"/>
      <point x="341" y="22" type="line" smooth="yes"/>
      <point x="341" y="20"/>
      <point x="340" y="18"/>
      <point x="340" y="16" type="curve" smooth="yes"/>
      <point x="340" y="5"/>
      <point x="345" y="0"/>
      <point x="355" y="0" type="curve" smooth="yes"/>
      <point x="396" y="0" type="line" smooth="yes"/>
      <point x="411" y="0"/>
      <point x="419" y="7"/>
      <point x="423" y="22" type="curve" smooth="yes"/>
      <point x="580" y="699" type="line"/>
      <point x="580" y="702"/>
      <point x="581" y="704"/>
      <point x="581" y="706" type="curve" smooth="yes"/>
      <point x="581" y="716"/>
      <point x="575" y="721"/>
      <point x="563" y="721" type="curve" smooth="yes"/>
      <point x="521" y="721" type="line" smooth="yes"/>
      <point x="505" y="721"/>
      <point x="497" y="714"/>
      <point x="494" y="699" type="curve" smooth="yes"/>
      <point x="444" y="485" type="line" smooth="yes"/>
      <point x="441" y="473"/>
      <point x="439" y="463"/>
      <point x="438" y="455" type="curve"/>
      <point x="405" y="499"/>
      <point x="371" y="521"/>
      <point x="298" y="521" type="curve" smooth="yes"/>
      <point x="227" y="521"/>
      <point x="165" y="486"/>
      <point x="113" y="415" type="curve" smooth="yes"/>
      <point x="60" y="344"/>
      <point x="34" y="268"/>
      <point x="34" y="185" type="curve" smooth="yes"/>
      <point x="34" y="81"/>
      <point x="74" y="-8"/>
      <point x="200" y="-8" type="curve" smooth="yes"/>
    </contour>
    <contour>
      <point x="188" y="55"/>
      <point x="162" y="68"/>
      <point x="147" y="93" type="curve" smooth="yes"/>
      <point x="132" y="118"/>
      <point x="125" y="147"/>
      <point x="125" y="182" type="curve" smooth="yes"/>
      <point x="125" y="320"/>
      <point x="203" y="458"/>
      <point x="305" y="458" type="curve" smooth="yes"/>
      <point x="372" y="458"/>
      <point x="412" y="438"/>
      <point x="418" y="371" type="curve"/>
      <point x="386" y="234" type="line" smooth="yes"/>
      <point x="369" y="160"/>
      <point x="293" y="55"/>
      <point x="224" y="55" type="curve" smooth="yes"/>
    </contour>
    <contour>
      <point x="214" y="0" type="move" name="bottom"/>
    </contour>
    <contour>
      <point x="332" y="513" type="move" name="top"/>
    </contour>
    <contour>
      <point x="578" y="700" type="move" name="topright"/>
    </contour>
    <contour>
      <point x="273" y="257" type="move" name="center"/>
    </contour>
  </outline>
</glyph>
<glyph name="e" format="1">
  <advance width="526"/>
  <unicode hex="0065"/>
  <outline>
    <contour>
      <point x="363" y="-8"/>
      <point x="423" y="50"/>
      <point x="436" y="71" type="curve" smooth="yes"/>
      <point x="441" y="78"/>
      <point x="443" y="84"/>
      <point x="443" y="90" type="curve" smooth="yes"/>
      <point x="443" y="93"/>
      <point x="442" y="96"/>
      <point x="439" y="99" type="curve" smooth="yes"/>
      <point x="410" y="124" type="line" smooth="yes"/>
      <point x="407" y="127"/>
      <point x="404" y="128"/>
      <point x="400" y="128" type="curve" smooth="yes"/>
      <point x="385" y="128"/>
      <point x="356" y="56"/>
      <point x="243" y="56" type="curve" smooth="yes"/>
      <point x="148" y="56"/>
      <point x="124" y="117"/>
      <point x="124" y="175" type="curve"/>
      <point x="127" y="195" type="line"/>
      <point x="247" y="219" type="line" smooth="yes"/>
      <point x="379" y="245"/>
      <point x="487" y="281"/>
      <point x="487" y="380" type="curve" smooth="yes"/>
      <point x="487" y="452"/>
      <point x="419" y="521"/>
      <point x="318" y="521" type="curve" smooth="yes"/>
      <point x="231" y="521"/>
      <point x="161" y="491"/>
      <point x="109" y="430" type="curve" smooth="yes"/>
      <point x="58" y="369"/>
      <point x="33" y="290"/>
      <point x="33" y="193" type="curve" smooth="yes"/>
      <point x="33" y="91"/>
      <point x="89" y="-8"/>
      <point x="231" y="-8" type="curve" smooth="yes"/>
    </contour>
    <contour>
      <point x="160" y="410"/>
      <point x="229" y="458"/>
      <point x="302" y="458" type="curve" smooth="yes"/>
      <point x="351" y="458"/>
      <point x="401" y="429"/>
      <point x="401" y="384" type="curve" smooth="yes"/>
      <point x="401" y="356"/>
      <point x="384" y="334"/>
      <point x="350" y="318" type="curve"/>
      <point x="315" y="303"/>
      <point x="274" y="290"/>
      <point x="229" y="282" type="curve" smooth="yes"/>
      <point x="129" y="263" type="line"/>
    </contour>
    <contour>
      <point x="414" y="10" type="move" name="ogonek"/>
    </contour>
    <contour>
      <point x="204" y="0" type="move" name="bottom"/>
    </contour>
    <contour>
      <point x="322" y="513" type="move" name="top"/>
    </contour>
  </outline>
</glyph>
<glyph name="f" format="1">
  <advance width="318"/>
  <unicode hex="0066"/>
  <outline>
    <contour>
      <point x="62" y="-195" type="line" smooth="yes"/>
      <point x="77" y="-195"/>
      <point x="84" y="-188"/>
      <point x="88" y="-173" type="curve" smooth="yes"/>
      <point x="232" y="448" type="line"/>
      <point x="321" y="448" type="line" smooth="yes"/>
      <point x="336" y="448"/>
      <point x="345" y="454"/>
      <point x="347" y="465" type="curve" smooth="yes"/>
      <point x="354" y="496" type="line"/>
      <point x="354" y="497"/>
      <point x="354" y="499"/>
      <point x="354" y="500" type="curve" smooth="yes"/>
      <point x="354" y="508"/>
      <point x="348" y="513"/>
      <point x="336" y="513" type="curve" smooth="yes"/>
      <point x="247" y="513" type="line"/>
      <point x="260" y="571" type="line" smooth="yes"/>
      <point x="278" y="653"/>
      <point x="312" y="666"/>
      <point x="358" y="666" type="curve" smooth="yes"/>
      <point x="380" y="666"/>
      <point x="399" y="661"/>
      <point x="415" y="652" type="curve"/>
      <point x="419" y="651"/>
      <point x="422" y="650"/>
      <point x="423" y="650" type="curve" smooth="yes"/>
      <point x="426" y="650"/>
      <point x="430" y="652"/>
      <point x="433" y="656" type="curve" smooth="yes"/>
      <point x="458" y="695" type="line" smooth="yes"/>
      <point x="459" y="697"/>
      <point x="460" y="700"/>
      <point x="460" y="703" type="curve" smooth="yes"/>
      <point x="460" y="724"/>
      <point x="388" y="729"/>
      <point x="355" y="729" type="curve" smooth="yes"/>
      <point x="277" y="729"/>
      <point x="203" y="692"/>
      <point x="178" y="585" type="curve" smooth="yes"/>
      <point x="161" y="513" type="line"/>
      <point x="108" y="513" type="line" smooth="yes"/>
      <point x="93" y="513"/>
      <point x="85" y="507"/>
      <point x="83" y="496" type="curve" smooth="yes"/>
      <point x="76" y="465" type="line" smooth="yes"/>
      <point x="75" y="463"/>
      <point x="75" y="461"/>
      <point x="75" y="460" type="curve" smooth="yes"/>
      <point x="75" y="452"/>
      <point x="81" y="448"/>
      <point x="94" y="448" type="curve" smooth="yes"/>
      <point x="146" y="448" type="line"/>
      <point x="2" y="-173" type="line" smooth="yes"/>
      <point x="1" y="-176"/>
      <point x="1" y="-178"/>
      <point x="1" y="-180" type="curve" smooth="yes"/>
      <point x="1" y="-190"/>
      <point x="7" y="-195"/>
      <point x="20" y="-195" type="curve" smooth="yes"/>
    </contour>
    <contour>
      <point x="258" y="700" type="move" name="top"/>
    </contour>
    <contour>
      <point x="100" y="0" type="move" name="bottom"/>
    </contour>
  </outline>
</glyph>
<glyph name="g" format="1">
  <advance width="546"/>
  <unicode hex="0067"/>
  <outline>
    <contour>
      <point x="340" y="-204"/>
      <point x="398" y="-135"/>
      <point x="428" y="-4" type="curve" smooth="yes"/>
      <point x="542" y="491" type="line"/>
      <point x="542" y="494"/>
      <point x="543" y="496"/>
      <point x="543" y="498" type="curve" smooth="yes"/>
      <point x="543" y="508"/>
      <point x="537" y="513"/>
      <point x="525" y="513" type="curve" smooth="yes"/>
      <point x="484" y="513" type="line" smooth="yes"/>
      <point x="471" y="513"/>
      <point x="465" y="506"/>
      <point x="460" y="491" type="curve" smooth="yes"/>
      <point x="448" y="455" type="line"/>
      <point x="411" y="502"/>
      <point x="382" y="521"/>
      <point x="308" y="521" type="curve" smooth="yes"/>
      <point x="237" y="521"/>
      <point x="175" y="486"/>
      <point x="123" y="415" type="curve" smooth="yes"/>
      <point x="70" y="344"/>
      <point x="44" y="268"/>
      <point x="44" y="185" type="curve" smooth="yes"/>
      <point x="44" y="87"/>
      <point x="80" y="-8"/>
      <point x="210" y="-8" type="curve" smooth="yes"/>
      <point x="264" y="-8"/>
      <point x="335" y="32"/>
      <point x="361" y="81" type="curve"/>
      <point x="362" y="81" type="line"/>
      <point x="344" y="5" type="line" smooth="yes"/>
      <point x="318" y="-104"/>
      <point x="261" y="-140"/>
      <point x="183" y="-140" type="curve" smooth="yes"/>
      <point x="112" y="-140"/>
      <point x="77" y="-121"/>
      <point x="56" y="-97" type="curve" smooth="yes"/>
      <point x="49" y="-90"/>
      <point x="44" y="-87"/>
      <point x="40" y="-87" type="curve" smooth="yes"/>
      <point x="35" y="-87"/>
      <point x="32" y="-89"/>
      <point x="29" y="-93" type="curve"/>
      <point x="4" y="-116" type="line"/>
      <point x="0" y="-121"/>
      <point x="-2" y="-126"/>
      <point x="-2" y="-131" type="curve" smooth="yes"/>
      <point x="-2" y="-175"/>
      <point x="78" y="-204"/>
      <point x="168" y="-204" type="curve" smooth="yes"/>
    </contour>
    <contour>
      <point x="198" y="55"/>
      <point x="172" y="68"/>
      <point x="157" y="93" type="curve" smooth="yes"/>
      <point x="142" y="119"/>
      <point x="135" y="149"/>
      <point x="135" y="182" type="curve" smooth="yes"/>
      <point x="135" y="320"/>
      <point x="213" y="458"/>
      <point x="315" y="458" type="curve" smooth="yes"/>
      <point x="380" y="458"/>
      <point x="422" y="440"/>
      <point x="428" y="371" type="curve"/>
      <point x="396" y="234" type="line" smooth="yes"/>
      <point x="377" y="153"/>
      <point x="300" y="55"/>
      <point x="234" y="55" type="curve" smooth="yes"/>
    </contour>
    <contour>
      <point x="332" y="513" type="move" name="top"/>
    </contour>
    <contour>
      <point x="214" y="0" type="move" name="bottom"/>
    </contour>
  </outline>
</glyph>
<glyph name="h" format="1">
  <advance width="551"/>
  <unicode hex="0068"/>
  <outline>
    <contour>
      <point x="80" y="0" type="line" smooth="yes"/>
      <point x="95" y="0"/>
      <point x="102" y="7"/>
      <point x="106" y="22" type="curve" smooth="yes"/>
      <point x="164" y="271" type="line" smooth="yes"/>
      <point x="186" y="368"/>
      <point x="260" y="458"/>
      <point x="336" y="458" type="curve" smooth="yes"/>
      <point x="390" y="458"/>
      <point x="425" y="442"/>
      <point x="425" y="387" type="curve" smooth="yes"/>
      <point x="425" y="366"/>
      <point x="422" y="340"/>
      <point x="415" y="311" type="curve" smooth="yes"/>
      <point x="348" y="22" type="line" smooth="yes"/>
      <point x="347" y="20"/>
      <point x="347" y="17"/>
      <point x="347" y="14" type="curve" smooth="yes"/>
      <point x="347" y="5"/>
      <point x="353" y="0"/>
      <point x="365" y="0" type="curve" smooth="yes"/>
      <point x="407" y="0" type="line" smooth="yes"/>
      <point x="420" y="0"/>
      <point x="430" y="7"/>
      <point x="434" y="22" type="curve" smooth="yes"/>
      <point x="506" y="334" type="line" smooth="yes"/>
      <point x="512" y="358"/>
      <point x="514" y="380"/>
      <point x="514" y="398" type="curve" smooth="yes"/>
      <point x="514" y="476"/>
      <point x="471" y="521"/>
      <point x="382" y="521" type="curve" smooth="yes"/>
      <point x="306" y="521"/>
      <point x="241" y="481"/>
      <point x="203" y="432" type="curve"/>
      <point x="201" y="432" type="line"/>
      <point x="202" y="437"/>
      <point x="204" y="446"/>
      <point x="208" y="461" type="curve" smooth="yes"/>
      <point x="263" y="699" type="line"/>
      <point x="263" y="702"/>
      <point x="264" y="704"/>
      <point x="264" y="706" type="curve" smooth="yes"/>
      <point x="264" y="716"/>
      <point x="258" y="721"/>
      <point x="246" y="721" type="curve" smooth="yes"/>
      <point x="204" y="721" type="line" smooth="yes"/>
      <point x="189" y="721"/>
      <point x="180" y="714"/>
      <point x="177" y="699" type="curve" smooth="yes"/>
      <point x="21" y="22" type="line" smooth="yes"/>
      <point x="20" y="20"/>
      <point x="20" y="17"/>
      <point x="20" y="14" type="curve" smooth="yes"/>
      <point x="20" y="5"/>
      <point x="26" y="0"/>
      <point x="38" y="0" type="curve" smooth="yes"/>
    </contour>
    <contour>
      <point x="276" y="257" type="move" name="center"/>
    </contour>
    <contour>
      <point x="217" y="0" type="move" name="bottom"/>
    </contour>
    <contour>
      <point x="220" y="700" type="move" name="top"/>
    </contour>
  </outline>
</glyph>
<glyph name="k" format="1">
  <advance width="490"/>
  <unicode hex="006B"/>
  <outline>
    <contour>
      <point x="80" y="0" type="line" smooth="yes"/>
      <point x="95" y="0"/>
      <point x="102" y="7"/>
      <point x="106" y="22" type="curve" smooth="yes"/>
      <point x="135" y="143" type="line"/>
      <point x="238" y="240" type="line"/>
      <point x="329" y="18" type="line" smooth="yes"/>
      <point x="334" y="6"/>
      <point x="340" y="0"/>
      <point x="352" y="0" type="curve" smooth="yes"/>
      <point x="392" y="0" type="line" smooth="yes"/>
      <point x="407" y="0"/>
      <point x="414" y="5"/>
      <point x="414" y="15" type="curve" smooth="yes"/>
      <point x="414" y="20"/>
      <point x="413" y="24"/>
      <point x="411" y="29" type="curve" smooth="yes"/>
      <point x="300" y="298" type="line"/>
      <point x="500" y="484" type="line" smooth="yes"/>
      <point x="509" y="492"/>
      <point x="514" y="499"/>
      <point x="514" y="504" type="curve" smooth="yes"/>
      <point x="514" y="510"/>
      <point x="507" y="513"/>
      <point x="493" y="513" type="curve" smooth="yes"/>
      <point x="439" y="513" type="line" smooth="yes"/>
      <point x="430" y="513"/>
      <point x="420" y="509"/>
      <point x="410" y="500" type="curve" smooth="yes"/>
      <point x="163" y="269" type="line"/>
      <point x="263" y="699" type="line"/>
      <point x="263" y="702"/>
      <point x="264" y="704"/>
      <point x="264" y="706" type="curve" smooth="yes"/>
      <point x="264" y="716"/>
      <point x="258" y="721"/>
      <point x="246" y="721" type="curve" smooth="yes"/>
      <point x="204" y="721" type="line" smooth="yes"/>
      <point x="189" y="721"/>
      <point x="180" y="714"/>
      <point x="177" y="699" type="curve" smooth="yes"/>
      <point x="21" y="22" type="line" smooth="yes"/>
      <point x="20" y="20"/>
      <point x="20" y="17"/>
      <point x="20" y="14" type="curve" smooth="yes"/>
      <point x="20" y="5"/>
      <point x="26" y="0"/>
      <point x="38" y="0" type="curve" smooth="yes"/>
    </contour>
    <contour>
      <point x="304" y="513" type="move" name="top"/>
    </contour>
    <contour>
      <point x="186" y="0" type="move" name="bottom"/>
    </contour>
  </outline>
</glyph>
<glyph name="l" format="1">
  <advance width="225"/>
  <unicode hex="006C"/>
  <outline>
    <contour>
      <point x="80" y="0" type="line" smooth="yes"/>
      <point x="95" y="0"/>
      <point x="102" y="7"/>
      <point x="106" y="22" type="curve" smooth="yes"/>
      <point x="266" y="712" type="line" smooth="yes"/>
      <point x="267" y="715"/>
      <point x="267" y="717"/>
      <point x="267" y="719" type="curve" smooth="yes"/>
      <point x="267" y="725"/>
      <point x="263" y="729"/>
      <point x="255" y="729" type="curve" smooth="yes"/>
      <point x="238" y="729" type="line" smooth="yes"/>
      <point x="235" y="729"/>
      <point x="228" y="723"/>
      <point x="219" y="712" type="curve" smooth="yes"/>
      <point x="170" y="650" type="line" smooth="yes"/>
      <point x="165" y="643"/>
      <point x="163" y="637"/>
      <point x="162" y="631" type="curve" smooth="yes"/>
      <point x="21" y="22" type="line" smooth="yes"/>
      <point x="20" y="20"/>
      <point x="20" y="17"/>
      <point x="20" y="14" type="curve" smooth="yes"/>
      <point x="20" y="5"/>
      <point x="26" y="0"/>
      <point x="38" y="0" type="curve" smooth="yes"/>
    </contour>
    <contour>
      <point x="54" y="0" type="move" name="bottom"/>
    </contour>
    <contour>
      <point x="172" y="513" type="move" name="top"/>
    </contour>
    <contour>
      <point x="284" y="700" type="move" name="topright"/>
    </contour>
    <contour>
      <point x="113" y="257" type="move" name="center"/>
    </contour>
  </outline>
</glyph>
<glyph name="m" format="1">
  <advance width="819"/>
  <unicode hex="006D"/>
  <outline>
    <contour>
      <point x="80" y="0" type="line" smooth="yes"/>
      <point x="95" y="0"/>
      <point x="102" y="7"/>
      <point x="106" y="22" type="curve" smooth="yes"/>
      <point x="164" y="271" type="line" smooth="yes"/>
      <point x="186" y="368"/>
      <point x="265" y="458"/>
      <point x="321" y="458" type="curve" smooth="yes"/>
      <point x="373" y="458"/>
      <point x="397" y="440"/>
      <point x="397" y="395" type="curve"/>
      <point x="398" y="371"/>
      <point x="392" y="341"/>
      <point x="384" y="306" type="curve" smooth="yes"/>
      <point x="318" y="22" type="line" smooth="yes"/>
      <point x="317" y="19"/>
      <point x="317" y="17"/>
      <point x="317" y="15" type="curve" smooth="yes"/>
      <point x="317" y="5"/>
      <point x="323" y="0"/>
      <point x="335" y="0" type="curve" smooth="yes"/>
      <point x="377" y="0" type="line" smooth="yes"/>
      <point x="392" y="0"/>
      <point x="400" y="7"/>
      <point x="404" y="22" type="curve" smooth="yes"/>
      <point x="462" y="271" type="line" smooth="yes"/>
      <point x="483" y="362"/>
      <point x="563" y="458"/>
      <point x="619" y="458" type="curve" smooth="yes"/>
      <point x="672" y="458"/>
      <point x="695" y="439"/>
      <point x="695" y="393" type="curve"/>
      <point x="696" y="370"/>
      <point x="690" y="341"/>
      <point x="682" y="306" type="curve" smooth="yes"/>
      <point x="616" y="22" type="line" smooth="yes"/>
      <point x="615" y="19"/>
      <point x="615" y="17"/>
      <point x="615" y="15" type="curve" smooth="yes"/>
      <point x="615" y="5"/>
      <point x="621" y="0"/>
      <point x="633" y="0" type="curve" smooth="yes"/>
      <point x="675" y="0" type="line" smooth="yes"/>
      <point x="690" y="0"/>
      <point x="698" y="7"/>
      <point x="702" y="22" type="curve" smooth="yes"/>
      <point x="774" y="334" type="line" smooth="yes"/>
      <point x="780" y="358"/>
      <point x="782" y="379"/>
      <point x="782" y="396" type="curve" smooth="yes"/>
      <point x="782" y="474"/>
      <point x="732" y="521"/>
      <point x="661" y="521" type="curve" smooth="yes"/>
      <point x="583" y="521"/>
      <point x="514" y="454"/>
      <point x="479" y="407" type="curve"/>
      <point x="478" y="407" type="line"/>
      <point x="478" y="462"/>
      <point x="438" y="521"/>
      <point x="363" y="521" type="curve" smooth="yes"/>
      <point x="304" y="521"/>
      <point x="237" y="476"/>
      <point x="203" y="432" type="curve"/>
      <point x="201" y="432" type="line"/>
      <point x="214" y="491" type="line"/>
      <point x="214" y="494"/>
      <point x="215" y="496"/>
      <point x="215" y="498" type="curve" smooth="yes"/>
      <point x="215" y="508"/>
      <point x="209" y="513"/>
      <point x="197" y="513" type="curve" smooth="yes"/>
      <point x="156" y="513" type="line" smooth="yes"/>
      <point x="141" y="513"/>
      <point x="132" y="506"/>
      <point x="129" y="491" type="curve" smooth="yes"/>
      <point x="21" y="22" type="line" smooth="yes"/>
      <point x="20" y="20"/>
      <point x="20" y="17"/>
      <point x="20" y="14" type="curve" smooth="yes"/>
      <point x="20" y="5"/>
      <point x="26" y="0"/>
      <point x="38" y="0" type="curve" smooth="yes"/>
    </contour>
    <contour>
      <point x="469" y="513" type="move" name="top"/>
    </contour>
    <contour>
      <point x="351" y="0" type="move" name="bottom"/>
    </contour>
  </outline>
</glyph>
<glyph name="n" format="1">
  <advance width="551"/>
  <unicode hex="006E"/>
  <outline>
    <contour>
      <point x="80" y="0" type="line" smooth="yes"/>
      <point x="95" y="0"/>
      <point x="102" y="7"/>
      <point x="106" y="22" type="curve" smooth="yes"/>
      <point x="164" y="271" type="line" smooth="yes"/>
      <point x="186" y="368"/>
      <point x="260" y="458"/>
      <point x="336" y="458" type="curve" smooth="yes"/>
      <point x="390" y="458"/>
      <point x="425" y="442"/>
      <point x="425" y="387" type="curve" smooth="yes"/>
      <point x="425" y="366"/>
      <point x="422" y="340"/>
      <point x="415" y="311" type="curve" smooth="yes"/>
      <point x="348" y="22" type="line" smooth="yes"/>
      <point x="347" y="20"/>
      <point x="347" y="17"/>
      <point x="347" y="14" type="curve" smooth="yes"/>
      <point x="347" y="5"/>
      <point x="353" y="0"/>
      <point x="365" y="0" type="curve" smooth="yes"/>
      <point x="407" y="0" type="line" smooth="yes"/>
      <point x="420" y="0"/>
      <point x="430" y="7"/>
      <point x="434" y="22" type="curve" smooth="yes"/>
      <point x="506" y="334" type="line" smooth="yes"/>
      <point x="512" y="358"/>
      <point x="514" y="380"/>
      <point x="514" y="398" type="curve" smooth="yes"/>
      <point x="514" y="476"/>
      <point x="471" y="521"/>
      <point x="382" y="521" type="curve" smooth="yes"/>
      <point x="306" y="521"/>
      <point x="241" y="481"/>
      <point x="203" y="432" type="curve"/>
      <point x="201" y="432" type="line"/>
      <point x="214" y="491" type="line"/>
      <point x="214" y="494"/>
      <point x="215" y="496"/>
      <point x="215" y="498" type="curve" smooth="yes"/>
      <point x="215" y="508"/>
      <point x="209" y="513"/>
      <point x="197" y="513" type="curve" smooth="yes"/>
      <point x="156" y="513" type="line" smooth="yes"/>
      <point x="141" y="513"/>
      <point x="132" y="506"/>
      <point x="129" y="491" type="curve" smooth="yes"/>
      <point x="21" y="22" type="line" smooth="yes"/>
      <point x="20" y="20"/>
      <point x="20" y="17"/>
      <point x="20" y="14" type="curve" smooth="yes"/>
      <point x="20" y="5"/>
      <point x="26" y="0"/>
      <point x="38" y="0" type="curve" smooth="yes"/>
    </contour>
    <contour>
      <point x="335" y="513" type="move" name="top"/>
    </contour>
    <contour>
      <point x="217" y="0" type="move" name="bottom"/>
    </contour>
  </outline>
</glyph>
<glyph name="o" format="1">
  <advance width="561"/>
  <unicode hex="006F"/>
  <outline>
    <contour>
      <point x="415" y="-8"/>
      <point x="527" y="152"/>
      <point x="527" y="316" type="curve" smooth="yes"/>
      <point x="527" y="411"/>
      <point x="477" y="521"/>
      <point x="322" y="521" type="curve" smooth="yes"/>
      <point x="236" y="521"/>
      <point x="166" y="488"/>
      <point x="113" y="423" type="curve" smooth="yes"/>
      <point x="60" y="358"/>
      <point x="33" y="282"/>
      <point x="33" y="196" type="curve" smooth="yes"/>
      <point x="33" y="103"/>
      <point x="82" y="-8"/>
      <point x="238" y="-8" type="curve" smooth="yes"/>
    </contour>
    <contour>
      <point x="202" y="55"/>
      <point x="171" y="67"/>
      <point x="152" y="91" type="curve" smooth="yes"/>
      <point x="133" y="116"/>
      <point x="124" y="148"/>
      <point x="124" y="189" type="curve" smooth="yes"/>
      <point x="124" y="365"/>
      <point x="217" y="458"/>
      <point x="316" y="458" type="curve" smooth="yes"/>
      <point x="401" y="458"/>
      <point x="437" y="402"/>
      <point x="437" y="324" type="curve" smooth="yes"/>
      <point x="437" y="153"/>
      <point x="346" y="55"/>
      <point x="245" y="55" type="curve" smooth="yes"/>
    </contour>
    <contour>
      <point x="222" y="0" type="move" name="bottom"/>
    </contour>
    <contour>
      <point x="446" y="10" type="move" name="ogonek"/>
    </contour>
    <contour>
      <point x="340" y="513" type="move" name="top"/>
    </contour>
    <contour>
      <point x="600" y="513" type="move" name="topright"/>
    </contour>
    <contour>
      <point x="281" y="257" type="move" name="center"/>
    </contour>
  </outline>
</glyph>
<glyph name="p" format="1">
  <advance width="546"/>
  <unicode hex="0070"/>
  <outline>
    <contour>
      <point x="35" y="-195" type="line" smooth="yes"/>
      <point x="48" y="-195"/>
      <point x="58" y="-188"/>
      <point x="62" y="-173" type="curve" smooth="yes"/>
      <point x="114" y="58" type="line"/>
      <point x="115" y="58" type="line"/>
      <point x="146" y="15"/>
      <point x="177" y="-8"/>
      <point x="254" y="-8" type="curve" smooth="yes"/>
      <point x="399" y="-8"/>
      <point x="518" y="168"/>
      <point x="518" y="328" type="curve" smooth="yes"/>
      <point x="518" y="429"/>
      <point x="480" y="521"/>
      <point x="353" y="521" type="curve" smooth="yes"/>
      <point x="298" y="521"/>
      <point x="225" y="479"/>
      <point x="201" y="432" type="curve"/>
      <point x="200" y="432" type="line"/>
      <point x="211" y="491" type="line" smooth="yes"/>
      <point x="211" y="493"/>
      <point x="211" y="495"/>
      <point x="211" y="497" type="curve" smooth="yes"/>
      <point x="211" y="508"/>
      <point x="206" y="513"/>
      <point x="197" y="513" type="curve" smooth="yes"/>
      <point x="156" y="513" type="line" smooth="yes"/>
      <point x="141" y="513"/>
      <point x="132" y="506"/>
      <point x="129" y="491" type="curve" smooth="yes"/>
      <point x="-24" y="-173" type="line" smooth="yes"/>
      <point x="-25" y="-175"/>
      <point x="-25" y="-178"/>
      <point x="-25" y="-181" type="curve" smooth="yes"/>
      <point x="-25" y="-190"/>
      <point x="-19" y="-195"/>
      <point x="-7" y="-195" type="curve" smooth="yes"/>
    </contour>
    <contour>
      <point x="213" y="55"/>
      <point x="185" y="61"/>
      <point x="166" y="74" type="curve" smooth="yes"/>
      <point x="149" y="85"/>
      <point x="138" y="108"/>
      <point x="134" y="142" type="curve"/>
      <point x="166" y="278" type="line" smooth="yes"/>
      <point x="186" y="362"/>
      <point x="266" y="458"/>
      <point x="328" y="458" type="curve" smooth="yes"/>
      <point x="400" y="458"/>
      <point x="427" y="401"/>
      <point x="427" y="331" type="curve" smooth="yes"/>
      <point x="427" y="185"/>
      <point x="346" y="55"/>
      <point x="248" y="55" type="curve" smooth="yes"/>
    </contour>
    <contour>
      <point x="332" y="513" type="move" name="top"/>
    </contour>
    <contour>
      <point x="214" y="0" type="move" name="bottom"/>
    </contour>
  </outline>
</glyph>
<glyph name="q" format="1">
  <advance width="546"/>
  <unicode hex="0071"/>
  <outline>
    <contour>
      <point x="352" y="-195" type="line" smooth="yes"/>
      <point x="367" y="-195"/>
      <point x="374" y="-188"/>
      <point x="378" y="-173" type="curve" smooth="yes"/>
      <point x="532" y="491" type="line"/>
      <point x="532" y="494"/>
      <point x="533" y="496"/>
      <point x="533" y="498" type="curve" smooth="yes"/>
      <point x="533" y="508"/>
      <point x="527" y="513"/>
      <point x="515" y="513" type="curve" smooth="yes"/>
      <point x="474" y="513" type="line" smooth="yes"/>
      <point x="461" y="513"/>
      <point x="455" y="506"/>
      <point x="450" y="491" type="curve" smooth="yes"/>
      <point x="438" y="455" type="line"/>
      <point x="405" y="499"/>
      <point x="371" y="521"/>
      <point x="298" y="521" type="curve" smooth="yes"/>
      <point x="227" y="521"/>
      <point x="165" y="486"/>
      <point x="113" y="415" type="curve" smooth="yes"/>
      <point x="60" y="344"/>
      <point x="34" y="268"/>
      <point x="34" y="185" type="curve" smooth="yes"/>
      <point x="34" y="81"/>
      <point x="74" y="-8"/>
      <point x="200" y="-8" type="curve" smooth="yes"/>
      <point x="254" y="-8"/>
      <point x="326" y="34"/>
      <point x="351" y="81" type="curve"/>
      <point x="352" y="81" type="line"/>
      <point x="292" y="-173" type="line" smooth="yes"/>
      <point x="291" y="-176"/>
      <point x="291" y="-178"/>
      <point x="291" y="-180" type="curve" smooth="yes"/>
      <point x="291" y="-190"/>
      <point x="297" y="-195"/>
      <point x="310" y="-195" type="curve" smooth="yes"/>
    </contour>
    <contour>
      <point x="188" y="55"/>
      <point x="162" y="68"/>
      <point x="147" y="93" type="curve" smooth="yes"/>
      <point x="132" y="118"/>
      <point x="125" y="147"/>
      <point x="125" y="182" type="curve" smooth="yes"/>
      <point x="125" y="320"/>
      <point x="203" y="458"/>
      <point x="305" y="458" type="curve" smooth="yes"/>
      <point x="372" y="458"/>
      <point x="412" y="438"/>
      <point x="418" y="371" type="curve"/>
      <point x="386" y="234" type="line" smooth="yes"/>
      <point x="369" y="160"/>
      <point x="293" y="55"/>
      <point x="224" y="55" type="curve" smooth="yes"/>
    </contour>
    <contour>
      <point x="332" y="513" type="move" name="top"/>
    </contour>
    <contour>
      <point x="214" y="0" type="move" name="bottom"/>
    </contour>
  </outline>
</glyph>
<glyph name="r" format="1">
  <advance width="353"/>
  <unicode hex="0072"/>
  <outline>
    <contour>
      <point x="80" y="0" type="line" smooth="yes"/>
      <point x="95" y="0"/>
      <point x="102" y="7"/>
      <point x="106" y="22" type="curve" smooth="yes"/>
      <point x="159" y="246" type="line" smooth="yes"/>
      <point x="180" y="337"/>
      <point x="266" y="458"/>
      <point x="338" y="458" type="curve" smooth="yes"/>
      <point x="352" y="458"/>
      <point x="364" y="454"/>
      <point x="375" y="454" type="curve" smooth="yes"/>
      <point x="380" y="454"/>
      <point x="384" y="456"/>
      <point x="386" y="461" type="curve" smooth="yes"/>
      <point x="402" y="501" type="line" smooth="yes"/>
      <point x="403" y="503"/>
      <point x="403" y="505"/>
      <point x="403" y="507" type="curve" smooth="yes"/>
      <point x="403" y="517"/>
      <point x="386" y="521"/>
      <point x="357" y="521" type="curve" smooth="yes"/>
      <point x="292" y="521"/>
      <point x="246" y="488"/>
      <point x="198" y="413" type="curve"/>
      <point x="196" y="413" type="line"/>
      <point x="214" y="491" type="line"/>
      <point x="214" y="494"/>
      <point x="215" y="496"/>
      <point x="215" y="498" type="curve" smooth="yes"/>
      <point x="215" y="508"/>
      <point x="209" y="513"/>
      <point x="197" y="513" type="curve" smooth="yes"/>
      <point x="156" y="513" type="line" smooth="yes"/>
      <point x="141" y="513"/>
      <point x="132" y="506"/>
      <point x="129" y="491" type="curve" smooth="yes"/>
      <point x="21" y="22" type="line" smooth="yes"/>
      <point x="20" y="20"/>
      <point x="20" y="17"/>
      <point x="20" y="14" type="curve" smooth="yes"/>
      <point x="20" y="5"/>
      <point x="26" y="0"/>
      <point x="38" y="0" type="curve" smooth="yes"/>
    </contour>
    <contour>
      <point x="276" y="513" type="move" name="top"/>
    </contour>
    <contour>
      <point x="58" y="0" type="move" name="bottom"/>
    </contour>
  </outline>
</glyph>
<glyph name="s" format="1">
  <advance width="458"/>
  <unicode hex="0073"/>
  <outline>
    <contour>
      <point x="308" y="-8"/>
      <point x="407" y="32"/>
      <point x="407" y="145" type="curve" smooth="yes"/>
      <point x="407" y="241"/>
      <point x="356" y="245"/>
      <point x="222" y="309" type="curve"/>
      <point x="190" y="321"/>
      <point x="173" y="347"/>
      <point x="173" y="382" type="curve" smooth="yes"/>
      <point x="173" y="430"/>
      <point x="221" y="455"/>
      <point x="280" y="455" type="curve" smooth="yes"/>
      <point x="315" y="455"/>
      <point x="352" y="443"/>
      <point x="377" y="424" type="curve" smooth="yes"/>
      <point x="386" y="418"/>
      <point x="393" y="415"/>
      <point x="400" y="415" type="curve" smooth="yes"/>
      <point x="403" y="415"/>
      <point x="406" y="416"/>
      <point x="409" y="418" type="curve"/>
      <point x="433" y="446" type="line" smooth="yes"/>
      <point x="437" y="450"/>
      <point x="439" y="454"/>
      <point x="439" y="459" type="curve" smooth="yes"/>
      <point x="439" y="464"/>
      <point x="436" y="468"/>
      <point x="431" y="472" type="curve" smooth="yes"/>
      <point x="395" y="503"/>
      <point x="343" y="521"/>
      <point x="283" y="521" type="curve" smooth="yes"/>
      <point x="179" y="521"/>
      <point x="87" y="478"/>
      <point x="87" y="371" type="curve" smooth="yes"/>
      <point x="87" y="272"/>
      <point x="173" y="240"/>
      <point x="258" y="209" type="curve" smooth="yes"/>
      <point x="305" y="191"/>
      <point x="316" y="168"/>
      <point x="316" y="132" type="curve" smooth="yes"/>
      <point x="316" y="91"/>
      <point x="270" y="55"/>
      <point x="203" y="55" type="curve" smooth="yes"/>
      <point x="159" y="55"/>
      <point x="117" y="70"/>
      <point x="76" y="101" type="curve" smooth="yes"/>
      <point x="68" y="107"/>
      <point x="61" y="110"/>
      <point x="55" y="110" type="curve" smooth="yes"/>
      <point x="51" y="110"/>
      <point x="47" y="108"/>
      <point x="44" y="105" type="curve" smooth="yes"/>
      <point x="20" y="77" type="line" smooth="yes"/>
      <point x="17" y="74"/>
      <point x="16" y="71"/>
      <point x="16" y="67" type="curve" smooth="yes"/>
      <point x="16" y="41"/>
      <point x="85" y="-8"/>
      <point x="196" y="-8" type="curve" smooth="yes"/>
    </contour>
    <contour>
      <point x="288" y="513" type="move" name="top"/>
    </contour>
    <contour>
      <point x="170" y="0" type="move" name="bottom"/>
    </contour>
  </outline>
</glyph>
<glyph name="t" format="1">
  <advance width="370"/>
  <unicode hex="0074"/>
  <outline>
    <contour>
      <point x="228" y="-8"/>
      <point x="310" y="14"/>
      <point x="310" y="36" type="curve"/>
      <point x="296" y="75" type="line" smooth="yes"/>
      <point x="295" y="78"/>
      <point x="293" y="80"/>
      <point x="290" y="80" type="curve" smooth="yes"/>
      <point x="287" y="80"/>
      <point x="239" y="55"/>
      <point x="204" y="55" type="curve" smooth="yes"/>
      <point x="187" y="55"/>
      <point x="169" y="65"/>
      <point x="169" y="95" type="curve" smooth="yes"/>
      <point x="169" y="104"/>
      <point x="171" y="118"/>
      <point x="174" y="137" type="curve"/>
      <point x="246" y="448" type="line"/>
      <point x="350" y="448" type="line" smooth="yes"/>
      <point x="365" y="448"/>
      <point x="374" y="454"/>
      <point x="376" y="465" type="curve" smooth="yes"/>
      <point x="383" y="496" type="line"/>
      <point x="383" y="497"/>
      <point x="383" y="499"/>
      <point x="383" y="500" type="curve" smooth="yes"/>
      <point x="383" y="508"/>
      <point x="377" y="513"/>
      <point x="365" y="513" type="curve" smooth="yes"/>
      <point x="261" y="513" type="line"/>
      <point x="290" y="637" type="line" smooth="yes"/>
      <point x="290" y="639"/>
      <point x="290" y="641"/>
      <point x="290" y="642" type="curve" smooth="yes"/>
      <point x="290" y="650"/>
      <point x="286" y="654"/>
      <point x="279" y="654" type="curve" smooth="yes"/>
      <point x="262" y="654" type="line" smooth="yes"/>
      <point x="257" y="654"/>
      <point x="251" y="648"/>
      <point x="243" y="637" type="curve" smooth="yes"/>
      <point x="194" y="575" type="line" smooth="yes"/>
      <point x="190" y="569"/>
      <point x="187" y="563"/>
      <point x="185" y="557" type="curve" smooth="yes"/>
      <point x="175" y="513" type="line"/>
      <point x="117" y="513" type="line" smooth="yes"/>
      <point x="103" y="513"/>
      <point x="94" y="507"/>
      <point x="91" y="496" type="curve" smooth="yes"/>
      <point x="87" y="477"/>
      <point x="84" y="466"/>
      <point x="84" y="461" type="curve" smooth="yes"/>
      <point x="84" y="453"/>
      <point x="90" y="448"/>
      <point x="103" y="448" type="curve" smooth="yes"/>
      <point x="160" y="448" type="line"/>
      <point x="87" y="132" type="line" smooth="yes"/>
      <point x="83" y="115"/>
      <point x="81" y="100"/>
      <point x="81" y="85" type="curve" smooth="yes"/>
      <point x="81" y="25"/>
      <point x="118" y="-8"/>
      <point x="164" y="-8" type="curve" smooth="yes"/>
    </contour>
    <contour>
      <point x="126" y="0" type="move" name="bottom"/>
    </contour>
    <contour>
      <point x="244" y="513" type="move" name="top"/>
    </contour>
    <contour>
      <point x="317" y="721" type="move" name="topright"/>
    </contour>
    <contour>
      <point x="185" y="363" type="move" name="center"/>
    </contour>
  </outline>
</glyph>
<glyph name="u" format="1">
  <advance width="547"/>
  <unicode hex="0075"/>
  <outline>
    <contour>
      <point x="273" y="-8"/>
      <point x="335" y="38"/>
      <point x="371" y="81" type="curve"/>
      <point x="373" y="81" type="line"/>
      <point x="359" y="22" type="line" smooth="yes"/>
      <point x="358" y="20"/>
      <point x="358" y="17"/>
      <point x="358" y="14" type="curve" smooth="yes"/>
      <point x="358" y="5"/>
      <point x="364" y="0"/>
      <point x="376" y="0" type="curve" smooth="yes"/>
      <point x="417" y="0" type="line" smooth="yes"/>
      <point x="430" y="0"/>
      <point x="440" y="7"/>
      <point x="444" y="22" type="curve" smooth="yes"/>
      <point x="552" y="491" type="line" smooth="yes"/>
      <point x="553" y="494"/>
      <point x="553" y="496"/>
      <point x="553" y="499" type="curve" smooth="yes"/>
      <point x="553" y="508"/>
      <point x="547" y="513"/>
      <point x="535" y="513" type="curve" smooth="yes"/>
      <point x="493" y="513" type="line" smooth="yes"/>
      <point x="479" y="513"/>
      <point x="469" y="506"/>
      <point x="466" y="491" type="curve" smooth="yes"/>
      <point x="409" y="242" type="line"/>
      <point x="385" y="146"/>
      <point x="336" y="55"/>
      <point x="239" y="55" type="curve" smooth="yes"/>
      <point x="185" y="55"/>
      <point x="152" y="73"/>
      <point x="152" y="125" type="curve" smooth="yes"/>
      <point x="152" y="144"/>
      <point x="155" y="169"/>
      <point x="163" y="202" type="curve" smooth="yes"/>
      <point x="229" y="491" type="line"/>
      <point x="229" y="494"/>
      <point x="230" y="496"/>
      <point x="230" y="498" type="curve" smooth="yes"/>
      <point x="230" y="508"/>
      <point x="224" y="513"/>
      <point x="212" y="513" type="curve" smooth="yes"/>
      <point x="170" y="513" type="line" smooth="yes"/>
      <point x="155" y="513"/>
      <point x="146" y="506"/>
      <point x="143" y="491" type="curve" smooth="yes"/>
      <point x="71" y="179" type="line" smooth="yes"/>
      <point x="66" y="158"/>
      <point x="64" y="138"/>
      <point x="64" y="118" type="curve" smooth="yes"/>
      <point x="64" y="35"/>
      <point x="110" y="-8"/>
      <point x="192" y="-8" type="curve" smooth="yes"/>
    </contour>
    <contour>
      <point x="433" y="10" type="move" name="ogonek"/>
    </contour>
    <contour>
      <point x="333" y="513" type="move" name="top"/>
    </contour>
    <contour>
      <point x="586" y="513" type="move" name="topright"/>
    </contour>
    <contour>
      <point x="215" y="0" type="move" name="bottom"/>
    </contour>
  </outline>
</glyph>
<glyph name="v" format="1">
  <advance width="481"/>
  <unicode hex="0076"/>
  <outline>
    <contour>
      <point x="217" y="0" type="line" smooth="yes"/>
      <point x="228" y="0"/>
      <point x="238" y="10"/>
      <point x="250" y="30" type="curve" smooth="yes"/>
      <point x="517" y="489" type="line"/>
      <point x="520" y="496"/>
      <point x="522" y="501"/>
      <point x="522" y="504" type="curve" smooth="yes"/>
      <point x="522" y="510"/>
      <point x="518" y="513"/>
      <point x="509" y="513" type="curve" smooth="yes"/>
      <point x="451" y="513" type="line" smooth="yes"/>
      <point x="442" y="513"/>
      <point x="433" y="507"/>
      <point x="424" y="494" type="curve"/>
      <point x="216" y="117" type="line"/>
      <point x="200" y="80" type="line"/>
      <point x="198" y="80" type="line"/>
      <point x="197" y="99"/>
      <point x="197" y="130"/>
      <point x="193" y="171" type="curve" smooth="yes"/>
      <point x="164" y="494" type="line" smooth="yes"/>
      <point x="163" y="507"/>
      <point x="155" y="513"/>
      <point x="146" y="513" type="curve" smooth="yes"/>
      <point x="98" y="513" type="line" smooth="yes"/>
      <point x="85" y="513"/>
      <point x="79" y="507"/>
      <point x="79" y="495" type="curve" smooth="yes"/>
      <point x="79" y="489" type="line"/>
      <point x="133" y="30" type="line" smooth="yes"/>
      <point x="135" y="10"/>
      <point x="143" y="0"/>
      <point x="153" y="0" type="curve" smooth="yes"/>
    </contour>
    <contour>
      <point x="300" y="513" type="move" name="top"/>
    </contour>
    <contour>
      <point x="182" y="0" type="move" name="bottom"/>
    </contour>
  </outline>
</glyph>
<glyph name="w" format="1">
  <advance width="705"/>
  <unicode hex="0077"/>
  <outline>
    <contour>
      <point x="170" y="0" type="line" smooth="yes"/>
      <point x="183" y="0"/>
      <point x="194" y="10"/>
      <point x="204" y="30" type="curve" smooth="yes"/>
      <point x="361" y="353" type="line" smooth="yes"/>
      <point x="373" y="378"/>
      <point x="384" y="402"/>
      <point x="393" y="426" type="curve"/>
      <point x="394" y="426" type="line"/>
      <point x="392" y="413"/>
      <point x="391" y="397"/>
      <point x="391" y="376" type="curve" smooth="yes"/>
      <point x="391" y="369"/>
      <point x="392" y="361"/>
      <point x="392" y="353" type="curve" smooth="yes"/>
      <point x="400" y="30" type="line" smooth="yes"/>
      <point x="400" y="10"/>
      <point x="405" y="0"/>
      <point x="419" y="0" type="curve" smooth="yes"/>
      <point x="478" y="0" type="line" smooth="yes"/>
      <point x="490" y="0"/>
      <point x="501" y="10"/>
      <point x="511" y="30" type="curve" smooth="yes"/>
      <point x="738" y="489" type="line" smooth="yes"/>
      <point x="741" y="496"/>
      <point x="743" y="501"/>
      <point x="743" y="504" type="curve" smooth="yes"/>
      <point x="743" y="510"/>
      <point x="739" y="513"/>
      <point x="730" y="513" type="curve" smooth="yes"/>
      <point x="675" y="513" type="line" smooth="yes"/>
      <point x="665" y="513"/>
      <point x="655" y="507"/>
      <point x="649" y="494" type="curve" smooth="yes"/>
      <point x="482" y="127" type="line"/>
      <point x="462" y="83" type="line"/>
      <point x="460" y="83" type="line"/>
      <point x="460" y="115" type="line" smooth="yes"/>
      <point x="460" y="125"/>
      <point x="460" y="137"/>
      <point x="460" y="150" type="curve" smooth="yes"/>
      <point x="460" y="157"/>
      <point x="460" y="164"/>
      <point x="460" y="171" type="curve" smooth="yes"/>
      <point x="449" y="494" type="line"/>
      <point x="448" y="507"/>
      <point x="441" y="513"/>
      <point x="431" y="513" type="curve" smooth="yes"/>
      <point x="387" y="513" type="line" smooth="yes"/>
      <point x="376" y="513"/>
      <point x="367" y="507"/>
      <point x="361" y="494" type="curve" smooth="yes"/>
      <point x="201" y="171" type="line" smooth="yes"/>
      <point x="196" y="162"/>
      <point x="188" y="146"/>
      <point x="179" y="125" type="curve" smooth="yes"/>
      <point x="160" y="83" type="line"/>
      <point x="158" y="83" type="line"/>
      <point x="158" y="98"/>
      <point x="158" y="112"/>
      <point x="159" y="124" type="curve"/>
      <point x="161" y="494" type="line" smooth="yes"/>
      <point x="161" y="507"/>
      <point x="155" y="513"/>
      <point x="143" y="513" type="curve" smooth="yes"/>
      <point x="96" y="513" type="line" smooth="yes"/>
      <point x="83" y="513"/>
      <point x="76" y="505"/>
      <point x="77" y="489" type="curve" smooth="yes"/>
      <point x="92" y="30" type="line" smooth="yes"/>
      <point x="93" y="10"/>
      <point x="100" y="0"/>
      <point x="112" y="0" type="curve" smooth="yes"/>
    </contour>
    <contour>
      <point x="412" y="513" type="move" name="top"/>
    </contour>
    <contour>
      <point x="294" y="0" type="move" name="bottom"/>
    </contour>
  </outline>
</glyph>
<glyph name="x" format="1">
  <advance width="473"/>
  <unicode hex="0078"/>
  <outline>
    <contour>
      <point x="59" y="0" type="line" smooth="yes"/>
      <point x="72" y="0"/>
      <point x="81" y="4"/>
      <point x="88" y="13" type="curve" smooth="yes"/>
      <point x="253" y="210" type="line"/>
      <point x="336" y="13" type="line"/>
      <point x="339" y="4"/>
      <point x="346" y="0"/>
      <point x="359" y="0" type="curve" smooth="yes"/>
      <point x="397" y="0" type="line" smooth="yes"/>
      <point x="412" y="0"/>
      <point x="420" y="5"/>
      <point x="420" y="15" type="curve" smooth="yes"/>
      <point x="420" y="20"/>
      <point x="419" y="24"/>
      <point x="417" y="29" type="curve" smooth="yes"/>
      <point x="309" y="265" type="line"/>
      <point x="504" y="484" type="line" smooth="yes"/>
      <point x="511" y="491"/>
      <point x="515" y="498"/>
      <point x="515" y="504" type="curve" smooth="yes"/>
      <point x="515" y="510"/>
      <point x="509" y="513"/>
      <point x="498" y="513" type="curve" smooth="yes"/>
      <point x="444" y="513" type="line" smooth="yes"/>
      <point x="432" y="513"/>
      <point x="423" y="509"/>
      <point x="416" y="500" type="curve" smooth="yes"/>
      <point x="275" y="330" type="line"/>
      <point x="203" y="500" type="line"/>
      <point x="200" y="509"/>
      <point x="192" y="513"/>
      <point x="180" y="513" type="curve" smooth="yes"/>
      <point x="144" y="513" type="line" smooth="yes"/>
      <point x="129" y="513"/>
      <point x="121" y="508"/>
      <point x="121" y="498" type="curve" smooth="yes"/>
      <point x="121" y="493"/>
      <point x="122" y="489"/>
      <point x="125" y="484" type="curve" smooth="yes"/>
      <point x="219" y="276" type="line"/>
      <point x="-1" y="29" type="line" smooth="yes"/>
      <point x="-9" y="20"/>
      <point x="-13" y="14"/>
      <point x="-13" y="9" type="curve" smooth="yes"/>
      <point x="-13" y="3"/>
      <point x="-7" y="0"/>
      <point x="4" y="0" type="curve" smooth="yes"/>
    </contour>
    <contour>
      <point x="296" y="513" type="move" name="top"/>
    </contour>
    <contour>
      <point x="178" y="0" type="move" name="bottom"/>
    </contour>
  </outline>
</glyph>
<glyph name="y" format="1">
  <advance width="551"/>
  <unicode hex="0079"/>
  <outline>
    <contour>
      <point x="349" y="-204"/>
      <point x="406" y="-138"/>
      <point x="437" y="-4" type="curve" smooth="yes"/>
      <point x="551" y="491" type="line" smooth="yes"/>
      <point x="552" y="494"/>
      <point x="552" y="496"/>
      <point x="552" y="499" type="curve" smooth="yes"/>
      <point x="552" y="508"/>
      <point x="546" y="513"/>
      <point x="534" y="513" type="curve" smooth="yes"/>
      <point x="492" y="513" type="line" smooth="yes"/>
      <point x="478" y="513"/>
      <point x="468" y="506"/>
      <point x="465" y="491" type="curve" smooth="yes"/>
      <point x="408" y="242" type="line" smooth="yes"/>
      <point x="384" y="135"/>
      <point x="301" y="55"/>
      <point x="236" y="55" type="curve" smooth="yes"/>
      <point x="179" y="55"/>
      <point x="147" y="72"/>
      <point x="147" y="126" type="curve" smooth="yes"/>
      <point x="147" y="144"/>
      <point x="150" y="169"/>
      <point x="158" y="202" type="curve" smooth="yes"/>
      <point x="224" y="491" type="line" smooth="yes"/>
      <point x="225" y="494"/>
      <point x="225" y="496"/>
      <point x="225" y="499" type="curve" smooth="yes"/>
      <point x="225" y="508"/>
      <point x="219" y="513"/>
      <point x="207" y="513" type="curve" smooth="yes"/>
      <point x="165" y="513" type="line" smooth="yes"/>
      <point x="151" y="513"/>
      <point x="141" y="506"/>
      <point x="138" y="491" type="curve" smooth="yes"/>
      <point x="66" y="179" type="line" smooth="yes"/>
      <point x="60" y="154"/>
      <point x="58" y="132"/>
      <point x="58" y="115" type="curve" smooth="yes"/>
      <point x="58" y="37"/>
      <point x="99" y="-8"/>
      <point x="189" y="-8" type="curve" smooth="yes"/>
      <point x="273" y="-8"/>
      <point x="331" y="32"/>
      <point x="369" y="81" type="curve"/>
      <point x="371" y="81" type="line"/>
      <point x="365" y="57" type="line"/>
      <point x="338" y="-80"/>
      <point x="292" y="-140"/>
      <point x="192" y="-140" type="curve" smooth="yes"/>
      <point x="120" y="-140"/>
      <point x="90" y="-126"/>
      <point x="67" y="-91" type="curve" smooth="yes"/>
      <point x="64" y="-86"/>
      <point x="60" y="-84"/>
      <point x="56" y="-84" type="curve" smooth="yes"/>
      <point x="54" y="-84"/>
      <point x="49" y="-86"/>
      <point x="42" y="-91" type="curve"/>
      <point x="15" y="-116" type="line" smooth="yes"/>
      <point x="10" y="-121"/>
      <point x="7" y="-126"/>
      <point x="7" y="-131" type="curve" smooth="yes"/>
      <point x="7" y="-149"/>
      <point x="34" y="-174"/>
      <point x="62" y="-188" type="curve" smooth="yes"/>
      <point x="84" y="-200"/>
      <point x="123" y="-204"/>
      <point x="177" y="-204" type="curve" smooth="yes"/>
    </contour>
    <contour>
      <point x="335" y="513" type="move" name="top"/>
    </contour>
    <contour>
      <point x="217" y="0" type="move" name="bottom"/>
    </contour>
  </outline>
</glyph>
<glyph name="z" format="1">
  <advance width="464"/>
  <unicode hex="007A"/>
  <outline>
    <contour>
      <point x="360" y="0" type="line" smooth="yes"/>
      <point x="375" y="0"/>
      <point x="384" y="6"/>
      <point x="386" y="17" type="curve" smooth="yes"/>
      <point x="393" y="47" type="line" smooth="yes"/>
      <point x="393" y="49"/>
      <point x="394" y="50"/>
      <point x="394" y="52" type="curve" smooth="yes"/>
      <point x="394" y="60"/>
      <point x="387" y="64"/>
      <point x="375" y="64" type="curve"/>
      <point x="91" y="63" type="line"/>
      <point x="453" y="435" type="line" smooth="yes"/>
      <point x="469" y="451"/>
      <point x="476" y="464"/>
      <point x="479" y="473" type="curve" smooth="yes"/>
      <point x="483" y="487"/>
      <point x="485" y="494"/>
      <point x="485" y="500" type="curve" smooth="yes"/>
      <point x="485" y="508"/>
      <point x="479" y="513"/>
      <point x="467" y="513" type="curve" smooth="yes"/>
      <point x="124" y="513" type="line" smooth="yes"/>
      <point x="110" y="513"/>
      <point x="101" y="507"/>
      <point x="98" y="496" type="curve" smooth="yes"/>
      <point x="91" y="465" type="line" smooth="yes"/>
      <point x="91" y="463"/>
      <point x="90" y="462"/>
      <point x="90" y="461" type="curve" smooth="yes"/>
      <point x="90" y="452"/>
      <point x="97" y="448"/>
      <point x="109" y="448" type="curve" smooth="yes"/>
      <point x="368" y="449" type="line"/>
      <point x="8" y="81" type="line" smooth="yes"/>
      <point x="-7" y="66"/>
      <point x="-16" y="53"/>
      <point x="-18" y="42" type="curve" smooth="yes"/>
      <point x="-24" y="17" type="line" smooth="yes"/>
      <point x="-24" y="15"/>
      <point x="-25" y="14"/>
      <point x="-25" y="13" type="curve" smooth="yes"/>
      <point x="-25" y="4"/>
      <point x="-18" y="0"/>
      <point x="-6" y="0" type="curve" smooth="yes"/>
    </contour>
    <contour>
      <point x="291" y="513" type="move" name="top"/>
    </contour>
    <contour>
      <point x="173" y="0" type="move" name="bottom"/>
    </contour>
  </outline>
</glyph>
<glyph name="braceleft" format="1">
  <advance width="379"/>
  <unicode hex="007B"/>
  <outline>
    <contour>
      <point x="238" y="-199"/>
      <point x="247" y="-193"/>
      <point x="249" y="-182" type="curve" smooth="yes"/>
      <point x="256" y="-153" type="line"/>
      <point x="256" y="-152"/>
      <point x="256" y="-150"/>
      <point x="256" y="-149" type="curve" smooth="yes"/>
      <point x="256" y="-130"/>
      <point x="189" y="-138"/>
      <point x="186" y="-116" type="curve" smooth="yes"/>
      <point x="185" y="-113"/>
      <point x="185" y="-109"/>
      <point x="185" y="-102" type="curve" smooth="yes"/>
      <point x="185" y="-87"/>
      <point x="187" y="-70"/>
      <point x="192" y="-49" type="curve" smooth="yes"/>
      <point x="224" y="90" type="line" smooth="yes"/>
      <point x="229" y="113"/>
      <point x="231" y="131"/>
      <point x="231" y="144" type="curve" smooth="yes"/>
      <point x="231" y="211"/>
      <point x="178" y="256"/>
      <point x="144" y="265" type="curve"/>
      <point x="144" y="266" type="line"/>
      <point x="166" y="268"/>
      <point x="194" y="279"/>
      <point x="229" y="298" type="curve" smooth="yes"/>
      <point x="262" y="316"/>
      <point x="287" y="364"/>
      <point x="305" y="441" type="curve" smooth="yes"/>
      <point x="337" y="581" type="line"/>
      <point x="354" y="647"/>
      <point x="362" y="667"/>
      <point x="423" y="667" type="curve" smooth="yes"/>
      <point x="437" y="667"/>
      <point x="446" y="673"/>
      <point x="449" y="684" type="curve" smooth="yes"/>
      <point x="456" y="713" type="line"/>
      <point x="456" y="714"/>
      <point x="456" y="716"/>
      <point x="456" y="717" type="curve" smooth="yes"/>
      <point x="456" y="725"/>
      <point x="450" y="730"/>
      <point x="438" y="730" type="curve" smooth="yes"/>
      <point x="289" y="730"/>
      <point x="273" y="683"/>
      <point x="249" y="569" type="curve"/>
      <point x="222" y="455" type="line" smooth="yes"/>
      <point x="192" y="327"/>
      <point x="116" y="297"/>
      <point x="76" y="297" type="curve" smooth="yes"/>
      <point x="63" y="297"/>
      <point x="58" y="290"/>
      <point x="54" y="275" type="curve" smooth="yes"/>
      <point x="49" y="256" type="line" smooth="yes"/>
      <point x="48" y="254"/>
      <point x="48" y="251"/>
      <point x="48" y="248" type="curve" smooth="yes"/>
      <point x="48" y="239"/>
      <point x="53" y="234"/>
      <point x="62" y="234" type="curve" smooth="yes"/>
      <point x="105" y="234"/>
      <point x="144" y="206"/>
      <point x="144" y="142" type="curve" smooth="yes"/>
      <point x="144" y="124"/>
      <point x="141" y="102"/>
      <point x="135" y="77" type="curve" smooth="yes"/>
      <point x="108" y="-38" type="line" smooth="yes"/>
      <point x="104" y="-56"/>
      <point x="102" y="-73"/>
      <point x="102" y="-88" type="curve" smooth="yes"/>
      <point x="102" y="-157"/>
      <point x="128" y="-199"/>
      <point x="223" y="-199" type="curve" smooth="yes"/>
    </contour>
  </outline>
</glyph>
<glyph name="bar" format="1">
  <advance width="288"/>
  <unicode hex="007C"/>
  <outline>
    <contour>
      <point x="160" y="-215" type="line" smooth="yes"/>
      <point x="171" y="-215"/>
      <point x="177" y="-208"/>
      <point x="177" y="-193" type="curve" smooth="yes"/>
      <point x="177" y="708" type="line" smooth="yes"/>
      <point x="177" y="723"/>
      <point x="171" y="730"/>
      <point x="160" y="730" type="curve" smooth="yes"/>
      <point x="130" y="730" type="line" smooth="yes"/>
      <point x="119" y="730"/>
      <point x="113" y="723"/>
      <point x="113" y="708" type="curve" smooth="yes"/>
      <point x="113" y="-193" type="line" smooth="yes"/>
      <point x="113" y="-208"/>
      <point x="119" y="-215"/>
      <point x="130" y="-215" type="curve" smooth="yes"/>
    </contour>
  </outline>
</glyph>
<glyph name="braceright" format="1">
  <advance width="379"/>
  <unicode hex="007D"/>
  <outline>
    <contour>
      <point x="102" y="-199"/>
      <point x="119" y="-153"/>
      <point x="145" y="-38" type="curve" smooth="yes"/>
      <point x="171" y="77" type="line" smooth="yes"/>
      <point x="200" y="205"/>
      <point x="279" y="234"/>
      <point x="317" y="234" type="curve" smooth="yes"/>
      <point x="330" y="234"/>
      <point x="335" y="241"/>
      <point x="339" y="256" type="curve" smooth="yes"/>
      <point x="344" y="275" type="line" smooth="yes"/>
      <point x="345" y="277"/>
      <point x="345" y="280"/>
      <point x="345" y="284" type="curve" smooth="yes"/>
      <point x="345" y="293"/>
      <point x="341" y="297"/>
      <point x="332" y="297" type="curve" smooth="yes"/>
      <point x="287" y="297"/>
      <point x="249" y="325"/>
      <point x="249" y="389" type="curve" smooth="yes"/>
      <point x="249" y="407"/>
      <point x="252" y="429"/>
      <point x="258" y="455" type="curve" smooth="yes"/>
      <point x="285" y="569" type="line" smooth="yes"/>
      <point x="288" y="583"/>
      <point x="290" y="599"/>
      <point x="290" y="618" type="curve" smooth="yes"/>
      <point x="290" y="687"/>
      <point x="266" y="730"/>
      <point x="170" y="730" type="curve" smooth="yes"/>
      <point x="155" y="730"/>
      <point x="146" y="724"/>
      <point x="144" y="713" type="curve" smooth="yes"/>
      <point x="137" y="684" type="line" smooth="yes"/>
      <point x="137" y="682"/>
      <point x="136" y="681"/>
      <point x="136" y="680" type="curve" smooth="yes"/>
      <point x="136" y="671"/>
      <point x="143" y="667"/>
      <point x="155" y="667" type="curve" smooth="yes"/>
      <point x="187" y="667"/>
      <point x="205" y="660"/>
      <point x="208" y="647" type="curve"/>
      <point x="209" y="636" type="line"/>
      <point x="208" y="624"/>
      <point x="207" y="606"/>
      <point x="201" y="581" type="curve" smooth="yes"/>
      <point x="169" y="441" type="line" smooth="yes"/>
      <point x="164" y="419"/>
      <point x="162" y="401"/>
      <point x="162" y="388" type="curve" smooth="yes"/>
      <point x="162" y="320"/>
      <point x="214" y="275"/>
      <point x="250" y="266" type="curve"/>
      <point x="249" y="265" type="line"/>
      <point x="227" y="263"/>
      <point x="199" y="252"/>
      <point x="165" y="233" type="curve" smooth="yes"/>
      <point x="132" y="214"/>
      <point x="106" y="167"/>
      <point x="88" y="90" type="curve" smooth="yes"/>
      <point x="56" y="-49" type="line"/>
      <point x="36" y="-121"/>
      <point x="30" y="-136"/>
      <point x="-30" y="-136" type="curve" smooth="yes"/>
      <point x="-44" y="-136"/>
      <point x="-53" y="-142"/>
      <point x="-56" y="-153" type="curve" smooth="yes"/>
      <point x="-63" y="-182" type="line"/>
      <point x="-63" y="-183"/>
      <point x="-63" y="-185"/>
      <point x="-63" y="-186" type="curve" smooth="yes"/>
      <point x="-63" y="-194"/>
      <point x="-57" y="-199"/>
      <point x="-44" y="-199" type="curve" smooth="yes"/>
    </contour>
  </outline>
</glyph>
<glyph name="asciitilde" format="1">
  <advance width="625"/>
  <unicode hex="007E"/>
  <outline>
    <contour>
      <point x="531" y="264"/>
      <point x="586" y="308"/>
      <point x="610" y="380" type="curve" smooth="yes"/>
      <point x="611" y="385"/>
      <point x="612" y="389"/>
      <point x="612" y="390" type="curve" smooth="yes"/>
      <point x="612" y="396"/>
      <point x="609" y="400"/>
      <point x="604" y="401" type="curve"/>
      <point x="583" y="409" type="line" smooth="yes"/>
      <point x="581" y="410"/>
      <point x="579" y="410"/>
      <point x="578" y="410" type="curve" smooth="yes"/>
      <point x="560" y="410"/>
      <point x="544" y="327"/>
      <point x="476" y="327" type="curve" smooth="yes"/>
      <point x="453" y="327"/>
      <point x="413" y="347"/>
      <point x="359" y="386" type="curve" smooth="yes"/>
      <point x="305" y="425"/>
      <point x="261" y="444"/>
      <point x="224" y="444" type="curve" smooth="yes"/>
      <point x="151" y="444"/>
      <point x="95" y="400"/>
      <point x="71" y="328" type="curve" smooth="yes"/>
      <point x="70" y="326"/>
      <point x="70" y="323"/>
      <point x="70" y="319" type="curve" smooth="yes"/>
      <point x="70" y="312"/>
      <point x="73" y="308"/>
      <point x="78" y="307" type="curve"/>
      <point x="99" y="299" type="line" smooth="yes"/>
      <point x="100" y="298"/>
      <point x="102" y="298"/>
      <point x="103" y="298" type="curve" smooth="yes"/>
      <point x="124" y="298"/>
      <point x="137" y="381"/>
      <point x="206" y="381" type="curve" smooth="yes"/>
      <point x="230" y="381"/>
      <point x="269" y="361"/>
      <point x="322" y="322" type="curve" smooth="yes"/>
      <point x="375" y="283"/>
      <point x="420" y="264"/>
      <point x="458" y="264" type="curve" smooth="yes"/>
    </contour>
  </outline>
</glyph>
<glyph name="exclamdown" format="1">
  <advance width="293"/>
  <unicode hex="00A1"/>
  <outline>
    <contour>
      <point x="76" y="-188" type="line" smooth="yes"/>
      <point x="94" y="-188"/>
      <point x="103" y="-179"/>
      <point x="107" y="-161" type="curve" smooth="yes"/>
      <point x="203" y="300" type="line" smooth="yes"/>
      <point x="204" y="302"/>
      <point x="204" y="305"/>
      <point x="204" y="308" type="curve" smooth="yes"/>
      <point x="204" y="317"/>
      <point x="198" y="322"/>
      <point x="186" y="322" type="curve" smooth="yes"/>
      <point x="151" y="322" type="line" smooth="yes"/>
      <point x="135" y="322"/>
      <point x="128" y="315"/>
      <point x="124" y="300" type="curve" smooth="yes"/>
      <point x="7" y="-161" type="line" smooth="yes"/>
      <point x="6" y="-164"/>
      <point x="6" y="-167"/>
      <point x="6" y="-171" type="curve" smooth="yes"/>
      <point x="6" y="-182"/>
      <point x="12" y="-188"/>
      <point x="25" y="-188" type="curve" smooth="yes"/>
    </contour>
    <contour>
      <point x="216" y="409" type="line" smooth="yes"/>
      <point x="229" y="409"/>
      <point x="239" y="416"/>
      <point x="243" y="431" type="curve" smooth="yes"/>
      <point x="257" y="491" type="line"/>
      <point x="257" y="494"/>
      <point x="258" y="496"/>
      <point x="258" y="498" type="curve" smooth="yes"/>
      <point x="258" y="508"/>
      <point x="252" y="513"/>
      <point x="240" y="513" type="curve" smooth="yes"/>
      <point x="185" y="513" type="line" smooth="yes"/>
      <point x="171" y="513"/>
      <point x="161" y="506"/>
      <point x="158" y="491" type="curve" smooth="yes"/>
      <point x="144" y="431" type="line" smooth="yes"/>
      <point x="143" y="428"/>
      <point x="143" y="426"/>
      <point x="143" y="423" type="curve" smooth="yes"/>
      <point x="143" y="413"/>
      <point x="149" y="409"/>
      <point x="161" y="409" type="curve" smooth="yes"/>
    </contour>
  </outline>
</glyph>
<glyph name="cent" format="1">
  <advance width="542"/>
  <unicode hex="00A2"/>
  <outline>
    <contour>
      <point x="225" y="-121" type="line" smooth="yes"/>
      <point x="235" y="-121"/>
      <point x="243" y="-114"/>
      <point x="247" y="-99" type="curve" smooth="yes"/>
      <point x="268" y="-8" type="line"/>
      <point x="405" y="-8"/>
      <point x="462" y="96"/>
      <point x="462" y="99" type="curve" smooth="yes"/>
      <point x="462" y="104"/>
      <point x="459" y="108"/>
      <point x="454" y="112" type="curve" smooth="yes"/>
      <point x="423" y="135" type="line" smooth="yes"/>
      <point x="420" y="138"/>
      <point x="417" y="139"/>
      <point x="413" y="139" type="curve" smooth="yes"/>
      <point x="396" y="139"/>
      <point x="358" y="61"/>
      <point x="282" y="56" type="curve"/>
      <point x="375" y="455" type="line"/>
      <point x="434" y="439"/>
      <point x="445" y="387"/>
      <point x="460" y="387" type="curve" smooth="yes"/>
      <point x="463" y="387"/>
      <point x="466" y="388"/>
      <point x="469" y="390" type="curve" smooth="yes"/>
      <point x="501" y="407" type="line" smooth="yes"/>
      <point x="508" y="411"/>
      <point x="511" y="416"/>
      <point x="511" y="422" type="curve" smooth="yes"/>
      <point x="511" y="425"/>
      <point x="510" y="429"/>
      <point x="508" y="433" type="curve" smooth="yes"/>
      <point x="485" y="483"/>
      <point x="446" y="512"/>
      <point x="389" y="519" type="curve"/>
      <point x="411" y="611" type="line" smooth="yes"/>
      <point x="412" y="613"/>
      <point x="412" y="616"/>
      <point x="412" y="619" type="curve" smooth="yes"/>
      <point x="412" y="628"/>
      <point x="407" y="633"/>
      <point x="398" y="633" type="curve" smooth="yes"/>
      <point x="374" y="633" type="line" smooth="yes"/>
      <point x="361" y="633"/>
      <point x="355" y="626"/>
      <point x="352" y="611" type="curve" smooth="yes"/>
      <point x="331" y="521" type="line"/>
      <point x="252" y="517"/>
      <point x="187" y="483"/>
      <point x="135" y="420" type="curve" smooth="yes"/>
      <point x="84" y="358"/>
      <point x="58" y="283"/>
      <point x="58" y="196" type="curve" smooth="yes"/>
      <point x="58" y="98"/>
      <point x="112" y="12"/>
      <point x="210" y="-4" type="curve"/>
      <point x="188" y="-99" type="line" smooth="yes"/>
      <point x="187" y="-101"/>
      <point x="187" y="-104"/>
      <point x="187" y="-107" type="curve" smooth="yes"/>
      <point x="187" y="-116"/>
      <point x="191" y="-121"/>
      <point x="200" y="-121" type="curve" smooth="yes"/>
    </contour>
    <contour>
      <point x="205" y="67"/>
      <point x="187" y="80"/>
      <point x="171" y="100" type="curve"/>
      <point x="156" y="121"/>
      <point x="148" y="150"/>
      <point x="148" y="189" type="curve" smooth="yes"/>
      <point x="148" y="369"/>
      <point x="238" y="443"/>
      <point x="316" y="456" type="curve"/>
      <point x="225" y="61" type="line"/>
    </contour>
  </outline>
</glyph>
